<?xml version="1.0" encoding="UTF-8"?>
<svg id="Layer_2" data-name="Layer 2" xmlns="http://www.w3.org/2000/svg" viewBox="0 0 101 215">
  <defs>
    <style>
      .cls-1 {
        fill: #592b74;
        fill-rule: evenodd;
      }

      .cls-1, .cls-2 {
        stroke-width: 0px;
      }

      .cls-2 {
        fill: #211634;
      }
    </style>
  </defs>
  <g id="Layer_1-2" data-name="Layer 1">
    <g>
      <g id="silhouette-male-green">
        <path id="silhouette-male-2" class="cls-2" d="m100.47,102.49c.02-.1.04-.21.04-.32.03-1.04-.23-2.23-.22-3.5.09-11.09.01-17.09-2.02-21.71-.05-.3-.09-.56-.1-.76-.56-23.84-13.61-38.25-26.14-40.64-.06-.02-.13-.04-.2-.06-.22-.07-.44-.14-.67-.21-.01,0-.02,0-.03-.01-.22-.07-.45-.15-.69-.23-.02,0-.03-.01-.04-.02-.23-.08-.47-.16-.71-.25-.02,0-.03-.01-.05-.02-.24-.09-.49-.18-.74-.27,0,0-.02,0-.03,0-.26-.1-.52-.2-.77-.3,0,0,0,0,0,0-.79-.31-1.59-.65-2.34-1h0c-1.8-.84-3.38-1.75-4.19-2.6-1.2-1.27-1.9-2.55-2.33-3.73.51-.72.86-1.44,1.07-2.08.38-1.2.9-2.32,1.13-3.67.53-.78.94-1.62,1.26-2.47.41-1.1-.08-1.56.53-2.6.45-.77.69-1.63.55-2.45-.14-.82.34-1.47.42-2.23.08-.77-.32-1.5-.47-2.24-.16-.78.09-1.48-.21-2.24-.23-.58-.91-1.03-1.27-1.53-.45-.62-.59-1.12-1.09-1.72-.55-.66-1.27-.76-2.02-1.15-1.05-.53-1.48-1.08-2.64-1.31-2-.39-3.82-.7-5.92-.66h-.14c-2.1-.05-3.93.27-5.92.66-1.17.23-1.6.78-2.64,1.31-.75.38-1.47.49-2.02,1.15-.5.6-.65,1.1-1.09,1.72-.36.49-1.05.95-1.27,1.53-.3.76-.05,1.46-.21,2.24-.15.74-.56,1.47-.47,2.24.08.76.57,1.41.42,2.23-.14.82.1,1.67.55,2.45.6,1.04.11,1.51.53,2.6.32.85.73,1.69,1.26,2.47.24,1.35.75,2.47,1.13,3.67.2.64.56,1.36,1.07,2.08-.43,1.18-1.13,2.45-2.33,3.73-.8.85-2.39,1.76-4.19,2.6-1.01.47-2.08.91-3.13,1.31,0,0,0,0,0,0-.25.1-.51.19-.76.28,0,0-.02,0-.03.01-.25.09-.49.17-.72.25-.01,0-.02,0-.03.01-.24.08-.47.16-.7.23,0,0-.02,0-.03,0-.23.07-.46.14-.68.21-.06.02-.13.04-.2.06-12.53,2.39-25.58,16.81-26.14,40.64,0,.2-.05.46-.1.76-2.03,4.63-2.11,10.62-2.02,21.71.01,1.27-.25,2.46-.22,3.5,0,.11.02.22.04.32-1.01,2.94-.42,6.18.58,8.91,2.43,6.63,7.23,9.63,8.26,8.65,1.02-.99-.46-2.28-1.56-4.61-1.74-3.7-.36-5.68-.48-7.26.77,1.22,1.25.69,2.5,4.23.52,1.47,2.97,1.8,2.95,1.67-.16-1.37-.49-2.87-.78-4.43-.78-4.17-1.95-5.17-2.79-6.13.05-.1.09-.2.13-.31,0,0,.04-1.18.27-2.1,1.44-5.75,6.42-11.46,6.47-19.91.01-2.01-.07-3.6-.24-4.87,1.7-2.36,3.71-5.78,5.67-9.45h0c.01.08.02.18.02.28h0s0,.09,0,.13c0,0,0,0,0,0,0,.07,0,.13-.01.21h0c0,.06-.01.12-.02.17,0,0,0,0,0,0-.01.08-.02.17-.04.26,0,0,0,0,0,.01,0,.05-.02.1-.03.16,0,0,0,.01,0,.02-.02.09-.04.19-.06.29,0,0,0,.01,0,.02-.01.06-.03.12-.04.18,0,0,0,0,0,0-.03.13-.06.26-.1.4,0,0,0,0,0,0-.01.04-.02.08-.03.12,0,0,0,0,0,.01-.03.11-.06.23-.1.35-.03.11-.06.21-.09.32,0,.01,0,.02-.01.03-.05.18-.11.37-.17.56h0c-.09.29-.18.59-.28.89-1.6,5.06-4.56,13.6-4.8,23.83,0,0,0,.01,0,.02h0s0,.02,0,.02c-.03.64-.05,1.3-.06,1.96,0,.14,0,.27,0,.41,0,.47,0,.94,0,1.42,0,.26,0,.51.02.77,0,.35.02.69.03,1.04.01.33.03.67.04,1,0,.18.02.36.03.54.19,3.32.57,6.78,1.09,10.22,0,0,0,0,0,0,1.8,11.9,5.16,23.46,7.16,27.65,2.35,4.92,4.54,7.44,5.44,13.52.55,3.68-.35,8.58-.27,14.4.13,8.79,5.32,22.45,8.5,31.3.28.77-1.49,4.05-1.69,5.57-.35,2.72-2.01,4.26-2.32,5.85-.48,2.45,5.76,3.2,7.45,3.32,1.39.1,7.69,1.41,7.78-1.75.03-1.1-1.16-4.01-1.44-7.1-.29-3.17-.5-4.86-.58-6.43-.38-6.7,2.3-18.3,2.71-28.31.32-7.78-1.14-11.38-1.41-15.49-.22-3.38,1.14-4.96.21-12.27-.2-1.57,1.83-14.72,2.08-27.99h0c.02-.85.03-.85.05,0h0c.25,13.26,2.28,26.42,2.08,27.99-.94,7.31.43,8.89.21,12.27-.27,4.1-1.74,7.71-1.42,15.49.42,10.01,3.1,21.61,2.71,28.31-.09,1.57-.3,3.26-.59,6.43-.28,3.08-1.47,5.99-1.44,7.1.08,3.16,6.39,1.85,7.78,1.75,1.69-.12,7.93-.88,7.45-3.32-.32-1.6-1.97-3.13-2.32-5.85-.19-1.51-1.96-4.79-1.69-5.57,3.18-8.85,8.37-22.51,8.5-31.3.08-5.82-.82-10.71-.27-14.4.91-6.08,3.09-8.6,5.44-13.52,2-4.18,5.35-15.74,7.16-27.65,0,0,0,0,.01,0,.52-3.45.9-6.92,1.09-10.25,0-.17.02-.33.03-.49.02-.34.03-.68.04-1.01.01-.35.03-.69.03-1.04,0-.26.01-.52.02-.77,0-.48,0-.96,0-1.44,0-.13,0-.26,0-.38,0-.67-.03-1.33-.06-1.98h0v-.02s0,0,0-.01c-.23-10.24-3.19-18.77-4.8-23.84-.1-.31-.19-.6-.28-.88,0,0,0,0,0,0-.07-.22-.13-.42-.19-.63-.03-.09-.05-.17-.07-.26-.04-.13-.07-.26-.11-.38,0,0,0,0,0-.01-.01-.04-.02-.08-.03-.12,0,0,0,0,0,0-.04-.14-.07-.27-.1-.4,0,0,0,0,0,0-.01-.06-.03-.12-.04-.18-.03-.11-.05-.22-.07-.32,0,0,0,0,0-.01-.01-.05-.02-.11-.03-.16,0,0,0,0,0,0-.02-.09-.03-.18-.04-.27,0,0,0,0,0,0,0-.05-.01-.11-.02-.16,0,0,0,0,0-.01,0-.07-.01-.14-.01-.21,0,0,0,0,0,0,0-.04,0-.08,0-.12h0c0-.1,0-.2.02-.28h0c1.95,3.67,3.96,7.09,5.67,9.45-.16,1.27-.25,2.86-.24,4.87.04,8.45,5.03,14.16,6.47,19.91.23.93.27,2.1.27,2.1.03.11.08.21.13.31-.84.97-2.01,1.96-2.79,6.13-.29,1.55-.62,3.05-.78,4.43-.02.13,2.43-.2,2.95-1.67,1.25-3.54,1.73-3.01,2.5-4.23-.12,1.58,1.26,3.56-.48,7.26-1.1,2.34-2.58,3.63-1.56,4.61,1.02.99,5.82-2.01,8.25-8.65,1-2.72,1.59-5.96.58-8.91h0Z"/>
      </g>
      <g id="silhouette-male-1">
        <path class="cls-1" d="m84.89,100.69c1.17-12.41.59-19.34-1.02-23.89-.15-5.28-.85-12.12-1.8-16.32-1.23-5.44-3.31-9.34-3.52-13.92-.31-7.03-2.64-11.42-10.94-12.26-.3-.07-.59-.11-.88-.16-.05,0-.1-.01-.14-.02-2.98-.4-5.59.16-8.51-2.88-1.1-1.14-1.62-2.62-1.88-4.33-.04-.24-.07-.48-.1-.73,0-.05-.01-.1-.02-.15,0-.03,0-.06,0-.09.64-.74,1.22-1.45,1.47-1.85.34-.55.56-1.22.72-1.96.03-.04.06-.08.1-.12.82-1.09,1.39-2.36,1.8-3.66.35-1.11-.06-1.58.44-2.63.37-.78.57-1.65.46-2.47-.12-.83.28-1.49.35-2.26.07-.78.2-1.52.08-2.26-.13-.79.08-1.5-.17-2.27-.19-.58-.76-1.04-1.06-1.54-.37-.63-.49-1.13-.91-1.74-.46-.66-1.06-.77-1.69-1.16-.87-.54-1.23-1.1-2.21-1.33-1.67-.39-3.19-.71-4.95-.67-1.76-.05-3.28.27-4.95.67-.97.23-1.33.79-2.21,1.33-.63.39-1.22.5-1.69,1.16-.42.6-.54,1.11-.91,1.74-.3.5-.87.96-1.06,1.54-.25.77-.04,1.48-.17,2.27-.13.75,0,1.49.08,2.26.07.77.47,1.42.35,2.26-.12.83.08,1.69.46,2.47.5,1.05.09,1.52.44,2.63.4,1.3.97,2.57,1.8,3.66.03.04.06.08.1.12.16.74.38,1.41.72,1.96.25.4.83,1.11,1.47,1.85,0,.03,0,.06,0,.09,0,.05-.01.1-.02.15-.03.25-.06.49-.1.73-.26,1.71-.78,3.19-1.88,4.33-2.93,3.04-5.54,2.48-8.51,2.88-.05,0-.1.01-.14.02-.29.04-.58.09-.88.16-8.3.84-10.63,5.23-10.94,12.26-.2,4.58-2.29,8.47-3.52,13.92-.95,4.21-1.65,11.05-1.8,16.32-1.6,4.56-2.18,11.49-1.02,23.9.12,1.27.34,2.97.46,4.01-.64,2.76-1.23,7.65-.18,10.39,2.53,6.63,7.39,9.57,8.4,8.56s-.49-2.28-1.63-4.61c-1.8-3.69-1.24-5.23-1.38-6.82.79,1.21,1.26.68,2.57,4.21.54,1.47,1.79,1.04,1.77.91-.18-1.37-.53-2.88-.85-4.43-1.17-5.79-3.23-6.24-3.94-8.21,0,0,.25-1.67.4-2.62.94-5.88,2.9-13.86,3.13-22.96.01-2.67,4.16-11.61,6.47-25.34.19.92.41,1.94.65,3.02,0,0,0,.02,0,.02.12.55.25,1.11.38,1.68,0,.04.02.08.03.12.13.57.27,1.15.42,1.74.01.04.02.09.03.13.15.59.3,1.19.46,1.8,0,.03.02.07.03.1.16.62.34,1.25.51,1.88,2.02,7.14,1.53,15.09,1.62,19.32.08,3.64-.5,3.69-1.11,5.68-.08.27-.17.53-.25.78,0,.01,0,.02-.01.04-.08.24-.17.48-.26.71,0,.02-.02.04-.02.06-.08.22-.17.44-.25.66-.01.03-.02.06-.04.09-.08.2-.16.41-.24.61-.06.15-.13.31-.19.46l-.02.04c-.05.13-.11.27-.16.4-.01.03-.02.06-.04.09-.04.11-.09.22-.13.34-.02.04-.03.09-.05.13,0,0,0,.02-.01.03-.04.11-.09.22-.13.33-.01.03-.02.06-.04.09-.04.09-.07.19-.11.28,0,.01,0,.02-.01.03-.01.04-.03.08-.04.12-.01.04-.03.08-.04.11-.04.12-.08.24-.13.36-.01.04-.03.09-.04.13,0,0,0,.02,0,.02,0,0,0,.01,0,.02-.05.14-.1.29-.14.43,0,.01,0,.03-.01.04-.05.15-.09.3-.14.45-.01.05-.03.09-.04.14-.04.14-.08.28-.12.42,0,.03-.02.07-.03.1-.05.17-.09.35-.14.54-.01.04-.02.09-.03.13-.03.15-.07.3-.1.45-.01.05-.02.11-.03.16-.04.2-.08.4-.12.6,0,0,0,.02,0,.02-.04.2-.07.4-.1.61,0,.06-.02.12-.03.18-.03.18-.05.36-.08.55,0,.05-.01.09-.02.14-.03.23-.06.47-.08.71,0,.05-.01.11-.02.16-.02.2-.04.4-.06.61,0,.07-.01.14-.02.21-.02.26-.04.53-.06.8-.04.51-.08,1.01-.12,1.5-.01.15-.02.29-.03.44-.02.37-.05.73-.07,1.09,0,.14-.02.27-.02.41-.05.98-.09,1.94-.11,2.88,0,.06,0,.12,0,.18,0,.43-.01.86-.01,1.28,0,.05,0,.11,0,.16-.01,9.48,1.59,17.15,3.45,28.94.75,4.76,2.4,11.9,2.01,15.62-.39,3.72-.73,7.27-.52,13.45.29,8.61,3.6,16.41,3.74,31.28,0,.82-1.49,4.07-1.69,5.59-.35,2.73-2.48,4.27-2.79,5.88-.48,2.46,5.77,3.22,7.46,3.34,1.39.1,4.91,1.31,5-1.86.03-1.11-1.16-4.03-1.45-7.13-.29-3.19-.5-4.88-.59-6.46-.38-6.73,2.4-18.33,2.82-28.38.32-7.81-1.15-11.43-1.42-15.56-.22-3.39,1.1-5.82.87-11.58-.07-1.69-.39-3.49-.1-5.31,1.3-8.18,1.76-18.61,1.72-26.49.36.15.73.26,1.12.31h0s0,0,.01,0c.15.02.3.03.46.03.15,0,.31-.01.46-.03,0,0,0,0,.01,0h0c.38-.05.75-.16,1.12-.31-.05,7.87.41,18.3,1.72,26.49.29,1.82-.03,3.62-.1,5.31-.24,5.77,1.09,8.19.87,11.58-.27,4.12-1.74,7.75-1.42,15.56.42,10.05,3.2,21.65,2.82,28.38-.09,1.58-.3,3.27-.59,6.46-.28,3.1-1.48,6.02-1.45,7.13.08,3.18,3.61,1.96,5,1.86,1.69-.12,7.95-.88,7.46-3.34-.32-1.6-2.44-3.15-2.79-5.88-.19-1.52-1.7-4.77-1.69-5.59.15-14.86,3.45-22.67,3.74-31.28.21-6.17-.13-9.73-.52-13.45-.39-3.72,1.25-10.86,2.01-15.62,1.57-9.98,2.96-17.01,3.35-24.68h0c.07-1.39.11-2.81.1-4.26v-.15c0-.43,0-.86-.01-1.3v-.17c-.02-.94-.06-1.9-.11-2.89,0-.13-.01-.26-.02-.38-.02-.37-.04-.74-.07-1.11-.01-.14-.02-.28-.03-.42-.04-.5-.08-1-.12-1.5-.02-.28-.04-.54-.06-.8,0-.07-.01-.15-.02-.22-.02-.2-.04-.4-.06-.6,0-.06-.01-.12-.02-.17-.03-.24-.05-.47-.08-.7,0-.05-.01-.11-.02-.16-.02-.18-.05-.35-.07-.52-.01-.07-.02-.13-.03-.2-.03-.2-.06-.39-.1-.58,0-.02,0-.04-.01-.05-.04-.2-.08-.4-.12-.59-.01-.06-.03-.12-.04-.18-.03-.14-.06-.28-.1-.42-.01-.05-.02-.11-.04-.16-.04-.18-.09-.35-.13-.52-.01-.05-.03-.09-.04-.13-.04-.13-.07-.26-.11-.39-.02-.06-.03-.11-.05-.17-.04-.13-.08-.27-.12-.4-.01-.03-.02-.06-.03-.09-.05-.14-.09-.29-.14-.42h0s0-.02-.01-.03c-.02-.05-.04-.1-.05-.15-.04-.11-.08-.22-.12-.33-.02-.05-.03-.09-.05-.14-.01-.04-.03-.08-.04-.12,0,0,0,0,0-.01-.04-.1-.07-.2-.11-.29-.01-.03-.03-.07-.04-.1-.04-.11-.09-.22-.13-.33,0,0,0,0,0,0,0,0,0,0,0,0-.02-.04-.03-.09-.05-.13-.05-.13-.1-.26-.16-.39,0,0,0-.01,0-.02-.12-.31-.25-.62-.38-.93-.08-.21-.17-.41-.25-.62-.01-.02-.02-.05-.03-.07-.09-.22-.17-.44-.26-.67,0-.02-.01-.03-.02-.05-.09-.24-.18-.47-.26-.72,0,0,0-.02-.01-.03-.09-.25-.17-.52-.26-.78-.61-1.99-1.19-2.04-1.11-5.68.1-4.22-.4-12.17,1.62-19.32.18-.63.35-1.26.51-1.88,0-.03.02-.06.02-.09.16-.61.32-1.22.46-1.82,0-.04.02-.07.03-.11.15-.6.29-1.2.43-1.78,0-.02,0-.03.01-.05.4-1.73.75-3.35,1.05-4.77,2.31,13.73,6.46,22.67,6.47,25.34.23,9.09,2.19,17.08,3.13,22.96.15.94.4,2.62.4,2.62-.7,1.97-2.77,2.42-3.94,8.21-.32,1.56-.67,3.06-.85,4.43-.02.13,1.24.56,1.77-.91,1.31-3.54,1.78-3,2.57-4.21-.14,1.58.41,3.13-1.38,6.82-1.14,2.33-2.64,3.61-1.63,4.61s5.86-1.93,8.4-8.56c1.05-2.74.46-7.63-.18-10.39.12-1.03.34-2.74.46-4.01h0Z"/>
      </g>
    </g>
  </g>
</svg>