<svg width="21" height="60" viewBox="0 0 21 60" fill="none" xmlns="http://www.w3.org/2000/svg">
<path d="M0 9H21V58C21 59.1046 20.1046 60 19 60H2C0.89543 60 0 59.1046 0 58V9Z" fill="#1D3E59"/>
<path d="M6 5H15L21 9H0L6 5Z" fill="#1D3E59"/>
<rect x="6" y="2" width="9" height="3" fill="#1D3E59"/>
<rect x="5" width="11" height="2" fill="#2988AE"/>
<path d="M0 11H21V58C21 59.1046 20.1046 60 19 60H2C0.89543 60 0 59.1046 0 58V11Z" fill="#33C6F5"/>
<rect x="9" y="27" width="3" height="15" fill="#4D8CBF"/>
<rect x="18" y="33" width="3" height="15" transform="rotate(90 18 33)" fill="#4D8CBF"/>
</svg>
