<svg width="226" height="416" viewBox="0 0 226 416" fill="none" xmlns="http://www.w3.org/2000/svg">
<path d="M104 29L150 7.50003L205 2.00003V80L141 94.5L104 29Z" fill="#ED223F"/>
<path d="M27.5001 105L56 62.5L99.5001 32L137.5 97.5L113 116.5L93.5001 143L27.5001 105Z" fill="#FA7A3A"/>
<path d="M0.5 207L5 154.5L24 108L93.5001 147.5L79 174.5L76.5 207H0.5Z" fill="#F1E22E"/>
<path d="M28 310L5 256.5L0.5 211.5L76.5 212.5L81.5 244.5L93.5 271.5L28 310Z" fill="#61BD4B"/>
<path d="M101.5 385L60 353L28 313.5L96 276.5L112.5 298L139 318.5L101.5 385Z" fill="#4CD8FF"/>
<path d="M205.5 412L153 406.5L105.5 386.5L142.5 321.5L175.5 332.5L204.5 336.5L205.5 412Z" fill="#1C97DB"/>
<path d="M57.5 247L188 205L192.5 223L58.5 252L56.5 249.5L57.5 247Z" fill="black"/>
<circle cx="206" cy="210" r="19" fill="black"/>
<path d="M42.253 284.04L33.8676 286.458L32.8684 282.994C32.6874 282.367 32.6539 281.789 32.7681 281.263C32.8787 280.734 33.1166 280.283 33.4817 279.908C33.8441 279.535 34.3132 279.265 34.8892 279.099C35.4678 278.932 36.0108 278.913 36.518 279.041C37.0218 279.168 37.4597 279.43 37.8318 279.829C38.2039 280.227 38.4825 280.747 38.6675 281.388L39.284 283.526L37.6872 283.986L37.1793 282.226C37.0911 281.92 36.9643 281.68 36.7988 281.506C36.6325 281.329 36.4385 281.215 36.2167 281.164C35.9922 281.113 35.7516 281.125 35.495 281.199C35.2357 281.274 35.0273 281.392 34.8696 281.552C34.7092 281.714 34.6071 281.913 34.5632 282.151C34.5193 282.388 34.5411 282.658 34.6285 282.961L34.9167 283.96L41.6684 282.013L42.253 284.04ZM39.3899 273.668C39.5797 274.326 39.6138 274.931 39.4923 275.483C39.3672 276.034 39.1001 276.507 38.691 276.903C38.2784 277.297 37.7376 277.591 37.0689 277.784C36.4192 277.971 35.8145 278.006 35.2546 277.89C34.692 277.774 34.2082 277.522 33.8034 277.133C33.3958 276.745 33.1006 276.235 32.918 275.601C32.7888 275.154 32.7403 274.724 32.7725 274.313C32.8046 273.901 32.9182 273.521 33.1132 273.172C33.3082 272.823 33.5847 272.516 33.9426 272.25C34.2978 271.985 34.7334 271.778 35.2493 271.629L35.7488 271.485L37.3255 276.951L36.1627 277.287L35.1234 273.683C34.9113 273.748 34.7361 273.853 34.598 273.999C34.4598 274.145 34.3691 274.318 34.3259 274.517C34.2792 274.713 34.2877 274.922 34.3515 275.143C34.416 275.367 34.5244 275.553 34.6766 275.702C34.826 275.851 35.0017 275.952 35.2036 276.006C35.4027 276.061 35.6109 276.06 35.8281 276.004L37.0114 275.662C37.268 275.588 37.4786 275.473 37.6433 275.316C37.8053 275.16 37.9127 274.974 37.9656 274.757C38.0185 274.541 38.008 274.305 37.934 274.048C37.8828 273.871 37.8118 273.717 37.7209 273.586C37.63 273.456 37.5219 273.352 37.3964 273.276C37.271 273.2 37.1311 273.156 36.977 273.144L36.4999 271.291C36.9341 271.248 37.3415 271.312 37.722 271.484C38.099 271.653 38.4324 271.922 38.7221 272.291C39.009 272.66 39.2317 273.119 39.3899 273.668ZM32.1627 265.464L32.7421 267.289C32.6166 267.345 32.5156 267.431 32.439 267.545C32.3597 267.659 32.311 267.793 32.2931 267.946C32.2716 268.097 32.2865 268.261 32.3376 268.439C32.4046 268.671 32.5081 268.855 32.6481 268.992C32.7874 269.126 32.9358 269.169 33.0933 269.121C33.2169 269.088 33.3092 269.008 33.3701 268.881C33.4303 268.752 33.4495 268.547 33.4277 268.266L33.3074 266.988C33.2464 266.326 33.311 265.801 33.5013 265.415C33.6907 265.027 34.0143 264.765 34.4721 264.63C34.9042 264.508 35.3165 264.528 35.7091 264.69C36.1009 264.849 36.4485 265.121 36.7519 265.507C37.0526 265.893 37.284 266.367 37.4462 266.93C37.7053 267.828 37.7253 268.589 37.5064 269.214C37.284 269.837 36.8723 270.275 36.2712 270.528L35.6516 268.565C35.8683 268.455 36.0103 268.291 36.0777 268.074C36.145 267.856 36.1377 267.606 36.0559 267.322C35.9818 267.065 35.8738 266.87 35.7319 266.737C35.5899 266.603 35.4393 266.558 35.2802 266.601C35.1391 266.644 35.0439 266.74 34.9947 266.887C34.9428 267.035 34.93 267.247 34.9565 267.524L35.0642 268.681C35.1314 269.345 35.0553 269.875 34.8358 270.273C34.6136 270.671 34.2619 270.938 33.7807 271.074C33.3612 271.198 32.9699 271.189 32.6071 271.049C32.2414 270.909 31.9192 270.653 31.6405 270.281C31.3617 269.909 31.1404 269.439 30.9766 268.871C30.731 268.019 30.7161 267.296 30.9319 266.702C31.1451 266.108 31.5553 265.696 32.1627 265.464ZM35.4742 260.093C35.6647 260.753 35.6934 261.36 35.5602 261.913C35.4234 262.464 35.1491 262.938 34.7372 263.335C34.3219 263.729 33.7921 264.02 33.1479 264.206C32.501 264.392 31.898 264.429 31.3389 264.315C30.7763 264.199 30.2917 263.944 29.8853 263.55C29.4753 263.154 29.1751 262.625 28.9845 261.965C28.794 261.304 28.7671 260.698 28.9038 260.148C29.0371 259.595 29.3114 259.121 29.7267 258.726C30.1386 258.329 30.668 258.038 31.3149 257.851C31.9591 257.665 32.5625 257.63 33.1251 257.746C33.6842 257.859 34.1688 258.114 34.5787 258.511C34.9852 258.905 35.2837 259.432 35.4742 260.093ZM33.9598 260.516C33.8905 260.276 33.7582 260.094 33.5627 259.97C33.3673 259.846 33.126 259.778 32.8387 259.766C32.5507 259.752 32.2347 259.794 31.8908 259.894C31.5414 259.994 31.2487 260.128 31.0126 260.293C30.7758 260.456 30.6077 260.642 30.5083 260.851C30.4089 261.06 30.3939 261.285 30.4632 261.525C30.5348 261.773 30.6691 261.962 30.8661 262.092C31.0624 262.218 31.3045 262.289 31.5925 262.304C31.8797 262.315 32.1981 262.271 32.5475 262.17C32.8914 262.071 33.1818 261.94 33.4186 261.777C33.6547 261.611 33.822 261.422 33.9206 261.211C34.0184 260.996 34.0315 260.765 33.9598 260.516ZM33.4286 253.447L27.1395 255.261L26.562 253.259L32.8511 251.445L33.4286 253.447ZM26.1173 254.469C26.1984 254.751 26.1753 255.019 26.0479 255.274C25.9178 255.531 25.7204 255.697 25.4556 255.773C25.1936 255.849 24.9406 255.813 24.6968 255.664C24.4501 255.516 24.2863 255.302 24.2052 255.021C24.1233 254.737 24.1478 254.468 24.2787 254.215C24.406 253.959 24.6007 253.794 24.8628 253.718C25.1275 253.642 25.3832 253.677 25.6298 253.825C25.8729 253.971 26.0354 254.186 26.1173 254.469ZM31.911 247.848C32.0448 248.312 32.0464 248.768 31.9156 249.217C31.7849 249.665 31.5119 250.072 31.0969 250.437C30.6818 250.803 30.1181 251.088 29.4056 251.293C28.6659 251.507 28.0233 251.565 27.478 251.468C26.9326 251.371 26.4905 251.166 26.1518 250.853C25.8122 250.537 25.5791 250.159 25.4523 249.719C25.3571 249.389 25.3329 249.09 25.3798 248.822C25.424 248.555 25.5128 248.32 25.6461 248.116C25.7795 247.912 25.9303 247.742 26.0985 247.608L26.0867 247.567L22.9135 248.483L22.336 246.48L30.7214 244.062L31.293 246.043L30.2735 246.337L30.2912 246.399C30.5094 246.428 30.7256 246.495 30.9397 246.602C31.1538 246.709 31.3466 246.865 31.518 247.069C31.6887 247.272 31.8197 247.531 31.911 247.848ZM30.1502 247.601C30.0802 247.359 29.9521 247.171 29.766 247.038C29.5772 246.906 29.3438 246.83 29.0659 246.81C28.788 246.79 28.4799 246.828 28.1414 246.926C27.7974 247.025 27.5147 247.157 27.293 247.321C27.0706 247.483 26.9177 247.67 26.8344 247.884C26.7502 248.094 26.7432 248.321 26.8133 248.564C26.8849 248.812 27.0138 249.003 27.1999 249.135C27.386 249.268 27.6162 249.344 27.8906 249.362C28.1642 249.378 28.4702 249.337 28.8087 249.239C29.1471 249.141 29.4289 249.011 29.6541 248.849C29.8792 248.686 30.037 248.5 30.1274 248.291C30.2143 248.08 30.2219 247.85 30.1502 247.601ZM29.6269 239.821C29.8166 240.479 29.8508 241.084 29.7292 241.637C29.6042 242.187 29.3371 242.661 28.928 243.057C28.5153 243.451 27.9746 243.744 27.3059 243.937C26.6562 244.124 26.0514 244.16 25.4916 244.043C24.9289 243.928 24.4452 243.675 24.0403 243.287C23.6327 242.899 23.3376 242.388 23.1549 241.755C23.0258 241.307 22.9773 240.878 23.0094 240.466C23.0416 240.055 23.1551 239.675 23.3501 239.326C23.5452 238.977 23.8216 238.669 24.1796 238.403C24.5348 238.138 24.9704 237.931 25.4863 237.783L25.9858 237.638L27.5625 243.104L26.3997 243.44L25.3603 239.837C25.1482 239.901 24.9731 240.006 24.8349 240.152C24.6968 240.299 24.6061 240.471 24.5629 240.67C24.5161 240.867 24.5247 241.076 24.5885 241.297C24.653 241.521 24.7614 241.707 24.9136 241.855C25.063 242.004 25.2387 242.106 25.4406 242.16C25.6397 242.215 25.8479 242.214 26.0651 242.157L27.2484 241.816C27.505 241.742 27.7156 241.626 27.8803 241.469C28.0422 241.313 28.1497 241.127 28.2026 240.911C28.2555 240.694 28.2449 240.458 28.1709 240.201C28.1197 240.024 28.0487 239.87 27.9579 239.74C27.867 239.609 27.7588 239.506 27.6334 239.43C27.5079 239.353 27.3681 239.309 27.2139 239.298L26.7369 237.444C27.1711 237.401 27.5785 237.466 27.959 237.637C28.336 237.806 28.6693 238.075 28.959 238.444C29.246 238.814 29.4686 239.273 29.6269 239.821ZM27.9473 234.045C28.063 234.446 28.0989 234.821 28.0549 235.171C28.0074 235.519 27.8731 235.822 27.6521 236.081C27.4276 236.338 27.1079 236.526 26.693 236.646C26.3436 236.747 26.0311 236.77 25.7555 236.717C25.4798 236.663 25.2358 236.55 25.0235 236.378C24.8112 236.206 24.6263 235.99 24.4687 235.731C24.3085 235.473 24.1686 235.188 24.0492 234.876C23.9133 234.528 23.7961 234.25 23.6977 234.042C23.5965 233.834 23.4976 233.692 23.401 233.613C23.3009 233.532 23.1867 233.511 23.0584 233.548L23.0379 233.554C22.8277 233.614 22.6862 233.733 22.6133 233.911C22.5404 234.089 22.5393 234.301 22.6102 234.546C22.6866 234.811 22.8053 235.007 22.9664 235.135C23.1275 235.263 23.3153 235.32 23.5299 235.305L23.9971 237.171C23.5992 237.227 23.2174 237.184 22.8518 237.044C22.4827 236.903 22.1547 236.657 21.8677 236.308C21.5773 235.957 21.351 235.501 21.1888 234.938C21.0731 234.537 21.0141 234.154 21.012 233.788C21.0072 233.422 21.0587 233.088 21.1664 232.785C21.2714 232.483 21.4338 232.226 21.6538 232.015C21.8729 231.801 22.149 231.646 22.482 231.55L26.7566 230.317L27.2999 232.2L26.4237 232.453L26.4379 232.502C26.6831 232.552 26.9046 232.644 27.1023 232.776C27.2993 232.905 27.4686 233.077 27.61 233.29C27.7506 233.501 27.863 233.752 27.9473 234.045ZM26.4587 233.804C26.3965 233.589 26.2969 233.407 26.16 233.261C26.0223 233.111 25.862 233.007 25.6792 232.947C25.4937 232.888 25.2986 232.888 25.0939 232.947L24.4961 233.12C24.5426 233.168 24.59 233.23 24.6382 233.305C24.6856 233.377 24.734 233.458 24.7834 233.547C24.8328 233.636 24.8802 233.729 24.9258 233.825C24.9713 233.921 25.0142 234.014 25.0546 234.103C25.139 234.282 25.2319 234.43 25.3332 234.546C25.4338 234.659 25.5448 234.736 25.6663 234.778C25.7842 234.818 25.9114 234.818 26.0479 234.779C26.2554 234.719 26.3924 234.599 26.4591 234.421C26.525 234.239 26.5249 234.034 26.4587 233.804ZM17.4406 229.509L25.826 227.09L26.4035 229.092L18.0181 231.511L17.4406 229.509Z" fill="black"/>
<path d="M31.2793 190.147L30.869 192.377L22.8188 187.901L23.3272 185.139L32.4433 183.823L32.0329 186.053L25.2413 186.887L25.229 186.954L31.2793 190.147ZM27.8466 189.823L28.7044 185.163L30.2802 185.453L29.4224 190.113L27.8466 189.823ZM33.2137 180.32C33.0888 180.999 32.8418 181.556 32.473 181.99C32.1046 182.422 31.6478 182.722 31.1027 182.891C30.5547 183.059 29.9525 183.082 29.2959 182.961C28.6365 182.84 28.0821 182.603 27.6326 182.252C27.1808 181.897 26.8597 181.453 26.6692 180.918C26.4793 180.38 26.4463 179.775 26.5703 179.101C26.6798 178.506 26.8827 178.008 27.1791 177.606C27.476 177.201 27.8443 176.911 28.2841 176.735C28.7215 176.555 29.2055 176.507 29.7362 176.59L29.3837 178.506C29.0468 178.484 28.7678 178.548 28.5466 178.698C28.326 178.845 28.1887 179.066 28.1347 179.359C28.091 179.597 28.1197 179.817 28.2209 180.021C28.3193 180.224 28.4892 180.399 28.7305 180.548C28.9696 180.693 29.2791 180.8 29.6591 180.87C30.0391 180.94 30.3694 180.95 30.65 180.901C30.9283 180.848 31.151 180.745 31.3181 180.591C31.4823 180.436 31.5863 180.24 31.63 180.002C31.6649 179.812 31.6553 179.637 31.601 179.477C31.5472 179.314 31.4508 179.171 31.3119 179.047C31.1701 178.923 30.9884 178.827 30.7667 178.76L31.1192 176.845C31.6464 176.962 32.0858 177.18 32.4373 177.499C32.7893 177.815 33.0351 178.214 33.1745 178.696C33.3117 179.175 33.3248 179.716 33.2137 180.32ZM33.8352 176.261L27.3978 175.076L27.775 173.026L34.2124 174.211L33.8352 176.261ZM26.8366 173.911C26.7837 174.199 26.6432 174.428 26.4151 174.6C26.1843 174.772 25.9334 174.832 25.6623 174.782C25.3941 174.733 25.184 174.587 25.0321 174.346C24.8774 174.103 24.8265 173.838 24.8795 173.551C24.9329 173.26 25.0748 173.031 25.3052 172.862C25.5332 172.69 25.7813 172.629 26.0496 172.678C26.3206 172.728 26.5335 172.874 26.6882 173.117C26.8406 173.356 26.8901 173.62 26.8366 173.911ZM34.4524 172.907L28.0151 171.722L28.3738 169.773L29.5556 169.991L29.5688 169.919C29.2023 169.713 28.9352 169.43 28.7675 169.07C28.5998 168.71 28.5566 168.309 28.6379 167.868C28.7201 167.421 28.9051 167.059 29.1929 166.782C29.4806 166.506 29.8252 166.36 30.2267 166.344L30.2391 166.277C29.8784 166.087 29.6157 165.796 29.4508 165.404C29.2832 165.012 29.2431 164.579 29.3305 164.104C29.4426 163.495 29.7292 163.036 30.1903 162.728C30.6486 162.42 31.2172 162.328 31.8962 162.453L36.2296 163.251L35.8524 165.3L31.9884 164.589C31.6671 164.53 31.4074 164.567 31.2094 164.701C31.0087 164.835 30.8841 165.033 30.8358 165.295C30.7838 165.578 30.8352 165.817 30.9897 166.013C31.142 166.205 31.3718 166.33 31.6792 166.387L35.5223 167.094L35.1598 169.064L31.2747 168.349C30.9758 168.294 30.7248 168.331 30.5217 168.461C30.3187 168.591 30.1927 168.789 30.1439 169.055C30.111 169.233 30.1252 169.399 30.1866 169.552C30.2453 169.704 30.3456 169.834 30.4877 169.941C30.6302 170.045 30.8077 170.117 31.02 170.156L34.8296 170.857L34.4524 172.907ZM36.9063 160.186C36.8307 160.597 36.6952 160.949 36.4996 161.242C36.3018 161.532 36.0463 161.744 35.7329 161.877C35.4173 162.006 35.0471 162.032 34.6225 161.954C34.2648 161.888 33.9747 161.77 33.7519 161.599C33.5292 161.428 33.3613 161.218 33.2483 160.969C33.1352 160.72 33.0661 160.444 33.0408 160.142C33.0127 159.839 33.0148 159.522 33.047 159.19C33.0809 158.818 33.1002 158.517 33.105 158.286C33.107 158.056 33.0824 157.884 33.0311 157.77C32.9774 157.653 32.885 157.583 32.7537 157.559L32.7327 157.555C32.5176 157.515 32.3377 157.559 32.1931 157.685C32.0485 157.812 31.953 158.001 31.9068 158.252C31.8569 158.523 31.8754 158.752 31.9625 158.938C32.0495 159.125 32.1922 159.259 32.3908 159.342L31.9758 161.22C31.595 161.092 31.2722 160.884 31.0075 160.595C30.7406 160.304 30.5567 159.938 30.4557 159.497C30.3525 159.054 30.3538 158.544 30.4598 157.968C30.5354 157.558 30.6539 157.188 30.8155 156.86C30.9743 156.531 31.1695 156.255 31.4012 156.032C31.6301 155.808 31.8902 155.651 32.1813 155.56C32.4729 155.466 32.7892 155.451 33.1301 155.514L37.5054 156.319L37.1506 158.247L36.2538 158.082L36.2445 158.132C36.4413 158.287 36.5988 158.467 36.7167 158.674C36.8352 158.878 36.91 159.107 36.9413 159.361C36.973 159.612 36.9613 159.887 36.9063 160.186ZM35.6817 159.307C35.7223 159.086 35.7141 158.879 35.6571 158.687C35.6006 158.491 35.5039 158.326 35.367 158.191C35.2273 158.056 35.0526 157.969 34.8431 157.93L34.2312 157.818C34.2511 157.882 34.266 157.958 34.2757 158.047C34.2859 158.133 34.2932 158.226 34.2975 158.328C34.3019 158.43 34.3029 158.534 34.3007 158.641C34.2984 158.747 34.2955 158.849 34.292 158.947C34.2873 159.145 34.3044 159.319 34.3435 159.468C34.3831 159.613 34.4479 159.732 34.5379 159.824C34.6256 159.912 34.7393 159.969 34.879 159.995C35.0914 160.034 35.2673 159.989 35.4068 159.858C35.5469 159.725 35.6385 159.541 35.6817 159.307ZM38.7277 150.196C38.6403 150.671 38.4379 151.08 38.1205 151.423C37.8032 151.766 37.3773 152.009 36.8429 152.15C36.3084 152.291 35.6766 152.295 34.9474 152.161C34.1902 152.021 33.5893 151.787 33.1446 151.456C32.6998 151.126 32.3959 150.745 32.2326 150.314C32.0699 149.879 32.03 149.437 32.1128 148.987C32.175 148.649 32.2869 148.371 32.4485 148.152C32.6072 147.933 32.7918 147.762 33.0022 147.639C33.2126 147.516 33.4231 147.432 33.6336 147.387L33.6413 147.345L30.3933 146.747L30.7705 144.698L39.3536 146.277L38.9803 148.306L37.9367 148.114L37.9251 148.177C38.1076 148.3 38.2707 148.457 38.4147 148.648C38.5586 148.839 38.6615 149.065 38.7235 149.324C38.7859 149.581 38.7873 149.872 38.7277 150.196ZM37.262 149.19C37.3078 148.941 37.277 148.716 37.1697 148.514C37.0596 148.312 36.8848 148.14 36.6452 147.997C36.4057 147.855 36.1127 147.752 35.7662 147.688C35.4142 147.623 35.1023 147.615 34.8306 147.663C34.5593 147.709 34.3388 147.808 34.169 147.962C33.9997 148.113 33.8922 148.312 33.8464 148.561C33.7996 148.815 33.8299 149.043 33.9372 149.245C34.0445 149.447 34.2168 149.617 34.454 149.756C34.6918 149.892 34.984 149.992 35.3304 150.056C35.6769 150.12 35.9871 150.129 36.2611 150.084C36.5351 150.039 36.7593 149.944 36.9337 149.797C37.1058 149.646 37.2152 149.444 37.262 149.19ZM40.2667 141.999C40.1423 142.675 39.897 143.23 39.5309 143.666C39.1626 144.098 38.7056 144.399 38.1599 144.57C37.612 144.738 37.0083 144.761 36.3489 144.64C35.6867 144.518 35.1309 144.281 34.6814 143.93C34.2296 143.575 33.9099 143.131 33.7223 142.597C33.5323 142.059 33.4996 141.452 33.624 140.776C33.7485 140.1 33.9949 139.546 34.3632 139.114C34.7293 138.679 35.1863 138.377 35.7343 138.209C36.28 138.038 36.8839 138.014 37.546 138.136C38.2054 138.257 38.761 138.495 39.2128 138.85C39.6623 139.201 39.982 139.645 40.1719 140.183C40.3596 140.717 40.3912 141.323 40.2667 141.999ZM38.7226 141.701C38.7678 141.456 38.7307 141.234 38.6112 141.035C38.4917 140.837 38.3061 140.669 38.0543 140.53C37.803 140.388 37.5014 140.285 37.1493 140.22C36.7917 140.155 36.4703 140.143 36.1851 140.186C35.9004 140.226 35.667 140.317 35.4847 140.46C35.3025 140.603 35.1887 140.797 35.1435 141.043C35.0967 141.297 35.1325 141.526 35.251 141.73C35.37 141.931 35.5551 142.102 35.8064 142.244C36.0581 142.382 36.3628 142.485 36.7205 142.551C37.0725 142.615 37.3909 142.628 37.6756 142.588C37.9607 142.545 38.1947 142.451 38.3775 142.305C38.5607 142.157 38.6758 141.956 38.7226 141.701ZM50.6906 181.108L41.8393 179.479L42.2126 177.451L43.3149 177.654L43.3264 177.591C43.1463 177.471 42.9795 177.318 42.8262 177.131C42.6734 176.941 42.5618 176.715 42.4915 176.454C42.4189 176.189 42.4137 175.888 42.4759 175.55C42.5582 175.102 42.7524 174.706 43.0586 174.361C43.3653 174.013 43.7852 173.764 44.3184 173.614C44.8516 173.464 45.4967 173.458 46.2539 173.597C46.9831 173.732 47.5723 173.96 48.0213 174.282C48.4709 174.602 48.7826 174.98 48.9565 175.416C49.1309 175.85 49.1744 176.304 49.087 176.779C49.0273 177.103 48.9225 177.374 48.7727 177.592C48.6228 177.81 48.4463 177.984 48.2433 178.115C48.0407 178.242 47.8323 178.331 47.618 178.381L47.6103 178.423L51.0678 179.059L50.6906 181.108ZM45.4274 178.064C45.7739 178.128 46.0841 178.137 46.3582 178.093C46.6327 178.045 46.8574 177.946 47.0323 177.796C47.2049 177.643 47.3141 177.442 47.3598 177.194C47.4061 176.942 47.3756 176.716 47.2683 176.514C47.1582 176.312 46.9829 176.142 46.7423 176.005C46.5022 175.866 46.2089 175.764 45.8625 175.701C45.516 175.637 45.2072 175.628 44.936 175.673C44.6653 175.716 44.4439 175.812 44.2718 175.962C44.1002 176.11 43.991 176.311 43.9442 176.565C43.8979 176.816 43.927 177.043 44.0315 177.244C44.1361 177.445 44.3067 177.617 44.5435 177.759C44.7807 177.898 45.0754 177.999 45.4274 178.064ZM50.3414 170.128C50.2175 170.802 49.9778 171.358 49.6224 171.799C49.2647 172.235 48.8144 172.54 48.2715 172.711C47.7264 172.879 47.1115 172.901 46.427 172.775C45.762 172.652 45.2051 172.414 44.7561 172.06C44.3043 171.705 43.9841 171.263 43.7954 170.735C43.6039 170.206 43.5678 169.617 43.6871 168.969C43.7715 168.51 43.9199 168.104 44.1323 167.751C44.3447 167.397 44.6161 167.107 44.9464 166.882C45.2767 166.657 45.6613 166.505 46.1003 166.427C46.5365 166.349 47.0187 166.358 47.5467 166.455L48.058 166.549L47.0283 172.144L45.8381 171.925L46.5168 168.237C46.2984 168.2 46.0947 168.216 45.9058 168.285C45.7168 168.354 45.5586 168.468 45.4313 168.627C45.3016 168.782 45.2159 168.973 45.1743 169.199C45.1321 169.428 45.146 169.643 45.2159 169.844C45.2831 170.044 45.3949 170.213 45.5514 170.352C45.7051 170.49 45.8918 170.582 46.1115 170.628L47.3227 170.851C47.5853 170.899 47.8253 170.89 48.0427 170.823C48.2573 170.756 48.4366 170.637 48.5805 170.467C48.7245 170.297 48.8206 170.081 48.8689 169.818C48.9024 169.637 48.9075 169.467 48.8845 169.31C48.8615 169.153 48.8108 169.012 48.7326 168.888C48.6543 168.764 48.5488 168.662 48.4161 168.582L48.8169 166.711C49.2244 166.867 49.5602 167.106 49.8243 167.429C50.0861 167.749 50.2643 168.138 50.3588 168.598C50.4506 169.057 50.4448 169.567 50.3414 170.128ZM47.5374 159.561L47.2414 161.452C47.1037 161.447 46.9752 161.478 46.8558 161.546C46.7337 161.613 46.6305 161.711 46.5461 161.84C46.4594 161.965 46.3994 162.119 46.366 162.3C46.3222 162.538 46.3325 162.749 46.3966 162.934C46.4613 163.117 46.5749 163.221 46.7374 163.248C46.8627 163.274 46.9809 163.244 47.0921 163.158C47.2038 163.068 47.3126 162.894 47.4184 162.633L47.8814 161.435C48.1226 160.815 48.4145 160.375 48.7571 160.115C49.1001 159.851 49.5066 159.762 49.9765 159.845C50.4175 159.929 50.7775 160.131 51.0566 160.451C51.3361 160.769 51.5256 161.167 51.6249 161.648C51.7215 162.128 51.7168 162.656 51.6108 163.231C51.4417 164.15 51.1196 164.841 50.6447 165.302C50.1676 165.76 49.6035 165.968 48.9526 165.927L49.2749 163.893C49.5178 163.892 49.718 163.809 49.8753 163.644C50.0327 163.479 50.1382 163.252 50.1916 162.961C50.24 162.699 50.2304 162.476 50.163 162.293C50.0955 162.11 49.981 162.002 49.8195 161.97C49.6737 161.946 49.5459 161.989 49.4362 162.099C49.3236 162.208 49.2175 162.392 49.1179 162.651L48.6974 163.735C48.4613 164.359 48.1563 164.799 47.7825 165.057C47.4058 165.314 46.9719 165.396 46.4807 165.303C46.0499 165.226 45.7036 165.044 45.4417 164.756C45.177 164.468 45.003 164.095 44.9197 163.637C44.8363 163.18 44.8481 162.661 44.955 162.08C45.1155 161.208 45.425 160.554 45.8836 160.119C46.3393 159.683 46.8906 159.497 47.5374 159.561ZM52.8988 156.233C52.7744 156.909 52.5291 157.465 52.163 157.9C51.7947 158.332 51.3376 158.634 50.792 158.805C50.244 158.973 49.6404 158.996 48.981 158.875C48.3188 158.753 47.763 158.516 47.3135 158.165C46.8617 157.81 46.542 157.365 46.3543 156.831C46.1644 156.294 46.1317 155.687 46.2561 155.011C46.3806 154.334 46.627 153.78 46.9953 153.349C47.3614 152.913 47.8184 152.612 48.3664 152.444C48.912 152.273 49.5159 152.248 50.1781 152.37C50.8375 152.491 51.3931 152.729 51.8449 153.084C52.2944 153.436 52.6141 153.88 52.804 154.418C52.9916 154.952 53.0232 155.557 52.8988 156.233ZM51.3546 155.936C51.3999 155.69 51.3628 155.468 51.2433 155.27C51.1238 155.072 50.9381 154.903 50.6864 154.764C50.4351 154.623 50.1335 154.52 49.7814 154.455C49.4238 154.389 49.1024 154.378 48.8172 154.42C48.5325 154.46 48.299 154.552 48.1168 154.694C47.9346 154.837 47.8208 155.031 47.7756 155.277C47.7288 155.532 47.7646 155.761 47.8831 155.964C48.0021 156.165 48.1872 156.337 48.4385 156.478C48.6902 156.617 48.9949 156.719 49.3525 156.785C49.7046 156.85 50.0229 156.862 50.3076 156.822C50.5928 156.779 50.8268 156.685 51.0095 156.54C51.1928 156.392 51.3079 156.19 51.3546 155.936Z" fill="black"/>
<path d="M56.7296 97.8972C57.4118 98.573 57.8601 99.277 58.0745 100.009C58.2889 100.741 58.2973 101.454 58.0997 102.146C57.9041 102.835 57.5314 103.458 56.9816 104.013C56.4298 104.57 55.8088 104.949 55.1187 105.149C54.4286 105.349 53.7175 105.346 52.9853 105.141C52.2531 104.931 51.5469 104.49 50.8667 103.816C50.1845 103.14 49.7352 102.437 49.5188 101.707C49.3044 100.975 49.295 100.264 49.4906 99.5737C49.6863 98.8838 50.06 98.2603 50.6118 97.7032C51.1616 97.1482 51.7805 96.7696 52.4686 96.5675C53.1587 96.3633 53.8708 96.365 54.605 96.5724C55.3392 96.7799 56.0474 97.2215 56.7296 97.8972ZM55.2122 99.4291C54.8085 99.0293 54.4104 98.7489 54.0179 98.5881C53.6275 98.4252 53.2546 98.3797 52.8994 98.4517C52.5461 98.5217 52.2216 98.7061 51.9257 99.0048C51.6318 99.3015 51.4505 99.6277 51.3819 99.9836C51.3133 100.34 51.3613 100.713 51.5258 101.104C51.6924 101.493 51.9775 101.887 52.3812 102.287C52.7848 102.687 53.1819 102.968 53.5724 103.131C53.9649 103.292 54.3387 103.336 54.694 103.264C55.0492 103.192 55.3737 103.008 55.6676 102.711C55.9635 102.413 56.1448 102.086 56.2114 101.733C56.28 101.377 56.2311 101.004 56.0645 100.615C55.8999 100.224 55.6158 99.829 55.2122 99.4291ZM60.6965 100.093L54.4962 93.9514L55.9627 92.471L58.309 94.7951L58.339 94.7649C58.2577 94.5644 58.2064 94.3436 58.1852 94.1027C58.1659 93.8597 58.2009 93.6104 58.2901 93.3549C58.3793 93.0953 58.5448 92.8434 58.7867 92.5992C59.1066 92.2763 59.4903 92.0585 59.9377 91.9459C60.3872 91.8313 60.8744 91.8621 61.3996 92.0384C61.9247 92.2147 62.4608 92.5738 63.0077 93.1156C63.5345 93.6374 63.8926 94.158 64.0818 94.6774C64.2731 95.1948 64.3176 95.6827 64.2153 96.1412C64.115 96.5977 63.895 96.9975 63.5551 97.3406C63.3232 97.5748 63.0839 97.7396 62.8372 97.8352C62.5906 97.9308 62.3467 97.9751 62.1056 97.9682C61.8665 97.9593 61.6444 97.9152 61.4391 97.8358L61.3941 97.8812L62.1479 98.6279L60.6965 100.093ZM59.8078 96.3399C60.0581 96.5878 60.3091 96.7704 60.5607 96.8877C60.8144 97.0031 61.0557 97.0481 61.2846 97.0229C61.5134 96.9937 61.7168 96.8893 61.8948 96.7097C62.0747 96.528 62.1772 96.3236 62.2022 96.0965C62.2253 95.8674 62.1759 95.6286 62.0542 95.3801C61.9345 95.1295 61.7495 94.8803 61.4993 94.6324C61.249 94.3845 60.999 94.2029 60.7494 94.0875C60.5017 93.9702 60.2645 93.9251 60.0376 93.9523C59.8127 93.9774 59.6093 94.0819 59.4274 94.2655C59.2475 94.4472 59.144 94.6506 59.1169 94.8757C59.0898 95.1008 59.1342 95.3386 59.2499 95.5892C59.3675 95.8377 59.5535 96.088 59.8078 96.3399ZM68.3393 92.5532C67.8575 93.0397 67.3458 93.3645 66.8042 93.5278C66.2625 93.687 65.7191 93.6846 65.1739 93.5204C64.6288 93.3522 64.1089 93.0232 63.6144 92.5334C63.1341 92.0576 62.8082 91.5469 62.6369 91.0013C62.4636 90.4537 62.4479 89.9084 62.59 89.3653C62.73 88.8202 63.032 88.3136 63.4958 87.8453C63.8237 87.5143 64.1751 87.2626 64.5499 87.09C64.9247 86.9175 65.312 86.8313 65.7118 86.8314C66.1116 86.8315 66.5148 86.923 66.9214 87.1059C67.3261 87.2868 67.7191 87.5662 68.1006 87.9441L68.4699 88.3099L64.4663 92.3516L63.6065 91.4999L66.2456 88.8357C66.0862 88.6818 65.9089 88.5802 65.7138 88.5309C65.5187 88.4816 65.3239 88.4865 65.1293 88.5457C64.9347 88.6009 64.7564 88.7102 64.5945 88.8737C64.4306 89.0392 64.3209 89.2245 64.2657 89.4297C64.2084 89.6328 64.2053 89.8358 64.2565 90.0384C64.3057 90.2391 64.408 90.4204 64.5634 90.5824L65.4384 91.449C65.6281 91.637 65.8316 91.7646 66.0488 91.8319C66.2641 91.8971 66.4791 91.9001 66.6937 91.8409C66.9084 91.7816 67.1097 91.6571 67.2976 91.4674C67.4276 91.3362 67.5274 91.1991 67.597 91.0561C67.6666 90.9132 67.7041 90.7684 67.7095 90.6217C67.7148 90.475 67.685 90.3315 67.62 90.1912L69.0059 88.8709C69.2547 89.2293 69.3972 89.6163 69.4333 90.032C69.4694 90.4436 69.397 90.8658 69.2163 91.2986C69.0335 91.7293 68.7412 92.1476 68.3393 92.5532ZM71.978 82.2434L70.6678 83.6387C70.557 83.5569 70.4332 83.5103 70.2965 83.4989C70.1579 83.4855 70.0173 83.5082 69.875 83.5672C69.7326 83.6221 69.5965 83.7151 69.4665 83.8463C69.2966 84.0179 69.1859 84.1982 69.1346 84.3873C69.0853 84.5743 69.1201 84.7248 69.2392 84.8388C69.328 84.9308 69.4427 84.9724 69.5833 84.9637C69.7259 84.953 69.9143 84.8697 70.1486 84.7139L71.2058 83.9857C71.7545 83.6095 72.2437 83.4103 72.6735 83.3882C73.1053 83.3641 73.4917 83.5189 73.8328 83.8528C74.1497 84.1707 74.3332 84.5404 74.3834 84.9621C74.4356 85.3817 74.3674 85.8179 74.1787 86.2708C73.988 86.7217 73.6867 87.155 73.2748 87.5708C72.6171 88.2348 71.962 88.6236 71.3097 88.7372C70.6573 88.8467 70.0741 88.7008 69.5599 88.2995L70.9721 86.8012C71.1736 86.9369 71.3857 86.9811 71.6085 86.9338C71.8313 86.8866 72.0466 86.758 72.2545 86.5481C72.4425 86.3584 72.5601 86.169 72.6074 85.9799C72.6547 85.7909 72.6209 85.6373 72.5058 85.5194C72.3988 85.4174 72.2691 85.3809 72.1166 85.4097C71.962 85.4366 71.7706 85.5289 71.5423 85.6866L70.5842 86.3451C70.0376 86.7273 69.5373 86.9195 69.0833 86.9217C68.6273 86.9218 68.2227 86.745 67.8695 86.3911C67.5567 86.0852 67.3732 85.7395 67.3192 85.3541C67.2631 84.9666 67.3295 84.5605 67.5183 84.1358C67.7071 83.711 68.0095 83.2887 68.4253 82.8689C69.0491 82.2392 69.6731 81.8737 70.2974 81.7723C70.9197 81.6689 71.4799 81.8259 71.978 82.2434ZM76.0443 84.5994L71.3941 79.993L72.8606 78.5126L77.5108 83.119L76.0443 84.5994ZM71.5869 78.7145C71.381 78.9224 71.1354 79.033 70.8502 79.0464C70.563 79.0578 70.3215 78.9666 70.1258 78.7726C69.932 78.5807 69.8405 78.3421 69.8512 78.0568C69.8599 77.7695 69.9672 77.5219 70.1731 77.314C70.381 77.1041 70.6276 76.9944 70.9128 76.985C71.198 76.9716 71.4375 77.0609 71.6312 77.2528C71.827 77.4468 71.9205 77.6874 71.9119 77.9747C71.9032 78.258 71.7948 78.5046 71.5869 78.7145ZM80.1932 80.5442C79.8533 80.8873 79.4556 81.1112 79.0001 81.2158C78.5446 81.3204 78.0563 81.2805 77.5351 81.0962C77.0139 80.9118 76.49 80.5587 75.9632 80.0369C75.4162 79.4951 75.0521 78.9625 74.8708 78.439C74.6896 77.9156 74.6531 77.4296 74.7615 76.9811C74.8718 76.5306 75.088 76.1429 75.4099 75.818C75.6518 75.5737 75.9011 75.4068 76.1578 75.3172C76.4125 75.2256 76.6614 75.1883 76.9046 75.2052C77.1477 75.2221 77.3689 75.2713 77.5682 75.3527L77.5982 75.3225L75.2519 72.9983L76.7184 71.5178L82.9186 77.6597L81.4671 79.125L80.7133 78.3782L80.6683 78.4236C80.7496 78.6282 80.7959 78.8499 80.807 79.0889C80.8182 79.3279 80.7762 79.5722 80.6809 79.8217C80.5877 80.0693 80.4251 80.3101 80.1932 80.5442ZM79.5496 78.887C79.7275 78.7073 79.829 78.504 79.854 78.2768C79.877 78.0477 79.8297 77.8069 79.712 77.5543C79.5943 77.3018 79.4103 77.0515 79.16 76.8036C78.9057 76.5517 78.6527 76.3691 78.4011 76.2558C78.1515 76.1405 77.9132 76.0984 77.6864 76.1296C77.4615 76.1588 77.2601 76.2632 77.0822 76.4428C76.9002 76.6265 76.7967 76.8319 76.7717 77.059C76.7467 77.2861 76.793 77.5239 76.9107 77.7725C77.0304 78.019 77.2153 78.2662 77.4656 78.5141C77.7159 78.7621 77.9669 78.9447 78.2185 79.062C78.4702 79.1793 78.7095 79.2264 78.9363 79.2032C79.1632 79.1761 79.3676 79.0706 79.5496 78.887ZM85.2233 75.4905C84.9294 75.7872 84.619 76.0016 84.2922 76.1337C83.9654 76.2618 83.6351 76.2925 83.3013 76.2258C82.9675 76.1551 82.6472 75.9678 82.3404 75.6639C82.0821 75.408 81.9091 75.1466 81.8214 74.8799C81.7338 74.6131 81.7134 74.345 81.7604 74.0756C81.8073 73.8062 81.9055 73.5396 82.0549 73.2757C82.2023 73.0098 82.3829 72.7488 82.5966 72.4927C82.8343 72.2043 83.02 71.9664 83.1537 71.7789C83.2854 71.5895 83.362 71.4334 83.3835 71.3108C83.405 71.1841 83.3683 71.0738 83.2734 70.9798L83.2583 70.9648C83.1029 70.8109 82.9298 70.7454 82.7391 70.7684C82.5484 70.7914 82.363 70.8937 82.1831 71.0754C81.9892 71.2712 81.8756 71.4706 81.8424 71.6736C81.8092 71.8767 81.8513 72.0683 81.9687 72.2486L80.5677 73.566C80.3251 73.2457 80.1758 72.8919 80.1197 72.5044C80.0636 72.1129 80.118 71.7069 80.2827 71.2863C80.4474 70.8616 80.7357 70.4414 81.1476 70.0256C81.4415 69.729 81.7477 69.4905 82.0663 69.3102C82.3828 69.1279 82.6996 69.0099 83.0168 68.9561C83.3319 68.9004 83.6353 68.917 83.927 69.0061C84.2207 69.0931 84.4907 69.2585 84.7369 69.5024L87.8976 72.6333L86.5181 74.026L85.8702 73.3842L85.8342 73.4205C85.9097 73.6592 85.9379 73.8971 85.919 74.1343C85.902 74.3694 85.8348 74.6007 85.7173 74.8283C85.6019 75.0538 85.4372 75.2746 85.2233 75.4905ZM84.7073 74.0737C84.8653 73.9143 84.9749 73.739 85.0363 73.5478C85.0997 73.3547 85.1128 73.1638 85.0758 72.9751C85.0367 72.7845 84.9415 72.6142 84.7901 72.4642L84.3481 72.0264C84.3283 72.0908 84.2975 72.1622 84.2557 72.2408C84.2159 72.3173 84.1691 72.3989 84.1152 72.4855C84.0614 72.5721 84.0036 72.6588 83.9417 72.7455C83.8798 72.8321 83.82 72.9148 83.7621 72.9934C83.6463 73.1547 83.5627 73.3077 83.5111 73.4526C83.4616 73.5955 83.4482 73.7301 83.4709 73.8566C83.4935 73.979 83.5553 74.0902 83.6563 74.1902C83.8097 74.3421 83.9807 74.4036 84.1694 74.3746C84.3601 74.3435 84.5394 74.2432 84.7073 74.0737ZM90.5433 70.0957C90.2034 70.4388 89.8057 70.6626 89.3502 70.7673C88.8947 70.8719 88.4064 70.832 87.8852 70.6476C87.364 70.4633 86.8401 70.1102 86.3133 69.5884C85.7663 69.0466 85.4022 68.5139 85.2209 67.9905C85.0397 67.467 85.0032 66.9811 85.1116 66.5326C85.2219 66.0821 85.4381 65.6943 85.76 65.3694C86.0019 65.1252 86.2512 64.9583 86.5079 64.8687C86.7626 64.7771 87.0115 64.7397 87.2547 64.7567C87.4978 64.7736 87.719 64.8228 87.9183 64.9042L87.9483 64.8739L85.602 62.5497L87.0685 61.0693L93.2687 67.2111L91.8172 68.6764L91.0634 67.9297L91.0184 67.9751C91.0997 68.1796 91.146 68.4014 91.1571 68.6404C91.1683 68.8794 91.1263 69.1236 91.031 69.3732C90.9378 69.6207 90.7752 69.8615 90.5433 70.0957ZM89.8997 68.4384C90.0776 68.2588 90.1791 68.0554 90.2041 67.8283C90.2271 67.5992 90.1798 67.3583 90.0621 67.1058C89.9444 66.8532 89.7604 66.603 89.5101 66.3551C89.2558 66.1032 89.0028 65.9205 88.7512 65.8072C88.5016 65.6919 88.2633 65.6498 88.0365 65.681C87.8116 65.7102 87.6102 65.8146 87.4323 65.9943C87.2503 66.1779 87.1468 66.3833 87.1218 66.6104C87.0968 66.8376 87.1431 67.0754 87.2608 67.3239C87.3805 67.5705 87.5654 67.8177 87.8157 68.0656C88.066 68.3135 88.317 68.4961 88.5686 68.6135C88.8203 68.7308 89.0596 68.7779 89.2864 68.7547C89.5133 68.7275 89.7177 68.6221 89.8997 68.4384ZM96.4372 64.1881C95.9553 64.6745 95.4436 64.9994 94.902 65.1627C94.3604 65.3219 93.817 65.3195 93.2718 65.1553C92.7266 64.9871 92.2068 64.6581 91.7123 64.1683C91.2319 63.6925 90.9061 63.1818 90.7347 62.6362C90.5614 62.0886 90.5458 61.5432 90.6878 61.0002C90.8279 60.4551 91.1298 59.9485 91.5936 59.4802C91.9215 59.1492 92.2729 58.8974 92.6477 58.7249C93.0226 58.5524 93.4099 58.4662 93.8096 58.4663C94.2094 58.4664 94.6126 58.5579 95.0193 58.7408C95.4239 58.9217 95.8169 59.2011 96.1984 59.5789L96.5677 59.9448L92.5642 63.9865L91.7044 63.1348L94.3434 60.4706C94.184 60.3167 94.0067 60.2151 93.8117 60.1658C93.6166 60.1165 93.4217 60.1214 93.2271 60.1806C93.0325 60.2358 92.8543 60.3451 92.6923 60.5086C92.5284 60.6741 92.4188 60.8594 92.3635 61.0646C92.3062 61.2677 92.3032 61.4706 92.3543 61.6733C92.4035 61.8739 92.5058 62.0553 92.6613 62.2172L93.5362 63.0839C93.7259 63.2719 93.9294 63.3995 94.1467 63.4667C94.3619 63.532 94.5769 63.535 94.7916 63.4757C95.0062 63.4165 95.2075 63.292 95.3955 63.1023C95.5254 62.9711 95.6252 62.834 95.6948 62.691C95.7645 62.5481 95.802 62.4033 95.8073 62.2566C95.8126 62.1099 95.7828 61.9664 95.7179 61.8261L97.1038 60.5058C97.3525 60.8642 97.495 61.2512 97.5311 61.6669C97.5672 62.0785 97.4949 62.5007 97.3141 62.9335C97.1313 63.3642 96.839 63.7824 96.4372 64.1881ZM78.3508 103.585L72.1505 97.4434L73.635 95.9448L78.6182 100.881L81.1733 98.3017L82.3904 99.5073L78.3508 103.585ZM85.3999 96.6447C84.9181 97.1311 84.4063 97.456 83.8647 97.6193C83.3231 97.7785 82.7797 97.7761 82.2345 97.6119C81.6893 97.4437 81.1695 97.1147 80.675 96.6249C80.1946 96.1491 79.8688 95.6384 79.6975 95.0928C79.5241 94.5452 79.5085 93.9998 79.6505 93.4568C79.7906 92.9117 80.0925 92.4051 80.5564 91.9368C80.8843 91.6058 81.2356 91.3541 81.6105 91.1815C81.9853 91.009 82.3726 90.9228 82.7724 90.9229C83.1721 90.923 83.5753 91.0145 83.982 91.1974C84.3866 91.3783 84.7797 91.6577 85.1611 92.0356L85.5305 92.4014L81.5269 96.4431L80.6671 95.5914L83.3061 92.9272C83.1467 92.7733 82.9695 92.6717 82.7744 92.6224C82.5793 92.5731 82.3844 92.578 82.1899 92.6372C81.9953 92.6924 81.817 92.8017 81.6551 92.9652C81.4911 93.1307 81.3815 93.316 81.3262 93.5212C81.2689 93.7243 81.2659 93.9272 81.3171 94.1299C81.3662 94.3306 81.4685 94.5119 81.624 94.6738L82.4989 95.5405C82.6886 95.7285 82.8921 95.8561 83.1094 95.9234C83.3247 95.9886 83.5396 95.9916 83.7543 95.9324C83.969 95.8731 84.1703 95.7486 84.3582 95.5589C84.4881 95.4277 84.5879 95.2906 84.6576 95.1476C84.7272 95.0047 84.7647 94.8599 84.77 94.7132C84.7753 94.5665 84.7455 94.423 84.6806 94.2827L86.0665 92.9624C86.3153 93.3208 86.4577 93.7078 86.4938 94.1235C86.5299 94.5351 86.4576 94.9573 86.2768 95.3901C86.0941 95.8208 85.8018 96.2391 85.3999 96.6447ZM87.9418 84.6022L91.0116 90.8041L89.3322 92.4994L83.1045 89.4855L84.649 87.9264L88.7008 90.2425L88.7487 90.194L86.3974 86.1614L87.9418 84.6022ZM95.2469 86.704C94.7651 87.1905 94.2534 87.5153 93.7117 87.6786C93.1701 87.8378 92.6267 87.8354 92.0815 87.6712C91.5363 87.503 91.0165 87.174 90.522 86.6842C90.0417 86.2084 89.7158 85.6977 89.5445 85.1521C89.3711 84.6045 89.3555 84.0592 89.4976 83.5161C89.6376 82.971 89.9396 82.4644 90.4034 81.9961C90.7313 81.6651 91.0826 81.4134 91.4575 81.2408C91.8323 81.0683 92.2196 80.9821 92.6194 80.9822C93.0191 80.9823 93.4223 81.0738 93.829 81.2567C94.2336 81.4376 94.6267 81.717 95.0081 82.0949L95.3775 82.4607L91.3739 86.5024L90.5141 85.6507L93.1532 82.9865C92.9937 82.8326 92.8165 82.731 92.6214 82.6817C92.4263 82.6324 92.2315 82.6373 92.0369 82.6965C91.8423 82.7517 91.664 82.861 91.5021 83.0245C91.3381 83.19 91.2285 83.3753 91.1733 83.5805C91.116 83.7836 91.1129 83.9866 91.1641 84.1892C91.2132 84.3899 91.3155 84.5712 91.471 84.7332L92.3459 85.5998C92.5357 85.7878 92.7392 85.9154 92.9564 85.9827C93.1717 86.0479 93.3866 86.0509 93.6013 85.9917C93.816 85.9324 94.0173 85.8079 94.2052 85.6182C94.3352 85.487 94.435 85.3499 94.5046 85.2069C94.5742 85.064 94.6117 84.9192 94.617 84.7725C94.6224 84.6258 94.5926 84.4823 94.5276 84.342L95.9135 83.0217C96.1623 83.3801 96.3047 83.7671 96.3409 84.1828C96.377 84.5944 96.3046 85.0166 96.1239 85.4494C95.9411 85.8801 95.6488 86.2984 95.2469 86.704Z" fill="black"/>
<path d="M138.372 41.2465C138.576 42.1849 138.568 43.0195 138.348 43.7502C138.129 44.4808 137.747 45.0823 137.204 45.5546C136.664 46.0263 136.012 46.3449 135.249 46.5104C134.482 46.6764 133.755 46.6552 133.068 46.4467C132.38 46.2381 131.786 45.8481 131.284 45.2767C130.784 44.7018 130.433 43.9465 130.23 43.0109C130.027 42.0724 130.034 41.2382 130.25 40.5081C130.47 39.7774 130.85 39.1762 131.39 38.7045C131.93 38.2328 132.584 37.9139 133.35 37.7479C134.113 37.5824 134.839 37.6025 135.526 37.8083C136.215 38.0135 136.811 38.4032 137.314 38.9774C137.816 39.5517 138.169 40.308 138.372 41.2465ZM136.265 41.7031C136.145 41.1478 135.964 40.6958 135.723 40.3469C135.484 39.9974 135.196 39.756 134.859 39.6227C134.525 39.4887 134.152 39.4663 133.742 39.5553C133.333 39.6438 133.004 39.8185 132.752 40.0794C132.5 40.3403 132.337 40.6794 132.262 41.0969C132.189 41.5137 132.213 41.9998 132.334 42.5551C132.454 43.1104 132.633 43.5628 132.872 43.9122C133.113 44.2611 133.402 44.5022 133.739 44.6355C134.076 44.7689 134.449 44.7913 134.857 44.7029C135.268 44.6138 135.598 44.4392 135.847 44.1789C136.098 43.918 136.26 43.5791 136.333 43.1622C136.408 42.7448 136.385 42.2584 136.265 41.7031ZM140.5 45.2503L138.652 36.721L140.688 36.2797L141.388 39.5073L141.429 39.4983C141.471 39.2859 141.548 39.0729 141.662 38.8593C141.778 38.6452 141.943 38.4553 142.157 38.2897C142.374 38.1207 142.65 37.9999 142.986 37.9271C143.43 37.8308 143.87 37.8575 144.307 38.007C144.746 38.156 145.138 38.4476 145.482 38.8817C145.826 39.3159 146.079 39.9092 146.242 40.6616C146.399 41.3862 146.416 42.0179 146.291 42.5565C146.169 43.0944 145.941 43.5277 145.605 43.8563C145.272 44.1843 144.869 44.3994 144.397 44.5017C144.075 44.5715 143.785 44.5792 143.526 44.5248C143.267 44.4704 143.038 44.3746 142.84 44.2374C142.645 44.0996 142.482 43.9414 142.354 43.7629L142.291 43.7765L142.516 44.8135L140.5 45.2503ZM141.802 41.6195C141.877 41.9638 141.987 42.2537 142.134 42.4893C142.284 42.7243 142.462 42.8936 142.667 42.9973C142.875 43.0976 143.103 43.121 143.35 43.0674C143.6 43.0133 143.797 42.8978 143.942 42.7211C144.086 42.5416 144.175 42.3145 144.208 42.0398C144.245 41.7645 144.225 41.4548 144.151 41.1105C144.076 40.7662 143.966 40.4776 143.819 40.2448C143.676 40.0114 143.501 39.8443 143.296 39.7434C143.094 39.6418 142.867 39.6185 142.614 39.6732C142.364 39.7274 142.167 39.8414 142.021 40.0154C141.876 40.1893 141.783 40.4129 141.743 40.686C141.707 40.9585 141.726 41.2697 141.802 41.6195ZM151.018 43.0974C150.349 43.2424 149.743 43.2357 149.2 43.0772C148.659 42.9153 148.205 42.617 147.837 42.1821C147.472 41.7439 147.216 41.1846 147.068 40.5044C146.925 39.8436 146.931 39.2378 147.084 38.687C147.238 38.1335 147.522 37.6678 147.937 37.2901C148.352 36.9095 148.881 36.6495 149.525 36.5099C149.981 36.4112 150.412 36.3918 150.821 36.4515C151.229 36.5113 151.601 36.6502 151.936 36.8683C152.271 37.0864 152.559 37.383 152.8 37.758C153.041 38.1303 153.218 38.5788 153.331 39.1035L153.441 39.6116L147.882 40.8165L147.625 39.6337L151.29 38.8395C151.241 38.6235 151.147 38.4417 151.011 38.294C150.874 38.1463 150.708 38.0442 150.513 37.9877C150.319 37.9278 150.11 37.9223 149.885 37.971C149.658 38.0203 149.465 38.1159 149.307 38.2578C149.148 38.3968 149.035 38.5652 148.967 38.763C148.899 38.958 148.886 39.1658 148.928 39.3864L149.189 40.5899C149.245 40.8509 149.346 41.0689 149.492 41.2437C149.636 41.4158 149.815 41.5356 150.027 41.6029C150.239 41.6703 150.476 41.6757 150.737 41.6191C150.918 41.58 151.076 41.5195 151.212 41.4377C151.349 41.3558 151.459 41.2549 151.543 41.1348C151.628 41.0148 151.681 40.8782 151.703 40.7252L153.585 40.3741C153.598 40.8102 153.506 41.2123 153.31 41.5804C153.116 41.9452 152.825 42.2597 152.437 42.5239C152.049 42.7853 151.576 42.9765 151.018 43.0974ZM159.69 36.4393L157.831 36.8945C157.783 36.7654 157.704 36.6589 157.596 36.5748C157.487 36.4879 157.357 36.4304 157.205 36.4022C157.056 36.3706 156.891 36.3743 156.711 36.4134C156.475 36.4646 156.284 36.5554 156.138 36.6859C155.994 36.8158 155.941 36.961 155.979 37.1214C156.003 37.2469 156.077 37.3444 156.199 37.4138C156.325 37.4825 156.528 37.5155 156.809 37.5126L158.093 37.4787C158.758 37.4625 159.277 37.5623 159.649 37.7781C160.024 37.9933 160.263 38.3338 160.367 38.7997C160.46 39.239 160.412 39.649 160.224 40.0298C160.039 40.41 159.744 40.7385 159.339 41.0152C158.933 41.2892 158.444 41.4881 157.872 41.6121C156.959 41.81 156.198 41.7788 155.589 41.5183C154.982 41.2544 154.573 40.814 154.361 40.1972L156.362 39.7114C156.457 39.935 156.61 40.0877 156.823 40.1695C157.035 40.2514 157.286 40.261 157.575 40.1984C157.836 40.1419 158.038 40.0473 158.18 39.9146C158.323 39.7819 158.378 39.6348 158.346 39.4731C158.312 39.3294 158.223 39.228 158.08 39.169C157.936 39.1072 157.725 39.0802 157.447 39.088L156.285 39.1175C155.619 39.1398 155.094 39.0282 154.713 38.7824C154.33 38.5339 154.088 38.165 153.984 37.6757C153.889 37.2488 153.924 36.859 154.089 36.5064C154.253 36.1511 154.53 35.8468 154.92 35.5937C155.31 35.3407 155.793 35.1515 156.371 35.0264C157.237 34.8387 157.96 34.8725 158.538 35.1279C159.116 35.3806 159.5 35.8177 159.69 36.4393ZM161.814 40.6314L160.428 34.2345L162.464 33.7931L163.851 40.1901L161.814 40.6314ZM161.287 33.2679C161.001 33.3298 160.734 33.2887 160.488 33.1444C160.241 32.9974 160.088 32.7892 160.03 32.5199C159.972 32.2533 160.026 32.0034 160.19 31.7701C160.354 31.534 160.579 31.3849 160.865 31.323C161.154 31.2604 161.42 31.3029 161.664 31.4506C161.911 31.5948 162.063 31.8003 162.121 32.0668C162.179 32.3361 162.126 32.5888 161.962 32.8249C161.801 33.0576 161.575 33.2053 161.287 33.2679ZM167.503 39.4945C167.031 39.5968 166.576 39.5676 166.137 39.4069C165.698 39.2462 165.31 38.9465 164.974 38.5078C164.638 38.0691 164.391 37.4874 164.234 36.7627C164.071 36.0103 164.056 35.3653 164.189 34.8276C164.323 34.29 164.557 33.8628 164.893 33.5459C165.231 33.2285 165.624 33.0213 166.071 32.9244C166.407 32.8516 166.707 32.8477 166.971 32.9125C167.234 32.9746 167.463 33.079 167.658 33.2258C167.852 33.3726 168.011 33.5344 168.133 33.7113L168.175 33.7023L167.476 30.4747L169.512 30.0333L171.361 38.5626L169.345 38.9995L169.12 37.9625L169.058 37.976C169.014 38.1918 168.932 38.4029 168.811 38.6093C168.69 38.8158 168.522 38.9976 168.306 39.1548C168.093 39.3115 167.825 39.4247 167.503 39.4945ZM167.867 37.7543C168.114 37.7008 168.31 37.5856 168.455 37.4089C168.599 37.2294 168.691 37.0017 168.73 36.7258C168.769 36.4499 168.751 36.1398 168.677 35.7956C168.601 35.4457 168.488 35.1547 168.339 34.9225C168.193 34.6897 168.016 34.5245 167.809 34.427C167.605 34.3289 167.379 34.3066 167.132 34.3601C166.879 34.4149 166.68 34.5306 166.535 34.7073C166.391 34.8841 166.3 35.1087 166.263 35.3812C166.229 35.6531 166.249 35.9612 166.324 36.3055C166.398 36.6498 166.509 36.9397 166.656 37.1753C166.803 37.4109 166.978 37.5808 167.181 37.6851C167.386 37.786 167.615 37.8091 167.867 37.7543ZM174.475 38.001C174.067 38.0895 173.69 38.1 173.344 38.0325C173 37.9617 172.707 37.8073 172.463 37.5694C172.222 37.3281 172.056 36.9964 171.964 36.5744C171.887 36.219 171.885 35.9056 171.957 35.6342C172.029 35.3628 172.158 35.127 172.344 34.9267C172.53 34.7265 172.758 34.5565 173.027 34.4168C173.296 34.2743 173.589 34.154 173.908 34.0558C174.265 33.9437 174.55 33.8455 174.764 33.7613C174.978 33.6743 175.127 33.5852 175.212 33.4941C175.299 33.3997 175.329 33.2872 175.3 33.1567L175.296 33.1359C175.25 32.9221 175.14 32.7729 174.968 32.6881C174.795 32.6034 174.584 32.5881 174.334 32.6423C174.065 32.7006 173.861 32.8059 173.722 32.958C173.584 33.1101 173.515 33.2937 173.515 33.5088L171.622 33.8492C171.593 33.4484 171.661 33.0704 171.825 32.7151C171.992 32.3563 172.259 32.0456 172.626 31.7828C172.996 31.5167 173.467 31.3216 174.039 31.1977C174.447 31.1092 174.834 31.0763 175.199 31.0989C175.564 31.1187 175.894 31.1925 176.189 31.3204C176.483 31.4455 176.729 31.6249 176.924 31.8586C177.123 32.0917 177.259 32.3776 177.333 32.7163L178.275 37.0642L176.359 37.4794L176.166 36.5882L176.116 36.599C176.049 36.8402 175.943 37.0551 175.798 37.2435C175.656 37.4313 175.473 37.5886 175.25 37.7153C175.031 37.8414 174.772 37.9367 174.475 38.001ZM174.815 36.5321C175.035 36.4845 175.222 36.3974 175.378 36.2706C175.536 36.1433 175.651 35.9904 175.723 35.8121C175.794 35.631 175.807 35.4363 175.762 35.228L175.631 34.62C175.579 34.6632 175.514 34.7063 175.436 34.7493C175.361 34.7918 175.277 34.8346 175.185 34.8779C175.093 34.9212 174.997 34.9622 174.898 35.0012C174.799 35.0401 174.703 35.0767 174.612 35.1111C174.427 35.1831 174.273 35.2658 174.151 35.3592C174.032 35.4519 173.947 35.5574 173.897 35.6758C173.849 35.7908 173.841 35.9177 173.871 36.0565C173.916 36.2676 174.026 36.4123 174.2 36.4909C174.377 36.5689 174.582 36.5826 174.815 36.5321ZM181.876 36.3797C181.404 36.482 180.949 36.4528 180.51 36.2921C180.071 36.1314 179.684 35.8317 179.347 35.393C179.011 34.9543 178.764 34.3726 178.607 33.6479C178.444 32.8955 178.429 32.2505 178.563 31.7128C178.696 31.1752 178.931 30.748 179.266 30.4311C179.604 30.1137 179.997 29.9065 180.444 29.8096C180.78 29.7368 181.08 29.7329 181.344 29.7977C181.607 29.8598 181.836 29.9642 182.031 30.111C182.226 30.2578 182.384 30.4196 182.507 30.5965L182.548 30.5875L181.849 27.3599L183.886 26.9185L185.734 35.4478L183.718 35.8847L183.493 34.8477L183.431 34.8612C183.388 35.077 183.306 35.2881 183.185 35.4945C183.064 35.701 182.895 35.8828 182.679 36.04C182.466 36.1967 182.199 36.3099 181.876 36.3797ZM182.241 34.6395C182.488 34.586 182.684 34.4708 182.829 34.2941C182.973 34.1146 183.064 33.8869 183.103 33.611C183.142 33.3351 183.125 33.025 183.05 32.6808C182.974 32.3309 182.862 32.0399 182.713 31.8077C182.566 31.5749 182.389 31.4097 182.182 31.3122C181.978 31.2141 181.752 31.1918 181.505 31.2453C181.252 31.3001 181.054 31.4158 180.909 31.5925C180.764 31.7693 180.673 31.9939 180.636 32.2664C180.602 32.5383 180.622 32.8464 180.697 33.1907C180.772 33.535 180.882 33.8249 181.029 34.0605C181.176 34.2961 181.351 34.466 181.554 34.5703C181.759 34.6712 181.988 34.6943 182.241 34.6395ZM190.038 34.6415C189.369 34.7865 188.763 34.7798 188.22 34.6213C187.679 34.4595 187.225 34.1611 186.858 33.7262C186.492 33.288 186.236 32.7287 186.088 32.0485C185.945 31.3877 185.951 30.7819 186.104 30.2311C186.258 29.6776 186.542 29.2119 186.957 28.8342C187.372 28.4537 187.901 28.1936 188.545 28.054C189.001 27.9553 189.432 27.9359 189.841 27.9957C190.249 28.0554 190.621 28.1944 190.956 28.4124C191.291 28.6305 191.579 28.9271 191.82 29.3021C192.061 29.6744 192.238 30.1229 192.351 30.6477L192.462 31.1558L186.902 32.3606L186.645 31.1778L190.31 30.3836C190.261 30.1677 190.167 29.9858 190.031 29.8381C189.894 29.6904 189.728 29.5883 189.533 29.5318C189.34 29.472 189.13 29.4664 188.906 29.5151C188.678 29.5645 188.485 29.66 188.327 29.8019C188.168 29.9409 188.055 30.1094 187.987 30.3071C187.919 30.5022 187.906 30.7099 187.948 30.9305L188.209 32.1341C188.265 32.3951 188.366 32.613 188.512 32.7878C188.656 32.9599 188.835 33.0797 189.047 33.147C189.26 33.2144 189.496 33.2198 189.757 33.1633C189.938 33.1241 190.096 33.0637 190.232 32.9818C190.369 32.8999 190.479 32.799 190.564 32.6789C190.648 32.5589 190.701 32.4224 190.723 32.2693L192.605 31.9182C192.618 32.3543 192.526 32.7564 192.33 33.1246C192.136 33.4893 191.845 33.8038 191.458 34.068C191.069 34.3294 190.596 34.5206 190.038 34.6415ZM142.973 60.0626L141.586 53.6657L143.523 53.246L143.777 54.4204L143.848 54.4051C143.897 53.9875 144.056 53.632 144.323 53.3385C144.591 53.045 144.944 52.8507 145.383 52.7557C145.827 52.6594 146.232 52.6908 146.598 52.8499C146.964 53.009 147.232 53.2708 147.401 53.6353L147.467 53.6208C147.504 53.2146 147.672 52.86 147.969 52.5571C148.267 52.2515 148.651 52.0475 149.123 51.9452C149.728 51.8141 150.262 51.9019 150.724 52.2088C151.185 52.5129 151.489 53.0023 151.635 53.677L152.568 57.9833L150.532 58.4246L149.699 54.5847C149.63 54.2654 149.496 54.0402 149.296 53.9092C149.095 53.7753 148.865 53.7366 148.604 53.7932C148.323 53.854 148.122 53.9934 148.001 54.2116C147.882 54.4263 147.855 54.6864 147.921 54.9918L148.749 58.8109L146.792 59.235L145.955 55.3744C145.891 55.0773 145.759 54.8601 145.561 54.7229C145.363 54.5856 145.132 54.5456 144.868 54.6028C144.69 54.6413 144.543 54.7183 144.425 54.8338C144.307 54.9466 144.226 55.0892 144.182 55.2615C144.141 55.4332 144.143 55.6246 144.189 55.8356L145.009 59.6213L142.973 60.0626ZM156.842 57.1835C156.17 57.3291 155.563 57.3168 155.02 57.1466C154.48 56.973 154.026 56.6674 153.658 56.2298C153.292 55.7888 153.038 55.2406 152.896 54.5854C152.753 53.9274 152.757 53.3233 152.908 52.7731C153.062 52.2195 153.349 51.7533 153.77 51.3743C154.192 50.992 154.74 50.728 155.412 50.5824C156.084 50.4368 156.69 50.4508 157.23 50.6243C157.773 50.7945 158.227 51.1001 158.593 51.5412C158.961 51.9788 159.217 52.5267 159.359 53.1847C159.501 53.8399 159.496 54.4443 159.342 54.9979C159.191 55.548 158.904 56.0143 158.481 56.3966C158.06 56.7756 157.514 57.0379 156.842 57.1835ZM156.522 55.644C156.766 55.591 156.957 55.4712 157.094 55.2846C157.23 55.098 157.314 54.8618 157.345 54.576C157.379 54.2896 157.358 53.9715 157.283 53.6216C157.206 53.2662 157.092 52.9652 156.943 52.7185C156.796 52.4712 156.622 52.291 156.42 52.1778C156.218 52.0645 155.995 52.0344 155.751 52.0873C155.498 52.1421 155.301 52.2634 155.158 52.4512C155.019 52.6384 154.932 52.8753 154.898 53.1617C154.867 53.4475 154.89 53.768 154.967 54.1234C155.043 54.4733 155.154 54.7718 155.301 55.0191C155.45 55.2658 155.627 55.4455 155.832 55.5581C156.039 55.6701 156.269 55.6987 156.522 55.644ZM161.091 56.1363L159.705 49.7393L161.683 49.3106L161.936 50.4767L162.002 50.4623C162.028 50.015 162.15 49.66 162.369 49.3974C162.588 49.132 162.872 48.9614 163.222 48.8856C163.316 48.8651 163.415 48.851 163.518 48.8432C163.62 48.8327 163.717 48.8306 163.809 48.8369L164.192 50.6069C164.088 50.5946 163.954 50.5959 163.792 50.6108C163.632 50.6251 163.491 50.6454 163.369 50.6719C163.127 50.7243 162.921 50.8256 162.75 50.976C162.582 51.123 162.463 51.3044 162.393 51.52C162.326 51.7323 162.32 51.9661 162.375 52.2216L163.128 55.6949L161.091 56.1363ZM166.027 55.0666L164.179 46.5373L166.216 46.0959L166.915 49.3236L166.957 49.3145C166.998 49.1021 167.075 48.8892 167.189 48.6756C167.305 48.4614 167.47 48.2716 167.685 48.106C167.901 47.937 168.177 47.8161 168.513 47.7433C168.957 47.6471 169.397 47.6737 169.834 47.8233C170.273 47.9723 170.665 48.2639 171.009 48.698C171.353 49.1321 171.607 49.7254 171.77 50.4778C171.927 51.2025 171.943 51.8341 171.818 52.3727C171.697 52.9107 171.468 53.344 171.132 53.6726C170.799 54.0005 170.397 54.2156 169.925 54.3179C169.602 54.3877 169.312 54.3954 169.053 54.3411C168.794 54.2867 168.566 54.1909 168.367 54.0537C168.172 53.9158 168.01 53.7577 167.881 53.5792L167.818 53.5927L168.043 54.6297L166.027 55.0666ZM167.329 51.4358C167.404 51.78 167.515 52.07 167.661 52.3056C167.811 52.5405 167.989 52.7099 168.195 52.8136C168.402 52.9139 168.63 52.9373 168.877 52.8837C169.127 52.8296 169.324 52.7141 169.469 52.5374C169.613 52.3579 169.702 52.1308 169.736 51.8561C169.772 51.5808 169.753 51.271 169.678 50.9267C169.603 50.5825 169.493 50.2939 169.347 50.0611C169.203 49.8277 169.029 49.6605 168.824 49.5596C168.621 49.4581 168.394 49.4347 168.141 49.4895C167.891 49.5436 167.694 49.6577 167.548 49.8316C167.403 50.0056 167.31 50.2291 167.271 50.5022C167.234 50.7748 167.253 51.0859 167.329 51.4358ZM173.529 53.4409L172.143 47.0439L174.179 46.6026L175.566 52.9996L173.529 53.4409ZM173.002 46.0773C172.716 46.1393 172.449 46.0981 172.203 45.9539C171.956 45.8068 171.803 45.5986 171.745 45.3293C171.687 45.0628 171.741 44.8128 171.905 44.5795C172.069 44.3434 172.294 44.1944 172.58 44.1324C172.869 44.0698 173.135 44.1124 173.379 44.26C173.626 44.4043 173.778 44.6097 173.836 44.8763C173.894 45.1456 173.841 45.3983 173.677 45.6344C173.516 45.8671 173.29 46.0148 173.002 46.0773ZM179.218 52.304C178.746 52.4063 178.291 52.3771 177.852 52.2164C177.413 52.0557 177.025 51.756 176.689 51.3172C176.353 50.8785 176.106 50.2968 175.949 49.5722C175.786 48.8197 175.771 48.1747 175.904 47.6371C176.038 47.0995 176.272 46.6722 176.608 46.3554C176.946 46.0379 177.339 45.8308 177.786 45.7339C178.122 45.6611 178.422 45.6571 178.686 45.722C178.949 45.7841 179.178 45.8885 179.373 46.0353C179.567 46.1821 179.726 46.3439 179.848 46.5208L179.89 46.5118L179.191 43.2841L181.227 42.8428L183.076 51.3721L181.06 51.8089L180.835 50.7719L180.773 50.7855C180.729 51.0012 180.647 51.2123 180.526 51.4188C180.405 51.6252 180.237 51.8071 180.021 51.9643C179.808 52.121 179.54 52.2342 179.218 52.304ZM179.582 50.5638C179.829 50.5102 180.025 50.3951 180.17 50.2184C180.314 50.0389 180.406 49.8112 180.445 49.5353C180.484 49.2594 180.466 48.9493 180.392 48.605C180.316 48.2552 180.203 47.9642 180.054 47.732C179.908 47.4992 179.731 47.334 179.524 47.2365C179.319 47.1383 179.094 47.116 178.847 47.1696C178.594 47.2243 178.395 47.3401 178.25 47.5168C178.106 47.6935 178.015 47.9181 177.978 48.1907C177.944 48.4626 177.964 48.7707 178.039 49.1149C178.113 49.4592 178.224 49.7492 178.371 49.9847C178.518 50.2203 178.693 50.3903 178.896 50.4945C179.101 50.5955 179.33 50.6185 179.582 50.5638ZM186.19 50.8105C185.782 50.8989 185.405 50.9094 185.059 50.842C184.715 50.7712 184.422 50.6168 184.178 50.3788C183.937 50.1375 183.771 49.8058 183.679 49.3838C183.602 49.0284 183.6 48.715 183.672 48.4436C183.744 48.1722 183.873 47.9364 184.059 47.7362C184.245 47.5359 184.473 47.366 184.742 47.2262C185.011 47.0838 185.304 46.9634 185.623 46.8653C185.98 46.7531 186.265 46.655 186.479 46.5707C186.693 46.4837 186.842 46.3947 186.927 46.3036C187.014 46.2092 187.044 46.0967 187.015 45.9662L187.011 45.9454C186.965 45.7316 186.855 45.5823 186.683 45.4976C186.51 45.4129 186.299 45.3976 186.049 45.4517C185.78 45.5101 185.576 45.6153 185.437 45.7675C185.299 45.9196 185.23 46.1032 185.23 46.3182L183.337 46.6586C183.308 46.2579 183.376 45.8799 183.54 45.5245C183.707 45.1658 183.974 44.855 184.341 44.5923C184.711 44.3261 185.182 44.1311 185.754 44.0072C186.162 43.9187 186.549 43.8858 186.914 43.9083C187.279 43.9281 187.609 44.002 187.904 44.1299C188.198 44.255 188.444 44.4344 188.639 44.6681C188.838 44.9011 188.974 45.187 189.048 45.5258L189.99 49.8737L188.074 50.2889L187.881 49.3976L187.831 49.4085C187.764 49.6497 187.658 49.8645 187.513 50.053C187.371 50.2408 187.188 50.3981 186.965 50.5248C186.746 50.6509 186.487 50.7461 186.19 50.8105ZM186.53 49.3415C186.75 49.294 186.937 49.2068 187.093 49.0801C187.251 48.9527 187.366 48.7999 187.438 48.6215C187.509 48.4404 187.522 48.2457 187.477 48.0375L187.346 47.4295C187.294 47.4726 187.229 47.5157 187.151 47.5588C187.076 47.6012 186.992 47.6441 186.9 47.6873C186.808 47.7306 186.712 47.7717 186.613 47.8106C186.514 47.8495 186.418 47.8862 186.327 47.9205C186.142 47.9926 185.988 48.0753 185.866 48.1686C185.747 48.2614 185.662 48.3669 185.612 48.4853C185.564 48.6003 185.556 48.7272 185.586 48.866C185.631 49.077 185.741 49.2218 185.915 49.3004C186.092 49.3783 186.297 49.3921 186.53 49.3415Z" fill="black"/>
<path d="M98.4074 354.344L100.039 355.919L91.8586 360.153L89.8382 358.202L93.781 349.878L95.4121 351.453L92.3526 357.573L92.4016 357.621L98.4074 354.344ZM96.2397 357.026L92.8304 353.734L93.9432 352.582L97.3525 355.873L96.2397 357.026ZM93.105 349.226L87.0436 355.505L85.5444 354.057L87.8381 351.681L87.8075 351.652C87.608 351.736 87.388 351.79 87.1473 351.814C86.9046 351.836 86.6549 351.805 86.3982 351.719C86.1375 351.633 85.8835 351.471 85.6362 351.232C85.3092 350.916 85.0865 350.535 84.9681 350.089C84.8477 349.641 84.8723 349.154 85.0418 348.626C85.2113 348.099 85.5634 347.558 86.0981 347.005C86.6131 346.471 87.129 346.106 87.646 345.91C88.1608 345.712 88.6481 345.662 89.1079 345.758C89.5657 345.852 89.9683 346.067 90.3157 346.403C90.5528 346.632 90.7208 346.869 90.8195 347.114C90.9183 347.36 90.9658 347.603 90.962 347.844C90.9561 348.083 90.9149 348.306 90.8381 348.512L90.8841 348.557L91.6211 347.793L93.105 349.226ZM89.3634 350.163C89.6081 349.909 89.7874 349.656 89.9015 349.403C90.0135 349.148 90.0555 348.906 90.0274 348.677C89.9952 348.449 89.8882 348.247 89.7063 348.071C89.5223 347.893 89.3166 347.794 89.0892 347.771C88.8598 347.751 88.6216 347.804 88.3747 347.929C88.1257 348.052 87.8789 348.24 87.6342 348.493C87.3896 348.747 87.2112 348.999 87.0991 349.25C86.9849 349.499 86.9429 349.737 86.973 349.964C87.0011 350.188 87.1081 350.39 87.2941 350.57C87.4781 350.747 87.6828 350.848 87.9082 350.872C88.1337 350.896 88.3709 350.849 88.62 350.73C88.867 350.609 89.1148 350.42 89.3634 350.163ZM86.3319 342.533C86.6324 342.823 86.8508 343.131 86.9871 343.456C87.1194 343.781 87.1544 344.111 87.092 344.446C87.0255 344.78 86.8424 345.103 86.5425 345.414C86.2899 345.675 86.0308 345.852 85.7652 345.943C85.4996 346.034 85.2318 346.058 84.9618 346.014C84.6918 345.971 84.4239 345.876 84.1582 345.73C83.8904 345.586 83.6271 345.409 83.3682 345.198C83.0768 344.965 82.8365 344.782 82.6474 344.651C82.4562 344.521 82.2992 344.447 82.1763 344.427C82.0494 344.407 81.9395 344.445 81.8468 344.541L81.832 344.557C81.6801 344.714 81.6168 344.888 81.6423 345.078C81.6677 345.269 81.7725 345.453 81.9564 345.63C82.1547 345.822 82.3555 345.933 82.559 345.963C82.7625 345.994 82.9535 345.949 83.1323 345.829L84.4676 347.213C84.1505 347.46 83.7986 347.614 83.4119 347.675C83.0212 347.736 82.6145 347.687 82.1918 347.528C81.765 347.368 81.3412 347.086 80.9201 346.679C80.6196 346.389 80.3772 346.086 80.1928 345.77C80.0065 345.456 79.8844 345.14 79.8266 344.824C79.7668 344.51 79.7795 344.206 79.8648 343.913C79.948 343.618 80.1099 343.346 80.3506 343.097L83.4405 339.896L84.8508 341.258L84.2175 341.914L84.2542 341.949C84.4919 341.871 84.7295 341.839 84.9668 341.855C85.2021 341.869 85.4343 341.933 85.6634 342.048C85.8904 342.16 86.1132 342.322 86.3319 342.533ZM84.9219 343.067C84.7604 342.912 84.5838 342.804 84.3918 342.745C84.1979 342.684 84.0068 342.674 83.8187 342.713C83.6285 342.755 83.4595 342.852 83.3115 343.005L82.8794 343.453C82.944 343.472 83.0159 343.502 83.0949 343.543C83.172 343.582 83.2542 343.627 83.3415 343.68C83.4288 343.733 83.5162 343.789 83.6037 343.85C83.6911 343.911 83.7745 343.97 83.8539 344.027C84.0166 344.14 84.1708 344.222 84.3163 344.272C84.4598 344.319 84.5946 344.331 84.7207 344.307C84.8429 344.282 84.9533 344.219 85.0519 344.117C85.2019 343.962 85.2611 343.79 85.2297 343.602C85.1962 343.411 85.0936 343.233 84.9219 343.067ZM82.5238 339.011L77.9778 343.72L76.4786 342.273L81.0246 337.564L82.5238 339.011ZM76.6969 343.544C76.9074 343.747 77.0212 343.991 77.0383 344.276C77.0534 344.563 76.9652 344.806 76.7738 345.004C76.5844 345.201 76.347 345.295 76.0616 345.288C75.7742 345.283 75.5252 345.179 75.3147 344.976C75.1021 344.771 74.9893 344.525 74.9763 344.24C74.9592 343.955 75.0453 343.715 75.2348 343.519C75.4262 343.32 75.6655 343.224 75.9529 343.229C76.2363 343.234 76.4843 343.339 76.6969 343.544ZM74.2489 340.121L74.9708 337.821L72.67 338.596L71.1585 337.137L74.7467 336.052L75.6554 332.381L77.1546 333.828L76.5098 336.226L78.8624 335.477L80.383 336.945L76.7426 337.979L75.7696 341.589L74.2489 340.121ZM73.0762 329.719C73.5709 330.197 73.8983 330.708 74.0586 331.254C74.2149 331.8 74.2135 332.347 74.0544 332.896C73.8913 333.446 73.577 333.962 73.1113 334.444C72.6437 334.929 72.1392 335.261 71.5979 335.441C71.0526 335.622 70.5055 335.642 69.9566 335.503C69.4036 335.364 68.8798 335.056 68.3852 334.579C67.8906 334.101 67.5651 333.59 67.4088 333.044C67.2485 332.498 67.2499 331.951 67.413 331.401C67.5721 330.852 67.8854 330.335 68.353 329.851C68.8187 329.368 69.3242 329.037 69.8695 328.857C70.4108 328.676 70.9579 328.656 71.5109 328.794C72.0598 328.933 72.5816 329.242 73.0762 329.719ZM71.9749 330.842C71.795 330.668 71.5895 330.576 71.3583 330.566C71.127 330.556 70.884 330.618 70.6292 330.751C70.3723 330.882 70.1196 331.076 69.871 331.334C69.6184 331.595 69.4312 331.857 69.3092 332.118C69.1852 332.378 69.1322 332.623 69.1504 332.853C69.1685 333.084 69.2675 333.286 69.4474 333.46C69.6334 333.639 69.844 333.736 70.0793 333.75C70.3126 333.762 70.5577 333.703 70.8146 333.571C71.0694 333.438 71.3231 333.241 71.5756 332.979C71.8242 332.722 72.0105 332.463 72.1346 332.204C72.2565 331.943 72.3074 331.696 72.2872 331.463C72.265 331.228 72.1609 331.021 71.9749 330.842ZM66.3335 323.252C66.681 323.587 66.91 323.982 67.0204 324.436C67.1309 324.89 67.0973 325.379 66.9197 325.902C66.7421 326.426 66.3958 326.954 65.8808 327.488C65.3461 328.042 64.8182 328.413 64.2972 328.601C63.7761 328.789 63.2906 328.831 62.8408 328.729C62.3889 328.624 61.9984 328.413 61.6693 328.096C61.422 327.857 61.2519 327.61 61.159 327.354C61.0641 327.101 61.0236 326.852 61.0374 326.609C61.0512 326.366 61.0975 326.144 61.1763 325.943L61.1457 325.914L58.8519 328.29L57.3527 326.843L63.4141 320.564L64.898 321.996L64.161 322.76L64.207 322.804C64.4104 322.72 64.6316 322.671 64.8704 322.657C65.1093 322.642 65.3541 322.681 65.6048 322.773C65.8535 322.863 66.0964 323.023 66.3335 323.252ZM64.6847 323.917C64.5028 323.741 64.2981 323.642 64.0707 323.62C63.8413 323.6 63.6011 323.65 63.3501 323.771C63.0991 323.892 62.8512 324.08 62.6066 324.333C62.3579 324.591 62.1786 324.846 62.0686 325.099C61.9564 325.35 61.9175 325.589 61.9516 325.815C61.9837 326.04 62.0907 326.24 62.2726 326.415C62.4586 326.595 62.6653 326.696 62.8927 326.718C63.1201 326.74 63.3574 326.691 63.6044 326.57C63.8493 326.447 64.0941 326.259 64.3388 326.005C64.5834 325.752 64.7628 325.498 64.8769 325.245C64.991 324.992 65.035 324.752 65.0089 324.526C64.9787 324.299 64.8707 324.096 64.6847 323.917ZM60.3535 317.437C60.8481 317.915 61.1756 318.427 61.3359 318.972C61.4922 319.518 61.4908 320.065 61.3317 320.615C61.1686 321.164 60.8543 321.68 60.3886 322.162C59.921 322.647 59.4165 322.979 58.8752 323.159C58.3299 323.34 57.7828 323.36 57.2339 323.222C56.6809 323.083 56.1571 322.774 55.6625 322.297C55.1678 321.819 54.8424 321.308 54.6861 320.762C54.5258 320.216 54.5272 319.669 54.6903 319.119C54.8494 318.57 55.1627 318.053 55.6303 317.569C56.096 317.087 56.6015 316.755 57.1468 316.575C57.6881 316.394 58.2352 316.374 58.7882 316.513C59.3371 316.652 59.8589 316.96 60.3535 317.437ZM59.2522 318.56C59.0723 318.386 58.8668 318.294 58.6356 318.284C58.4043 318.274 58.1613 318.336 57.9065 318.469C57.6496 318.6 57.3969 318.795 57.1483 319.052C56.8957 319.314 56.7085 319.575 56.5865 319.836C56.4625 320.096 56.4095 320.341 56.4277 320.572C56.4458 320.802 56.5448 321.005 56.7247 321.178C56.9107 321.358 57.1213 321.454 57.3566 321.468C57.5899 321.48 57.835 321.421 58.0918 321.29C58.3467 321.157 58.6004 320.959 58.8529 320.698C59.1015 320.44 59.2878 320.182 59.4118 319.922C59.5338 319.661 59.5847 319.414 59.5645 319.181C59.5423 318.947 59.4382 318.739 59.2522 318.56ZM101.084 332.667L94.833 339.143L93.3491 337.71L94.1275 336.904L94.0815 336.859C93.882 336.943 93.662 336.997 93.4213 337.022C93.1786 337.044 92.9289 337.012 92.6722 336.926C92.4115 336.841 92.1575 336.678 91.9102 336.44C91.5832 336.124 91.3605 335.743 91.2421 335.297C91.1217 334.849 91.1463 334.362 91.3158 333.834C91.4853 333.307 91.8374 332.766 92.3721 332.212C92.8871 331.679 93.403 331.314 93.92 331.118C94.4348 330.92 94.9221 330.869 95.3819 330.966C95.8397 331.06 96.2423 331.275 96.5897 331.61C96.8268 331.839 96.9948 332.076 97.0935 332.322C97.1923 332.567 97.2398 332.81 97.236 333.052C97.2302 333.291 97.1889 333.514 97.1121 333.72L97.1428 333.749L99.5845 331.22L101.084 332.667ZM95.6374 335.37C95.8821 335.117 96.0614 334.864 96.1755 334.61C96.2875 334.355 96.3295 334.113 96.3014 333.885C96.2692 333.656 96.1622 333.454 95.9803 333.279C95.7963 333.101 95.5906 333.001 95.3632 332.979C95.1338 332.959 94.8956 333.012 94.6487 333.136C94.3997 333.259 94.1529 333.448 93.9082 333.701C93.6636 333.954 93.4852 334.207 93.3731 334.458C93.2589 334.707 93.2169 334.945 93.247 335.171C93.2751 335.396 93.3821 335.598 93.5681 335.777C93.7521 335.955 93.9568 336.056 94.1822 336.08C94.4077 336.104 94.6449 336.057 94.894 335.938C95.141 335.817 95.3888 335.628 95.6374 335.37ZM91.741 326.888C92.2336 327.364 92.5651 327.871 92.7353 328.411C92.9015 328.95 92.9061 329.494 92.749 330.041C92.5878 330.588 92.2656 331.112 91.7822 331.613C91.3126 332.1 90.8061 332.432 90.2628 332.61C89.7175 332.791 89.1724 332.813 88.6275 332.678C88.0807 332.545 87.5702 332.25 87.096 331.792C86.7608 331.469 86.5045 331.121 86.3272 330.748C86.1498 330.375 86.0586 329.989 86.0536 329.589C86.0486 329.19 86.1348 328.785 86.3125 328.376C86.4881 327.969 86.7624 327.573 87.1353 327.187L87.4964 326.812L91.5894 330.764L90.7488 331.634L88.0509 329.03C87.899 329.191 87.7997 329.37 87.7529 329.566C87.7061 329.761 87.7136 329.956 87.7753 330.15C87.8329 330.344 87.9445 330.52 88.1101 330.68C88.2777 330.842 88.4644 330.949 88.6703 331.002C88.8742 331.057 89.0771 331.057 89.2791 331.003C89.4791 330.952 89.6591 330.847 89.819 330.689L90.6744 329.803C90.8598 329.611 90.9848 329.406 91.0493 329.188C91.1118 328.972 91.112 328.757 91.05 328.543C90.9879 328.329 90.8608 328.129 90.6687 327.944C90.5358 327.816 90.3975 327.718 90.2537 327.65C90.1098 327.582 89.9645 327.547 89.8178 327.543C89.6711 327.54 89.528 327.571 89.3885 327.638L88.0504 326.269C88.4056 326.016 88.7907 325.868 89.2059 325.827C89.617 325.786 90.0401 325.852 90.4752 326.028C90.9083 326.205 91.3302 326.492 91.741 326.888ZM81.3852 323.383L82.7973 324.675C82.7169 324.787 82.6718 324.911 82.6622 325.048C82.6506 325.187 82.6752 325.327 82.7359 325.469C82.7927 325.61 82.8875 325.745 83.0203 325.874C83.1941 326.041 83.3758 326.15 83.5655 326.198C83.7532 326.245 83.9032 326.209 84.0156 326.088C84.1064 325.998 84.1466 325.883 84.1361 325.742C84.1235 325.6 84.0379 325.413 83.8791 325.18L83.1373 324.133C82.754 323.589 82.5485 323.102 82.5209 322.673C82.4912 322.241 82.641 321.853 82.9705 321.508C83.2842 321.187 83.6516 320.998 84.0726 320.943C84.4914 320.885 84.9285 320.948 85.3838 321.13C85.8371 321.315 86.2743 321.611 86.6953 322.017C87.3678 322.667 87.765 323.317 87.887 323.967C88.005 324.618 87.8666 325.203 87.4719 325.723L85.9556 324.33C86.0886 324.127 86.1301 323.914 86.0799 323.692C86.0298 323.47 85.8985 323.256 85.6859 323.051C85.4938 322.865 85.3029 322.75 85.1132 322.705C84.9236 322.661 84.7705 322.696 84.654 322.813C84.5535 322.921 84.5186 323.051 84.5494 323.204C84.5782 323.358 84.673 323.548 84.8337 323.774L85.5044 324.724C85.8937 325.265 86.0924 325.763 86.1004 326.217C86.1064 326.673 85.9348 327.08 85.5854 327.438C85.2836 327.754 84.9404 327.942 84.5557 328.001C84.169 328.062 83.762 328.001 83.3349 327.818C82.9077 327.635 82.4816 327.338 82.0564 326.927C81.4187 326.312 81.0452 325.692 80.9357 325.069C80.8243 324.449 80.9741 323.886 81.3852 323.383ZM81.5761 317.076C82.0707 317.553 82.3982 318.065 82.5585 318.61C82.7148 319.156 82.7134 319.704 82.5543 320.253C82.3912 320.802 82.0768 321.318 81.6112 321.801C81.1435 322.285 80.6391 322.617 80.0978 322.798C79.5525 322.978 79.0053 322.999 78.4564 322.86C77.9035 322.721 77.3797 322.413 76.885 321.935C76.3904 321.458 76.0649 320.946 75.9086 320.4C75.7483 319.855 75.7497 319.307 75.9128 318.758C76.0719 318.208 76.3853 317.692 76.8529 317.207C77.3185 316.725 77.824 316.393 78.3693 316.213C78.9106 316.033 79.4578 316.012 80.0107 316.151C80.5597 316.29 81.0814 316.598 81.5761 317.076ZM80.4748 318.198C80.2949 318.024 80.0893 317.933 79.8581 317.923C79.6269 317.913 79.3839 317.974 79.129 318.107C78.8722 318.238 78.6194 318.433 78.3708 318.69C78.1183 318.952 77.931 319.213 77.809 319.475C77.685 319.734 77.6321 319.979 77.6502 320.21C77.6684 320.441 77.7674 320.643 77.9472 320.816C78.1332 320.996 78.3439 321.093 78.5792 321.107C78.8125 321.119 79.0575 321.059 79.3144 320.928C79.5692 320.795 79.8229 320.597 80.0755 320.336C80.3241 320.078 80.5104 319.82 80.6344 319.56C80.7564 319.299 80.8073 319.052 80.7871 318.819C80.7649 318.585 80.6608 318.378 80.4748 318.198Z" fill="black"/>
<path d="M186.769 377.738L189 378.144L184.538 386.202L181.776 385.699L180.443 376.585L182.673 376.991L183.52 383.781L183.587 383.794L186.769 377.738ZM186.451 381.171L181.79 380.322L182.077 378.745L186.739 379.595L186.451 381.171ZM176.8 379.716L177.469 376.043L179.519 376.417L178.345 382.856L176.396 382.501L176.611 381.319L176.54 381.306C176.326 381.674 176.026 381.938 175.642 382.099C175.257 382.263 174.827 382.302 174.352 382.215C173.899 382.132 173.525 381.959 173.229 381.694C172.931 381.432 172.722 381.102 172.604 380.705C172.482 380.311 172.467 379.872 172.558 379.389L173.306 375.285L175.356 375.658L174.681 379.36C174.613 379.717 174.653 380.013 174.801 380.248C174.946 380.482 175.181 380.629 175.505 380.688C175.72 380.727 175.919 380.714 176.101 380.649C176.28 380.587 176.43 380.477 176.551 380.32C176.669 380.162 176.752 379.961 176.8 379.716ZM169.053 374.384C169.729 374.507 170.285 374.752 170.721 375.117C171.154 375.484 171.456 375.941 171.628 376.486C171.797 377.034 171.821 377.638 171.701 378.297C171.58 378.96 171.345 379.516 170.994 379.966C170.64 380.418 170.196 380.739 169.662 380.927C169.125 381.118 168.518 381.152 167.842 381.029C167.166 380.906 166.611 380.66 166.179 380.293C165.743 379.927 165.44 379.471 165.272 378.923C165.099 378.378 165.074 377.774 165.194 377.112C165.315 376.452 165.552 375.896 165.906 375.444C166.256 374.994 166.7 374.673 167.237 374.482C167.771 374.294 168.376 374.261 169.053 374.384ZM168.758 375.929C168.512 375.884 168.29 375.921 168.092 376.041C167.894 376.161 167.726 376.347 167.588 376.599C167.447 376.851 167.344 377.152 167.28 377.505C167.215 377.862 167.204 378.184 167.247 378.469C167.288 378.754 167.38 378.987 167.523 379.169C167.666 379.351 167.86 379.464 168.106 379.509C168.36 379.555 168.589 379.519 168.793 379.4C168.994 379.281 169.165 379.095 169.306 378.844C169.444 378.592 169.546 378.287 169.611 377.929C169.675 377.577 169.687 377.259 169.646 376.974C169.603 376.689 169.508 376.455 169.363 376.273C169.214 376.09 169.013 375.975 168.758 375.929ZM164.727 373.722L163.554 380.161L161.562 379.798L161.776 378.624L161.709 378.612C161.514 379.016 161.265 379.296 160.962 379.455C160.659 379.616 160.331 379.665 159.978 379.601C159.883 379.583 159.787 379.558 159.689 379.526C159.59 379.497 159.5 379.461 159.418 379.42L159.743 377.639C159.834 377.69 159.958 377.74 160.114 377.789C160.267 377.837 160.405 377.872 160.528 377.894C160.771 377.939 161 377.924 161.216 377.851C161.428 377.78 161.607 377.658 161.754 377.485C161.898 377.315 161.993 377.102 162.04 376.844L162.677 373.348L164.727 373.722ZM157.104 372.207C157.778 372.33 158.335 372.569 158.776 372.923C159.213 373.28 159.518 373.73 159.691 374.272C159.86 374.817 159.883 375.432 159.758 376.117C159.637 376.782 159.399 377.339 159.046 377.789C158.692 378.241 158.251 378.562 157.723 378.752C157.194 378.944 156.605 378.982 155.957 378.863C155.498 378.78 155.092 378.632 154.738 378.42C154.384 378.209 154.094 377.938 153.868 377.608C153.642 377.278 153.49 376.894 153.411 376.455C153.332 376.019 153.34 375.537 153.436 375.008L153.53 374.497L159.126 375.517L158.909 376.707L155.22 376.035C155.183 376.254 155.2 376.457 155.269 376.646C155.339 376.835 155.453 376.993 155.612 377.12C155.767 377.249 155.958 377.335 156.184 377.376C156.414 377.418 156.628 377.403 156.829 377.333C157.029 377.266 157.198 377.153 157.336 376.997C157.474 376.843 157.566 376.656 157.612 376.436L157.833 375.225C157.88 374.962 157.871 374.722 157.803 374.505C157.736 374.29 157.617 374.111 157.446 373.967C157.276 373.824 157.06 373.728 156.797 373.68C156.615 373.647 156.446 373.642 156.289 373.665C156.131 373.689 155.991 373.74 155.867 373.818C155.743 373.897 155.641 374.002 155.562 374.135L153.69 373.738C153.845 373.33 154.084 372.994 154.406 372.729C154.725 372.467 155.115 372.288 155.574 372.192C156.032 372.1 156.543 372.105 157.104 372.207ZM150.154 377.72L149.48 375.405L147.995 377.326L145.928 376.95L148.313 374.058L147.034 370.498L149.084 370.871L149.877 373.225L151.42 371.297L153.499 371.676L151.043 374.555L152.233 378.098L150.154 377.72ZM146.165 370.34L144.992 376.779L142.942 376.406L144.115 369.966L146.165 370.34ZM143.828 377.342C144.116 377.395 144.346 377.535 144.518 377.763C144.69 377.993 144.751 378.244 144.702 378.515C144.653 378.783 144.508 378.994 144.266 379.146C144.024 379.301 143.76 379.353 143.472 379.3C143.181 379.247 142.951 379.106 142.782 378.876C142.61 378.648 142.548 378.4 142.597 378.132C142.647 377.861 142.792 377.647 143.034 377.492C143.273 377.339 143.538 377.289 143.828 377.342ZM141.015 369.289C141.426 369.364 141.778 369.498 142.072 369.693C142.362 369.891 142.574 370.146 142.708 370.459C142.838 370.774 142.864 371.145 142.787 371.569C142.722 371.927 142.604 372.217 142.433 372.44C142.263 372.664 142.053 372.832 141.804 372.945C141.555 373.059 141.28 373.128 140.978 373.154C140.675 373.183 140.358 373.181 140.026 373.15C139.654 373.117 139.352 373.098 139.122 373.093C138.891 373.092 138.719 373.117 138.606 373.168C138.489 373.222 138.419 373.315 138.395 373.446L138.391 373.467C138.352 373.682 138.396 373.862 138.523 374.006C138.649 374.151 138.838 374.246 139.09 374.292C139.361 374.341 139.59 374.322 139.776 374.235C139.962 374.147 140.097 374.004 140.179 373.806L142.058 374.217C141.93 374.598 141.723 374.922 141.435 375.187C141.144 375.454 140.778 375.639 140.338 375.74C139.894 375.844 139.385 375.844 138.809 375.739C138.398 375.664 138.028 375.546 137.7 375.385C137.37 375.227 137.094 375.032 136.87 374.801C136.646 374.573 136.489 374.313 136.397 374.022C136.303 373.73 136.287 373.414 136.349 373.073L137.147 368.696L139.075 369.048L138.912 369.945L138.962 369.954C139.116 369.757 139.297 369.599 139.503 369.481C139.707 369.362 139.935 369.287 140.19 369.255C140.441 369.223 140.716 369.234 141.015 369.289ZM140.138 370.515C139.917 370.475 139.71 370.483 139.518 370.541C139.323 370.597 139.158 370.694 139.023 370.832C138.888 370.972 138.801 371.146 138.763 371.356L138.651 371.968C138.716 371.948 138.792 371.933 138.88 371.923C138.966 371.913 139.06 371.905 139.162 371.901C139.264 371.896 139.368 371.895 139.474 371.897C139.581 371.899 139.683 371.902 139.78 371.905C139.979 371.91 140.152 371.892 140.301 371.853C140.447 371.813 140.566 371.748 140.657 371.658C140.745 371.57 140.802 371.456 140.828 371.316C140.866 371.104 140.82 370.928 140.69 370.789C140.556 370.649 140.372 370.558 140.138 370.515Z" fill="black"/>
</svg>
