<svg width="113" height="222" viewBox="0 0 113 222" fill="none" xmlns="http://www.w3.org/2000/svg">
<rect y="200" width="113" height="22" fill="black"/>
<rect y="200" width="12" height="22" fill="#DF711A"/>
<path d="M41.3878 209.124C41.3395 208.945 41.2685 208.787 41.1747 208.651C41.081 208.511 40.9659 208.393 40.8295 208.297C40.6932 208.2 40.5369 208.128 40.3608 208.08C40.1847 208.028 39.9915 208.003 39.7812 208.003C39.358 208.003 38.9915 208.105 38.6818 208.31C38.375 208.514 38.1378 208.812 37.9702 209.205C37.8026 209.594 37.7188 210.067 37.7188 210.624C37.7188 211.183 37.7997 211.661 37.9616 212.055C38.1236 212.45 38.358 212.751 38.6648 212.959C38.9716 213.166 39.3438 213.27 39.7812 213.27C40.1676 213.27 40.4943 213.207 40.7614 213.082C41.0313 212.955 41.2358 212.774 41.375 212.541C41.5142 212.308 41.5838 212.034 41.5838 211.719L41.9759 211.766H39.8537V210.227H43.6165V211.382C43.6165 212.163 43.4503 212.832 43.1179 213.389C42.7884 213.946 42.3338 214.374 41.7543 214.672C41.1776 214.97 40.5142 215.119 39.7642 215.119C38.9318 215.119 38.2003 214.939 37.5696 214.578C36.9389 214.217 36.4474 213.703 36.0952 213.036C35.7429 212.365 35.5668 211.57 35.5668 210.649C35.5668 209.933 35.6733 209.298 35.8864 208.744C36.0994 208.187 36.3963 207.716 36.777 207.33C37.1605 206.943 37.6037 206.651 38.1065 206.452C38.6122 206.253 39.1563 206.153 39.7386 206.153C40.2443 206.153 40.7145 206.226 41.1491 206.371C41.5866 206.516 41.973 206.72 42.3082 206.984C42.6463 207.249 42.9205 207.562 43.1307 207.926C43.3409 208.29 43.4716 208.689 43.5227 209.124H41.3878ZM47.9151 215.124C47.2276 215.124 46.6367 214.983 46.1424 214.702C45.6509 214.418 45.2717 214.023 45.0046 213.517C44.7404 213.009 44.6083 212.419 44.6083 211.749C44.6083 211.075 44.7404 210.486 45.0046 209.98C45.2717 209.472 45.6509 209.077 46.1424 208.795C46.6367 208.511 47.2276 208.369 47.9151 208.369C48.6026 208.369 49.1921 208.511 49.6836 208.795C50.1779 209.077 50.5572 209.472 50.8214 209.98C51.0884 210.486 51.2219 211.075 51.2219 211.749C51.2219 212.419 51.0884 213.009 50.8214 213.517C50.5572 214.023 50.1779 214.418 49.6836 214.702C49.1921 214.983 48.6026 215.124 47.9151 215.124ZM47.9279 213.551C48.1779 213.551 48.3896 213.474 48.5629 213.321C48.7362 213.168 48.8683 212.955 48.9592 212.682C49.0529 212.409 49.0998 212.094 49.0998 211.736C49.0998 211.372 49.0529 211.054 48.9592 210.781C48.8683 210.509 48.7362 210.295 48.5629 210.142C48.3896 209.989 48.1779 209.912 47.9279 209.912C47.6694 209.912 47.4506 209.989 47.2717 210.142C47.0955 210.295 46.9606 210.509 46.8668 210.781C46.7759 211.054 46.7305 211.372 46.7305 211.736C46.7305 212.094 46.7759 212.409 46.8668 212.682C46.9606 212.955 47.0955 213.168 47.2717 213.321C47.4506 213.474 47.6694 213.551 47.9279 213.551ZM52.2894 215V208.455H54.3136V209.648H54.3817C54.5011 209.216 54.6957 208.895 54.9656 208.685C55.2354 208.472 55.5494 208.365 55.9073 208.365C56.0039 208.365 56.1033 208.372 56.2056 208.386C56.3079 208.398 56.4031 208.416 56.4911 208.442V210.253C56.3917 210.219 56.261 210.192 56.0991 210.172C55.94 210.152 55.7979 210.142 55.6729 210.142C55.4258 210.142 55.2028 210.197 55.0039 210.308C54.8079 210.416 54.6531 210.568 54.5394 210.764C54.4286 210.957 54.3732 211.185 54.3732 211.446V215H52.2894ZM59.391 215.094C58.908 215.094 58.4691 214.969 58.0742 214.719C57.6793 214.469 57.364 214.094 57.1282 213.594C56.8924 213.094 56.7745 212.473 56.7745 211.732C56.7745 210.962 56.8967 210.328 57.141 209.831C57.3853 209.334 57.7049 208.966 58.0998 208.727C58.4975 208.489 58.9251 208.369 59.3825 208.369C59.7262 208.369 60.0202 208.429 60.2646 208.548C60.5089 208.665 60.7106 208.815 60.8697 209C61.0288 209.185 61.1495 209.376 61.2319 209.575H61.2745V206.273H63.3583V215H61.2958V213.939H61.2319C61.1438 214.141 61.0188 214.33 60.8569 214.506C60.695 214.682 60.4918 214.824 60.2475 214.932C60.006 215.04 59.7205 215.094 59.391 215.094ZM60.1154 213.47C60.3683 213.47 60.5842 213.399 60.7631 213.257C60.9421 213.112 61.0799 212.909 61.1765 212.648C61.2731 212.386 61.3214 212.08 61.3214 211.727C61.3214 211.369 61.2731 211.061 61.1765 210.803C61.0827 210.544 60.945 210.345 60.7631 210.206C60.5842 210.067 60.3683 209.997 60.1154 209.997C59.8569 209.997 59.6381 210.068 59.4592 210.21C59.2802 210.352 59.1438 210.553 59.0501 210.811C58.9592 211.07 58.9137 211.375 58.9137 211.727C58.9137 212.08 58.9606 212.386 59.0543 212.648C59.1481 212.909 59.283 213.112 59.4592 213.257C59.6381 213.399 59.8569 213.47 60.1154 213.47ZM68.8991 212.175V208.455H70.9787V215H68.9929V213.781H68.9247C68.7798 214.182 68.5327 214.5 68.1832 214.736C67.8366 214.969 67.4176 215.085 66.9261 215.085C66.4801 215.085 66.0881 214.983 65.75 214.778C65.4119 214.574 65.1491 214.288 64.9616 213.922C64.7741 213.553 64.679 213.121 64.6761 212.626V208.455H66.7599V212.217C66.7628 212.572 66.8565 212.852 67.0412 213.057C67.2259 213.261 67.4773 213.364 67.7955 213.364C68.0028 213.364 68.1889 213.318 68.3537 213.227C68.5213 213.134 68.6534 212.999 68.75 212.822C68.8494 212.643 68.8991 212.428 68.8991 212.175ZM72.305 215V208.455H74.3292V209.648H74.3974C74.5167 209.216 74.7113 208.895 74.9812 208.685C75.2511 208.472 75.565 208.365 75.9229 208.365C76.0195 208.365 76.119 208.372 76.2212 208.386C76.3235 208.398 76.4187 208.416 76.5067 208.442V210.253C76.4073 210.219 76.2766 210.192 76.1147 210.172C75.9556 210.152 75.8136 210.142 75.6886 210.142C75.4414 210.142 75.2184 210.197 75.0195 210.308C74.8235 210.416 74.6687 210.568 74.555 210.764C74.4442 210.957 74.3888 211.185 74.3888 211.446V215H72.305ZM78.9549 215.111C78.5373 215.111 78.1665 215.041 77.8427 214.902C77.5217 214.76 77.2674 214.547 77.0799 214.263C76.8952 213.976 76.8029 213.616 76.8029 213.185C76.8029 212.821 76.8668 212.514 76.9947 212.264C77.1225 212.014 77.2987 211.811 77.5231 211.655C77.7475 211.499 78.006 211.381 78.2987 211.301C78.5913 211.219 78.9038 211.163 79.2362 211.135C79.6083 211.101 79.908 211.065 80.1353 211.028C80.3626 210.989 80.5273 210.933 80.6296 210.862C80.7347 210.788 80.7873 210.685 80.7873 210.551V210.53C80.7873 210.311 80.712 210.142 80.5614 210.023C80.4109 209.903 80.2077 209.844 79.9521 209.844C79.6765 209.844 79.4549 209.903 79.2873 210.023C79.1197 210.142 79.0131 210.307 78.9677 210.517L77.0458 210.449C77.1026 210.051 77.2489 209.696 77.4847 209.384C77.7234 209.068 78.0501 208.821 78.4648 208.642C78.8825 208.46 79.3839 208.369 79.9691 208.369C80.3867 208.369 80.7717 208.419 81.1239 208.518C81.4762 208.615 81.783 208.757 82.0444 208.945C82.3058 209.129 82.5075 209.357 82.6495 209.626C82.7944 209.896 82.8668 210.205 82.8668 210.551V215H80.9066V214.088H80.8555C80.739 214.31 80.5898 214.497 80.408 214.651C80.229 214.804 80.0174 214.919 79.7731 214.996C79.5316 215.072 79.2589 215.111 78.9549 215.111ZM79.5984 213.747C79.8228 213.747 80.0245 213.702 80.2035 213.611C80.3853 213.52 80.5302 213.395 80.6381 213.236C80.7461 213.074 80.8001 212.886 80.8001 212.673V212.051C80.7404 212.082 80.668 212.111 80.5827 212.136C80.5004 212.162 80.4094 212.186 80.31 212.209C80.2106 212.232 80.1083 212.251 80.0032 212.268C79.8981 212.286 79.7972 212.301 79.7006 212.315C79.5046 212.347 79.337 212.395 79.1978 212.46C79.0614 212.526 78.9563 212.611 78.8825 212.716C78.8114 212.818 78.7759 212.94 78.7759 213.082C78.7759 213.298 78.8526 213.463 79.006 213.577C79.1623 213.69 79.3597 213.747 79.5984 213.747Z" fill="white"/>
<rect y="150" width="113" height="22" fill="black"/>
<rect y="150" width="52" height="22" fill="#DF711A"/>
<path d="M56.6605 156.273H59.2727L61.4886 161.676H61.5909L63.8068 156.273H66.419V165H64.3651V159.639H64.2926L62.196 164.945H60.8835L58.7869 159.609H58.7145V165H56.6605V156.273ZM70.7944 165.124C70.1097 165.124 69.5188 164.989 69.0217 164.719C68.5273 164.446 68.1467 164.058 67.8796 163.555C67.6154 163.05 67.4833 162.449 67.4833 161.753C67.4833 161.077 67.6168 160.486 67.8839 159.98C68.1509 159.472 68.5273 159.077 69.0131 158.795C69.4989 158.511 70.0714 158.369 70.7305 158.369C71.1964 158.369 71.6225 158.442 72.0089 158.587C72.3952 158.732 72.729 158.946 73.0103 159.23C73.2915 159.514 73.5103 159.865 73.6665 160.283C73.8228 160.697 73.9009 161.173 73.9009 161.71V162.23H68.212V161.02H71.962C71.9592 160.798 71.9066 160.601 71.8043 160.428C71.7021 160.254 71.5614 160.119 71.3825 160.023C71.2063 159.923 71.0032 159.874 70.7731 159.874C70.5401 159.874 70.3313 159.926 70.1467 160.031C69.962 160.134 69.8157 160.274 69.7077 160.453C69.5998 160.629 69.543 160.83 69.5373 161.054V162.286C69.5373 162.553 69.5898 162.787 69.695 162.989C69.8001 163.187 69.9492 163.342 70.1424 163.453C70.3356 163.564 70.5657 163.619 70.8327 163.619C71.0174 163.619 71.185 163.594 71.3356 163.543C71.4862 163.491 71.6154 163.416 71.7234 163.317C71.8313 163.217 71.9123 163.095 71.9663 162.95L73.8796 163.006C73.8001 163.435 73.6254 163.808 73.3555 164.126C73.0884 164.442 72.7376 164.687 72.3029 164.864C71.8683 165.037 71.3654 165.124 70.7944 165.124ZM77.3558 165.094C76.8729 165.094 76.4339 164.969 76.0391 164.719C75.6442 164.469 75.3288 164.094 75.093 163.594C74.8572 163.094 74.7393 162.473 74.7393 161.732C74.7393 160.962 74.8615 160.328 75.1058 159.831C75.3501 159.334 75.6697 158.966 76.0646 158.727C76.4624 158.489 76.8899 158.369 77.3473 158.369C77.6911 158.369 77.9851 158.429 78.2294 158.548C78.4737 158.665 78.6754 158.815 78.8345 159C78.9936 159.185 79.1143 159.376 79.1967 159.575H79.2393V156.273H81.3232V165H79.2607V163.939H79.1967C79.1087 164.141 78.9837 164.33 78.8217 164.506C78.6598 164.682 78.4567 164.824 78.2124 164.932C77.9709 165.04 77.6854 165.094 77.3558 165.094ZM78.0803 163.47C78.3331 163.47 78.549 163.399 78.728 163.257C78.907 163.112 79.0447 162.909 79.1413 162.648C79.2379 162.386 79.2862 162.08 79.2862 161.727C79.2862 161.369 79.2379 161.061 79.1413 160.803C79.0476 160.544 78.9098 160.345 78.728 160.206C78.549 160.067 78.3331 159.997 78.0803 159.997C77.8217 159.997 77.603 160.068 77.424 160.21C77.245 160.352 77.1087 160.553 77.0149 160.811C76.924 161.07 76.8786 161.375 76.8786 161.727C76.8786 162.08 76.9254 162.386 77.0192 162.648C77.1129 162.909 77.2479 163.112 77.424 163.257C77.603 163.399 77.8217 163.47 78.0803 163.47ZM82.641 165V158.455H84.7248V165H82.641ZM83.685 157.692C83.3924 157.692 83.141 157.595 82.9308 157.402C82.7205 157.206 82.6154 156.97 82.6154 156.695C82.6154 156.422 82.7205 156.189 82.9308 155.996C83.141 155.8 83.3924 155.702 83.685 155.702C83.9805 155.702 84.2319 155.8 84.4393 155.996C84.6495 156.189 84.7546 156.422 84.7546 156.695C84.7546 156.97 84.6495 157.206 84.4393 157.402C84.2319 157.595 83.9805 157.692 83.685 157.692ZM88.4418 165.094C87.9588 165.094 87.5199 164.969 87.125 164.719C86.7301 164.469 86.4148 164.094 86.179 163.594C85.9432 163.094 85.8253 162.473 85.8253 161.732C85.8253 160.962 85.9474 160.328 86.1918 159.831C86.4361 159.334 86.7557 158.966 87.1506 158.727C87.5483 158.489 87.9759 158.369 88.4332 158.369C88.777 158.369 89.071 158.429 89.3153 158.548C89.5597 158.665 89.7614 158.815 89.9205 159C90.0795 159.185 90.2003 159.376 90.2827 159.575H90.3253V156.273H92.4091V165H90.3466V163.939H90.2827C90.1946 164.141 90.0696 164.33 89.9077 164.506C89.7457 164.682 89.5426 164.824 89.2983 164.932C89.0568 165.04 88.7713 165.094 88.4418 165.094ZM89.1662 163.47C89.419 163.47 89.6349 163.399 89.8139 163.257C89.9929 163.112 90.1307 162.909 90.2273 162.648C90.3239 162.386 90.3722 162.08 90.3722 161.727C90.3722 161.369 90.3239 161.061 90.2273 160.803C90.1335 160.544 89.9957 160.345 89.8139 160.206C89.6349 160.067 89.419 159.997 89.1662 159.997C88.9077 159.997 88.6889 160.068 88.5099 160.21C88.331 160.352 88.1946 160.553 88.1009 160.811C88.0099 161.07 87.9645 161.375 87.9645 161.727C87.9645 162.08 88.0114 162.386 88.1051 162.648C88.1989 162.909 88.3338 163.112 88.5099 163.257C88.6889 163.399 88.9077 163.47 89.1662 163.47ZM95.5721 165.111C95.1545 165.111 94.7837 165.041 94.4599 164.902C94.1388 164.76 93.8846 164.547 93.6971 164.263C93.5124 163.976 93.4201 163.616 93.4201 163.185C93.4201 162.821 93.484 162.514 93.6119 162.264C93.7397 162.014 93.9158 161.811 94.1403 161.655C94.3647 161.499 94.6232 161.381 94.9158 161.301C95.2085 161.219 95.521 161.163 95.8533 161.135C96.2255 161.101 96.5252 161.065 96.7525 161.028C96.9798 160.989 97.1445 160.933 97.2468 160.862C97.3519 160.788 97.4045 160.685 97.4045 160.551V160.53C97.4045 160.311 97.3292 160.142 97.1786 160.023C97.0281 159.903 96.8249 159.844 96.5692 159.844C96.2937 159.844 96.0721 159.903 95.9045 160.023C95.7369 160.142 95.6303 160.307 95.5849 160.517L93.663 160.449C93.7198 160.051 93.8661 159.696 94.1019 159.384C94.3406 159.068 94.6673 158.821 95.082 158.642C95.4996 158.46 96.0011 158.369 96.5863 158.369C97.0039 158.369 97.3888 158.419 97.7411 158.518C98.0934 158.615 98.4002 158.757 98.6616 158.945C98.9229 159.129 99.1246 159.357 99.2667 159.626C99.4116 159.896 99.484 160.205 99.484 160.551V165H97.5238V164.088H97.4727C97.3562 164.31 97.207 164.497 97.0252 164.651C96.8462 164.804 96.6346 164.919 96.3903 164.996C96.1488 165.072 95.8761 165.111 95.5721 165.111ZM96.2156 163.747C96.44 163.747 96.6417 163.702 96.8207 163.611C97.0025 163.52 97.1474 163.395 97.2553 163.236C97.3633 163.074 97.4173 162.886 97.4173 162.673V162.051C97.3576 162.082 97.2852 162.111 97.1999 162.136C97.1175 162.162 97.0266 162.186 96.9272 162.209C96.8278 162.232 96.7255 162.251 96.6204 162.268C96.5153 162.286 96.4144 162.301 96.3178 162.315C96.1218 162.347 95.9542 162.395 95.815 162.46C95.6786 162.526 95.5735 162.611 95.4996 162.716C95.4286 162.818 95.3931 162.94 95.3931 163.082C95.3931 163.298 95.4698 163.463 95.6232 163.577C95.7795 163.69 95.9769 163.747 96.2156 163.747ZM106.473 160.453L104.559 160.504C104.539 160.368 104.485 160.247 104.397 160.142C104.309 160.034 104.194 159.95 104.052 159.891C103.913 159.828 103.751 159.797 103.566 159.797C103.325 159.797 103.119 159.845 102.949 159.942C102.781 160.038 102.699 160.169 102.701 160.334C102.699 160.462 102.75 160.572 102.855 160.666C102.963 160.76 103.154 160.835 103.43 160.892L104.691 161.131C105.345 161.256 105.831 161.463 106.149 161.753C106.47 162.043 106.632 162.426 106.635 162.903C106.632 163.352 106.498 163.743 106.234 164.075C105.973 164.408 105.615 164.666 105.16 164.851C104.706 165.033 104.186 165.124 103.6 165.124C102.666 165.124 101.929 164.932 101.389 164.548C100.852 164.162 100.545 163.645 100.468 162.997L102.527 162.946C102.572 163.185 102.69 163.366 102.88 163.491C103.071 163.616 103.314 163.679 103.609 163.679C103.876 163.679 104.093 163.629 104.261 163.53C104.429 163.43 104.514 163.298 104.517 163.134C104.514 162.986 104.449 162.868 104.321 162.78C104.193 162.689 103.993 162.618 103.72 162.567L102.578 162.349C101.922 162.23 101.433 162.01 101.112 161.689C100.791 161.365 100.632 160.953 100.635 160.453C100.632 160.016 100.748 159.642 100.984 159.332C101.22 159.02 101.555 158.781 101.99 158.616C102.424 158.452 102.937 158.369 103.528 158.369C104.414 158.369 105.113 158.555 105.625 158.928C106.136 159.297 106.419 159.805 106.473 160.453Z" fill="white"/>
<path d="M13.8494 159.835V161.438H9.80966V159.835H13.8494ZM15.2994 165L18.8192 158.028V157.973H14.7028V156.273H21.0011V157.986L17.4684 165H15.2994ZM24.6222 165.124C23.9318 165.124 23.3395 164.982 22.8452 164.697C22.3537 164.413 21.9759 164.018 21.7116 163.513C21.4474 163.004 21.3153 162.416 21.3153 161.749C21.3153 161.078 21.4474 160.49 21.7116 159.984C21.9787 159.476 22.358 159.08 22.8494 158.795C23.3438 158.511 23.9332 158.369 24.6179 158.369C25.223 158.369 25.75 158.479 26.1989 158.697C26.6506 158.916 27.0028 159.226 27.2557 159.626C27.5114 160.024 27.6463 160.491 27.6605 161.028H25.7131C25.6733 160.693 25.5597 160.43 25.3722 160.24C25.1875 160.05 24.946 159.955 24.6477 159.955C24.4063 159.955 24.1946 160.023 24.0128 160.159C23.831 160.293 23.6889 160.491 23.5866 160.756C23.4872 161.017 23.4375 161.341 23.4375 161.727C23.4375 162.114 23.4872 162.44 23.5866 162.707C23.6889 162.972 23.831 163.172 24.0128 163.308C24.1946 163.442 24.4063 163.509 24.6477 163.509C24.8409 163.509 25.0114 163.467 25.1591 163.385C25.3097 163.303 25.4332 163.182 25.5298 163.023C25.6264 162.861 25.6875 162.665 25.7131 162.435H27.6605C27.6406 162.974 27.5057 163.446 27.2557 163.849C27.0085 164.253 26.6605 164.567 26.2116 164.791C25.7656 165.013 25.2358 165.124 24.6222 165.124ZM28.7269 165V158.455H30.7085V159.656H30.7809C30.9173 159.259 31.1474 158.945 31.4712 158.714C31.7951 158.484 32.1815 158.369 32.6303 158.369C33.0849 158.369 33.4741 158.486 33.7979 158.719C34.1218 158.952 34.3278 159.264 34.4158 159.656H34.484C34.6062 159.267 34.8448 158.956 35.1999 158.723C35.555 158.487 35.9741 158.369 36.457 158.369C37.0763 158.369 37.5792 158.568 37.9656 158.966C38.3519 159.361 38.5451 159.903 38.5451 160.594V165H36.4613V161.071C36.4613 160.744 36.3775 160.496 36.2099 160.325C36.0423 160.152 35.8249 160.065 35.5579 160.065C35.271 160.065 35.0451 160.159 34.8803 160.347C34.7184 160.531 34.6374 160.78 34.6374 161.092V165H32.6346V161.05C32.6346 160.746 32.5522 160.506 32.3874 160.33C32.2227 160.153 32.0053 160.065 31.7354 160.065C31.5536 160.065 31.3931 160.109 31.2539 160.197C31.1147 160.283 31.0053 160.405 30.9258 160.564C30.8491 160.723 30.8107 160.911 30.8107 161.126V165H28.7269Z" fill="#FFEBC4"/>
<rect y="100" width="113" height="22" fill="black"/>
<rect y="100" width="26" height="22" fill="#DF711A"/>
<path d="M40.5483 115H38.2812L41.2259 106.273H44.0341L46.9787 115H44.7116L42.6619 108.472H42.5938L40.5483 115ZM40.2457 111.565H44.9844V113.168H40.2457V111.565ZM50.0021 111.267V115H47.9183V108.455H49.8999V109.656H49.9723C50.1172 109.256 50.3643 108.942 50.7138 108.714C51.0632 108.484 51.4794 108.369 51.9624 108.369C52.4226 108.369 52.8217 108.473 53.1598 108.68C53.5007 108.885 53.7649 109.172 53.9524 109.541C54.1428 109.908 54.2365 110.337 54.2337 110.828V115H52.1499V111.237C52.1527 110.874 52.0604 110.589 51.8729 110.385C51.6882 110.18 51.4311 110.078 51.1016 110.078C50.8828 110.078 50.6896 110.126 50.522 110.223C50.3572 110.317 50.2294 110.452 50.1385 110.628C50.0504 110.804 50.005 111.017 50.0021 111.267ZM61.2383 110.453L59.3249 110.504C59.305 110.368 59.2511 110.247 59.163 110.142C59.0749 110.034 58.9599 109.95 58.8178 109.891C58.6786 109.828 58.5167 109.797 58.332 109.797C58.0906 109.797 57.8846 109.845 57.7141 109.942C57.5465 110.038 57.4641 110.169 57.467 110.334C57.4641 110.462 57.5153 110.572 57.6204 110.666C57.7283 110.76 57.9201 110.835 58.1957 110.892L59.457 111.131C60.1104 111.256 60.5962 111.463 60.9144 111.753C61.2354 112.043 61.3974 112.426 61.4002 112.903C61.3974 113.352 61.2638 113.743 60.9996 114.075C60.7383 114.408 60.3803 114.666 59.9258 114.851C59.4712 115.033 58.9513 115.124 58.3661 115.124C57.4315 115.124 56.6942 114.932 56.1545 114.548C55.6175 114.162 55.3107 113.645 55.234 112.997L57.2923 112.946C57.3377 113.185 57.4556 113.366 57.646 113.491C57.8363 113.616 58.0792 113.679 58.3746 113.679C58.6417 113.679 58.859 113.629 59.0266 113.53C59.1942 113.43 59.2795 113.298 59.2823 113.134C59.2795 112.986 59.2141 112.868 59.0863 112.78C58.9585 112.689 58.7582 112.618 58.4854 112.567L57.3434 112.349C56.6871 112.23 56.1985 112.01 55.8775 111.689C55.5565 111.365 55.3974 110.953 55.4002 110.453C55.3974 110.016 55.5138 109.642 55.7496 109.332C55.9854 109.02 56.3207 108.781 56.7553 108.616C57.19 108.452 57.7028 108.369 58.2937 108.369C59.18 108.369 59.8789 108.555 60.3903 108.928C60.9016 109.297 61.1843 109.805 61.2383 110.453ZM62.4261 115V108.455H64.5099V115H62.4261ZM63.4702 107.692C63.1776 107.692 62.9261 107.595 62.7159 107.402C62.5057 107.206 62.4006 106.97 62.4006 106.695C62.4006 106.422 62.5057 106.189 62.7159 105.996C62.9261 105.8 63.1776 105.702 63.4702 105.702C63.7656 105.702 64.017 105.8 64.2244 105.996C64.4347 106.189 64.5398 106.422 64.5398 106.695C64.5398 106.97 64.4347 107.206 64.2244 107.402C64.017 107.595 63.7656 107.692 63.4702 107.692ZM68.896 115.124C68.2113 115.124 67.6204 114.989 67.1232 114.719C66.6289 114.446 66.2482 114.058 65.9812 113.555C65.717 113.05 65.5849 112.449 65.5849 111.753C65.5849 111.077 65.7184 110.486 65.9854 109.98C66.2525 109.472 66.6289 109.077 67.1147 108.795C67.6005 108.511 68.1729 108.369 68.832 108.369C69.2979 108.369 69.7241 108.442 70.1104 108.587C70.4968 108.732 70.8306 108.946 71.1119 109.23C71.3931 109.514 71.6119 109.865 71.7681 110.283C71.9244 110.697 72.0025 111.173 72.0025 111.71V112.23H66.3136V111.02H70.0636C70.0607 110.798 70.0082 110.601 69.9059 110.428C69.8036 110.254 69.663 110.119 69.484 110.023C69.3079 109.923 69.1048 109.874 68.8746 109.874C68.6417 109.874 68.4329 109.926 68.2482 110.031C68.0636 110.134 67.9173 110.274 67.8093 110.453C67.7013 110.629 67.6445 110.83 67.6388 111.054V112.286C67.6388 112.553 67.6914 112.787 67.7965 112.989C67.9016 113.187 68.0508 113.342 68.244 113.453C68.4371 113.564 68.6673 113.619 68.9343 113.619C69.119 113.619 69.2866 113.594 69.4371 113.543C69.5877 113.491 69.717 113.416 69.8249 113.317C69.9329 113.217 70.0138 113.095 70.0678 112.95L71.9812 113.006C71.9016 113.435 71.7269 113.808 71.457 114.126C71.19 114.442 70.8391 114.687 70.4045 114.864C69.9698 115.037 69.467 115.124 68.896 115.124ZM75.4574 115.094C74.9744 115.094 74.5355 114.969 74.1406 114.719C73.7457 114.469 73.4304 114.094 73.1946 113.594C72.9588 113.094 72.8409 112.473 72.8409 111.732C72.8409 110.962 72.9631 110.328 73.2074 109.831C73.4517 109.334 73.7713 108.966 74.1662 108.727C74.5639 108.489 74.9915 108.369 75.4489 108.369C75.7926 108.369 76.0866 108.429 76.331 108.548C76.5753 108.665 76.777 108.815 76.9361 109C77.0952 109.185 77.2159 109.376 77.2983 109.575H77.3409V106.273H79.4247V115H77.3622V113.939H77.2983C77.2102 114.141 77.0852 114.33 76.9233 114.506C76.7614 114.682 76.5582 114.824 76.3139 114.932C76.0724 115.04 75.7869 115.094 75.4574 115.094ZM76.1818 113.47C76.4347 113.47 76.6506 113.399 76.8295 113.257C77.0085 113.112 77.1463 112.909 77.2429 112.648C77.3395 112.386 77.3878 112.08 77.3878 111.727C77.3878 111.369 77.3395 111.061 77.2429 110.803C77.1491 110.544 77.0114 110.345 76.8295 110.206C76.6506 110.067 76.4347 109.997 76.1818 109.997C75.9233 109.997 75.7045 110.068 75.5256 110.21C75.3466 110.352 75.2102 110.553 75.1165 110.811C75.0256 111.07 74.9801 111.375 74.9801 111.727C74.9801 112.08 75.027 112.386 75.1207 112.648C75.2145 112.909 75.3494 113.112 75.5256 113.257C75.7045 113.399 75.9233 113.47 76.1818 113.47ZM82.5877 115.111C82.1701 115.111 81.7994 115.041 81.4755 114.902C81.1545 114.76 80.9002 114.547 80.7127 114.263C80.5281 113.976 80.4357 113.616 80.4357 113.185C80.4357 112.821 80.4996 112.514 80.6275 112.264C80.7553 112.014 80.9315 111.811 81.1559 111.655C81.3803 111.499 81.6388 111.381 81.9315 111.301C82.2241 111.219 82.5366 111.163 82.869 111.135C83.2411 111.101 83.5408 111.065 83.7681 111.028C83.9954 110.989 84.1602 110.933 84.2624 110.862C84.3675 110.788 84.4201 110.685 84.4201 110.551V110.53C84.4201 110.311 84.3448 110.142 84.1942 110.023C84.0437 109.903 83.8406 109.844 83.5849 109.844C83.3093 109.844 83.0877 109.903 82.9201 110.023C82.7525 110.142 82.646 110.307 82.6005 110.517L80.6786 110.449C80.7354 110.051 80.8817 109.696 81.1175 109.384C81.3562 109.068 81.6829 108.821 82.0977 108.642C82.5153 108.46 83.0167 108.369 83.6019 108.369C84.0195 108.369 84.4045 108.419 84.7567 108.518C85.109 108.615 85.4158 108.757 85.6772 108.945C85.9386 109.129 86.1403 109.357 86.2823 109.626C86.4272 109.896 86.4996 110.205 86.4996 110.551V115H84.5394V114.088H84.4883C84.3718 114.31 84.2227 114.497 84.0408 114.651C83.8619 114.804 83.6502 114.919 83.4059 114.996C83.1644 115.072 82.8917 115.111 82.5877 115.111ZM83.2312 113.747C83.4556 113.747 83.6573 113.702 83.8363 113.611C84.0181 113.52 84.163 113.395 84.271 113.236C84.3789 113.074 84.4329 112.886 84.4329 112.673V112.051C84.3732 112.082 84.3008 112.111 84.2156 112.136C84.1332 112.162 84.0423 112.186 83.9428 112.209C83.8434 112.232 83.7411 112.251 83.636 112.268C83.5309 112.286 83.43 112.301 83.3335 112.315C83.1374 112.347 82.9698 112.395 82.8306 112.46C82.6942 112.526 82.5891 112.611 82.5153 112.716C82.4442 112.818 82.4087 112.94 82.4087 113.082C82.4087 113.298 82.4854 113.463 82.6388 113.577C82.7951 113.69 82.9925 113.747 83.2312 113.747ZM90.1644 115.094C89.6815 115.094 89.2425 114.969 88.8477 114.719C88.4528 114.469 88.1374 114.094 87.9016 113.594C87.6658 113.094 87.5479 112.473 87.5479 111.732C87.5479 110.962 87.6701 110.328 87.9144 109.831C88.1587 109.334 88.4783 108.966 88.8732 108.727C89.271 108.489 89.6985 108.369 90.1559 108.369C90.4996 108.369 90.7937 108.429 91.038 108.548C91.2823 108.665 91.484 108.815 91.6431 109C91.8022 109.185 91.9229 109.376 92.0053 109.575H92.0479V106.273H94.1317V115H92.0692V113.939H92.0053C91.9173 114.141 91.7923 114.33 91.6303 114.506C91.4684 114.682 91.2653 114.824 91.021 114.932C90.7795 115.04 90.494 115.094 90.1644 115.094ZM90.8888 113.47C91.1417 113.47 91.3576 113.399 91.5366 113.257C91.7156 113.112 91.8533 112.909 91.9499 112.648C92.0465 112.386 92.0948 112.08 92.0948 111.727C92.0948 111.369 92.0465 111.061 91.9499 110.803C91.8562 110.544 91.7184 110.345 91.5366 110.206C91.3576 110.067 91.1417 109.997 90.8888 109.997C90.6303 109.997 90.4116 110.068 90.2326 110.21C90.0536 110.352 89.9173 110.553 89.8235 110.811C89.7326 111.07 89.6871 111.375 89.6871 111.727C89.6871 112.08 89.734 112.386 89.8278 112.648C89.9215 112.909 90.0565 113.112 90.2326 113.257C90.4116 113.399 90.6303 113.47 90.8888 113.47ZM98.5092 115.124C97.8246 115.124 97.2337 114.989 96.7365 114.719C96.2422 114.446 95.8615 114.058 95.5945 113.555C95.3303 113.05 95.1982 112.449 95.1982 111.753C95.1982 111.077 95.3317 110.486 95.5987 109.98C95.8658 109.472 96.2422 109.077 96.728 108.795C97.2138 108.511 97.7862 108.369 98.4453 108.369C98.9112 108.369 99.3374 108.442 99.7237 108.587C100.11 108.732 100.444 108.946 100.725 109.23C101.006 109.514 101.225 109.865 101.381 110.283C101.538 110.697 101.616 111.173 101.616 111.71V112.23H95.9268V111.02H99.6768C99.674 110.798 99.6214 110.601 99.5192 110.428C99.4169 110.254 99.2763 110.119 99.0973 110.023C98.9212 109.923 98.718 109.874 98.4879 109.874C98.255 109.874 98.0462 109.926 97.8615 110.031C97.6768 110.134 97.5305 110.274 97.4226 110.453C97.3146 110.629 97.2578 110.83 97.2521 111.054V112.286C97.2521 112.553 97.3047 112.787 97.4098 112.989C97.5149 113.187 97.6641 113.342 97.8572 113.453C98.0504 113.564 98.2805 113.619 98.5476 113.619C98.7322 113.619 98.8999 113.594 99.0504 113.543C99.201 113.491 99.3303 113.416 99.4382 113.317C99.5462 113.217 99.6271 113.095 99.6811 112.95L101.594 113.006C101.515 113.435 101.34 113.808 101.07 114.126C100.803 114.442 100.452 114.687 100.018 114.864C99.5831 115.037 99.0803 115.124 98.5092 115.124Z" fill="white"/>
<path d="M8.25284 115.213C7.49148 115.213 6.83523 115.033 6.28409 114.672C5.73295 114.308 5.30824 113.787 5.00994 113.108C4.71165 112.426 4.56392 111.607 4.56676 110.649C4.5696 109.692 4.71875 108.879 5.0142 108.212C5.3125 107.541 5.7358 107.031 6.28409 106.682C6.83523 106.33 7.49148 106.153 8.25284 106.153C9.0142 106.153 9.67045 106.33 10.2216 106.682C10.7756 107.031 11.2017 107.541 11.5 108.212C11.7983 108.882 11.946 109.695 11.9432 110.649C11.9432 111.609 11.794 112.43 11.4957 113.112C11.1974 113.794 10.7727 114.315 10.2216 114.676C9.6733 115.034 9.01705 115.213 8.25284 115.213ZM8.25284 113.487C8.70739 113.487 9.07528 113.256 9.35653 112.793C9.63778 112.327 9.77699 111.612 9.77415 110.649C9.77415 110.018 9.71023 109.499 9.58239 109.089C9.45455 108.678 9.27699 108.371 9.04972 108.169C8.82244 107.967 8.55682 107.866 8.25284 107.866C7.80114 107.866 7.43608 108.095 7.15767 108.553C6.87926 109.007 6.73864 109.706 6.7358 110.649C6.73295 111.288 6.79403 111.818 6.91903 112.239C7.04688 112.659 7.22585 112.973 7.45597 113.18C7.68608 113.385 7.9517 113.487 8.25284 113.487ZM18.0391 113.364V112.903C18.0391 112.545 18.1158 112.214 18.2692 111.911C18.4254 111.607 18.6513 111.362 18.9467 111.178C19.2422 110.993 19.603 110.901 20.0291 110.901C20.4638 110.901 20.8288 110.993 21.1243 111.178C21.4226 111.359 21.647 111.602 21.7976 111.906C21.951 112.207 22.0277 112.54 22.0277 112.903V113.364C22.0277 113.722 21.951 114.053 21.7976 114.357C21.6442 114.661 21.4183 114.905 21.12 115.089C20.8217 115.274 20.4581 115.366 20.0291 115.366C19.5973 115.366 19.2337 115.274 18.9382 115.089C18.6428 114.905 18.4183 114.661 18.2649 114.357C18.1143 114.053 18.0391 113.722 18.0391 113.364ZM19.3984 112.903V113.364C19.3984 113.545 19.4425 113.72 19.5305 113.888C19.6214 114.055 19.7876 114.139 20.0291 114.139C20.2763 114.139 20.4425 114.058 20.5277 113.896C20.6129 113.732 20.6555 113.554 20.6555 113.364V112.903C20.6555 112.713 20.6143 112.534 20.532 112.366C20.4524 112.196 20.2848 112.111 20.0291 112.111C19.7905 112.111 19.6257 112.196 19.5348 112.366C19.4439 112.534 19.3984 112.713 19.3984 112.903ZM13.5135 108.369V107.909C13.5135 107.545 13.5916 107.213 13.7479 106.912C13.907 106.608 14.1342 106.365 14.4297 106.183C14.7251 105.999 15.0831 105.906 15.5036 105.906C15.9382 105.906 16.3033 105.999 16.5987 106.183C16.897 106.365 17.1229 106.608 17.2763 106.912C17.4297 107.213 17.5064 107.545 17.5064 107.909V108.369C17.5064 108.733 17.4283 109.065 17.272 109.366C17.1186 109.668 16.8928 109.908 16.5945 110.087C16.2962 110.266 15.9325 110.355 15.5036 110.355C15.0746 110.355 14.7109 110.264 14.4126 110.082C14.1172 109.901 13.8928 109.659 13.7393 109.358C13.5888 109.057 13.5135 108.727 13.5135 108.369ZM14.8857 107.909V108.369C14.8857 108.56 14.9297 108.737 15.0178 108.902C15.1087 109.064 15.2706 109.145 15.5036 109.145C15.7536 109.145 15.9197 109.064 16.0021 108.902C16.0874 108.737 16.13 108.56 16.13 108.369V107.909C16.13 107.719 16.0902 107.54 16.0107 107.372C15.9311 107.202 15.7621 107.116 15.5036 107.116C15.2649 107.116 15.1016 107.203 15.0135 107.376C14.9283 107.55 14.8857 107.727 14.8857 107.909ZM14.157 115L20.157 106.273H21.3203L15.3203 115H14.157Z" fill="#FFEBC4"/>
<rect y="50" width="113" height="22" fill="black"/>
<rect y="50" width="107" height="22" fill="#DF711A"/>
<path d="M10.3778 58.8892C10.3494 58.5767 10.223 58.3338 9.99858 58.1605C9.77699 57.9844 9.46023 57.8963 9.0483 57.8963C8.77557 57.8963 8.5483 57.9318 8.36648 58.0028C8.18466 58.0739 8.0483 58.1719 7.95739 58.2969C7.86648 58.419 7.8196 58.5597 7.81676 58.7188C7.81108 58.8494 7.83665 58.9645 7.89347 59.0639C7.95313 59.1634 8.03835 59.2514 8.14915 59.3281C8.26278 59.402 8.39915 59.4673 8.55824 59.5241C8.71733 59.581 8.89631 59.6307 9.09517 59.6733L9.84517 59.8438C10.277 59.9375 10.6577 60.0625 10.9872 60.2188C11.3196 60.375 11.598 60.5611 11.8224 60.777C12.0497 60.9929 12.2216 61.2415 12.3381 61.5227C12.4545 61.804 12.5142 62.1193 12.517 62.4688C12.5142 63.0199 12.375 63.4929 12.0994 63.8878C11.8239 64.2827 11.4276 64.5852 10.9105 64.7955C10.3963 65.0057 9.77557 65.1108 9.0483 65.1108C8.31818 65.1108 7.68182 65.0014 7.1392 64.7827C6.59659 64.5639 6.17472 64.2315 5.87358 63.7855C5.57244 63.3395 5.41761 62.7756 5.40909 62.0938H7.42898C7.44602 62.375 7.52131 62.6094 7.65483 62.7969C7.78835 62.9844 7.97159 63.1264 8.20455 63.223C8.44034 63.3196 8.71307 63.3679 9.02273 63.3679C9.30682 63.3679 9.5483 63.3295 9.74716 63.2528C9.94886 63.1761 10.1037 63.0696 10.2116 62.9332C10.3196 62.7969 10.375 62.6406 10.3778 62.4645C10.375 62.2997 10.3239 62.1591 10.2244 62.0426C10.125 61.9233 9.97159 61.821 9.7642 61.7358C9.55966 61.6477 9.2983 61.5668 8.98011 61.4929L8.06818 61.2798C7.3125 61.1065 6.71733 60.8267 6.28267 60.4403C5.84801 60.0511 5.6321 59.5256 5.63494 58.8636C5.6321 58.3239 5.77699 57.8509 6.0696 57.4446C6.36222 57.0384 6.76705 56.7216 7.28409 56.4943C7.80114 56.267 8.39063 56.1534 9.05256 56.1534C9.72869 56.1534 10.3153 56.2685 10.8125 56.4986C11.3125 56.7259 11.7003 57.0455 11.9759 57.4574C12.2514 57.8693 12.392 58.3466 12.3977 58.8892H10.3778ZM15.4276 65.1108C15.0099 65.1108 14.6392 65.0412 14.3153 64.902C13.9943 64.7599 13.7401 64.5469 13.5526 64.2628C13.3679 63.9759 13.2756 63.6165 13.2756 63.1847C13.2756 62.821 13.3395 62.5142 13.4673 62.2642C13.5952 62.0142 13.7713 61.8111 13.9957 61.6548C14.2202 61.4986 14.4787 61.3807 14.7713 61.3011C15.0639 61.2187 15.3764 61.1634 15.7088 61.1349C16.081 61.1009 16.3807 61.0653 16.608 61.0284C16.8352 60.9886 17 60.9332 17.1023 60.8622C17.2074 60.7884 17.2599 60.6847 17.2599 60.5511V60.5298C17.2599 60.3111 17.1847 60.142 17.0341 60.0227C16.8835 59.9034 16.6804 59.8438 16.4247 59.8438C16.1491 59.8438 15.9276 59.9034 15.7599 60.0227C15.5923 60.142 15.4858 60.3068 15.4403 60.517L13.5185 60.4489C13.5753 60.0511 13.7216 59.696 13.9574 59.3835C14.196 59.0682 14.5227 58.821 14.9375 58.642C15.3551 58.4602 15.8565 58.3693 16.4418 58.3693C16.8594 58.3693 17.2443 58.419 17.5966 58.5185C17.9489 58.6151 18.2557 58.7571 18.517 58.9446C18.7784 59.1293 18.9801 59.3565 19.1222 59.6264C19.267 59.8963 19.3395 60.2045 19.3395 60.5511V65H17.3793V64.0881H17.3281C17.2116 64.3097 17.0625 64.4972 16.8807 64.6506C16.7017 64.804 16.4901 64.919 16.2457 64.9957C16.0043 65.0724 15.7315 65.1108 15.4276 65.1108ZM16.071 63.7472C16.2955 63.7472 16.4972 63.7017 16.6761 63.6108C16.858 63.5199 17.0028 63.3949 17.1108 63.2358C17.2188 63.0739 17.2727 62.8864 17.2727 62.6733V62.0511C17.2131 62.0824 17.1406 62.1108 17.0554 62.1364C16.973 62.1619 16.8821 62.1861 16.7827 62.2088C16.6832 62.2315 16.581 62.2514 16.4759 62.2685C16.3707 62.2855 16.2699 62.3011 16.1733 62.3153C15.9773 62.3466 15.8097 62.3949 15.6705 62.4602C15.5341 62.5256 15.429 62.6108 15.3551 62.7159C15.2841 62.8182 15.2486 62.9403 15.2486 63.0824C15.2486 63.2983 15.3253 63.4631 15.4787 63.5767C15.6349 63.6903 15.8324 63.7472 16.071 63.7472ZM24.8366 62.1747V58.4545H26.9162V65H24.9304V63.7812H24.8622C24.7173 64.1818 24.4702 64.5 24.1207 64.7358C23.7741 64.9687 23.3551 65.0852 22.8636 65.0852C22.4176 65.0852 22.0256 64.983 21.6875 64.7784C21.3494 64.5739 21.0866 64.2884 20.8991 63.9219C20.7116 63.5526 20.6165 63.1207 20.6136 62.6264V58.4545H22.6974V62.2173C22.7003 62.5724 22.794 62.8523 22.9787 63.0568C23.1634 63.2614 23.4148 63.3636 23.733 63.3636C23.9403 63.3636 24.1264 63.3182 24.2912 63.2273C24.4588 63.1335 24.5909 62.9986 24.6875 62.8224C24.7869 62.6435 24.8366 62.4276 24.8366 62.1747ZM23.0554 57.6236L23.9162 55.7017H25.7614L24.4744 57.6236H23.0554ZM30.6332 65.0938C30.1502 65.0938 29.7113 64.9688 29.3164 64.7188C28.9215 64.4688 28.6062 64.0938 28.3704 63.5938C28.1346 63.0938 28.0167 62.473 28.0167 61.7315C28.0167 60.9616 28.1388 60.3281 28.3832 59.831C28.6275 59.3338 28.9471 58.9659 29.342 58.7273C29.7397 58.4886 30.1673 58.3693 30.6246 58.3693C30.9684 58.3693 31.2624 58.429 31.5067 58.5483C31.7511 58.6648 31.9528 58.8153 32.1119 59C32.271 59.1847 32.3917 59.3764 32.4741 59.5753H32.5167V56.2727H34.6005V65H32.538V63.9389H32.4741C32.386 64.1406 32.261 64.3295 32.0991 64.5057C31.9371 64.6818 31.734 64.8239 31.4897 64.9318C31.2482 65.0398 30.9627 65.0938 30.6332 65.0938ZM31.3576 63.4702C31.6104 63.4702 31.8263 63.3991 32.0053 63.2571C32.1843 63.1122 32.3221 62.9091 32.4187 62.6477C32.5153 62.3864 32.5636 62.0795 32.5636 61.7273C32.5636 61.3693 32.5153 61.0611 32.4187 60.8026C32.3249 60.544 32.1871 60.3452 32.0053 60.206C31.8263 60.0668 31.6104 59.9972 31.3576 59.9972C31.0991 59.9972 30.8803 60.0682 30.7013 60.2102C30.5224 60.3523 30.386 60.5526 30.2923 60.8111C30.2013 61.0696 30.1559 61.375 30.1559 61.7273C30.1559 62.0795 30.2028 62.3864 30.2965 62.6477C30.3903 62.9091 30.5252 63.1122 30.7013 63.2571C30.8803 63.3991 31.0991 63.4702 31.3576 63.4702ZM38.978 65.1236C38.2933 65.1236 37.7024 64.9886 37.2053 64.7188C36.7109 64.446 36.3303 64.0582 36.0632 63.5554C35.799 63.0497 35.6669 62.4489 35.6669 61.7528C35.6669 61.0767 35.8004 60.4858 36.0675 59.9801C36.3345 59.4716 36.7109 59.0767 37.1967 58.7955C37.6825 58.5114 38.255 58.3693 38.9141 58.3693C39.38 58.3693 39.8061 58.4418 40.1925 58.5866C40.5788 58.7315 40.9126 58.946 41.1939 59.2301C41.4751 59.5142 41.6939 59.8651 41.8501 60.2827C42.0064 60.6974 42.0845 61.1733 42.0845 61.7102V62.2301H36.3956V61.0199H40.1456C40.1428 60.7983 40.0902 60.6009 39.9879 60.4276C39.8857 60.2543 39.745 60.1193 39.5661 60.0227C39.3899 59.9233 39.1868 59.8736 38.9567 59.8736C38.7237 59.8736 38.5149 59.9261 38.3303 60.0312C38.1456 60.1335 37.9993 60.2741 37.8913 60.4531C37.7834 60.6293 37.7266 60.8295 37.7209 61.054V62.2855C37.7209 62.5526 37.7734 62.7869 37.8786 62.9886C37.9837 63.1875 38.1328 63.3423 38.326 63.4531C38.5192 63.5639 38.7493 63.6193 39.0163 63.6193C39.201 63.6193 39.3686 63.5937 39.5192 63.5426C39.6697 63.4915 39.799 63.4162 39.907 63.3168C40.0149 63.2173 40.0959 63.0952 40.1499 62.9503L42.0632 63.0057C41.9837 63.4347 41.8089 63.8082 41.5391 64.1264C41.272 64.4418 40.9212 64.6875 40.4865 64.8636C40.0518 65.0369 39.549 65.1236 38.978 65.1236ZM47.8363 56.2727V65H45.7269V56.2727H47.8363ZM51.2443 61.267V65H49.1605V58.4545H51.142V59.6562H51.2145C51.3594 59.2557 51.6065 58.9418 51.956 58.7145C52.3054 58.4844 52.7216 58.3693 53.2045 58.3693C53.6648 58.3693 54.0639 58.473 54.402 58.6804C54.7429 58.8849 55.0071 59.1719 55.1946 59.5412C55.3849 59.9077 55.4787 60.3366 55.4759 60.8281V65H53.392V61.2372C53.3949 60.8736 53.3026 60.5895 53.1151 60.3849C52.9304 60.1804 52.6733 60.0781 52.3438 60.0781C52.125 60.0781 51.9318 60.1264 51.7642 60.223C51.5994 60.3168 51.4716 60.4517 51.3807 60.6278C51.2926 60.804 51.2472 61.017 51.2443 61.267ZM60.4606 58.4545V59.9886H56.3313V58.4545H60.4606ZM57.1964 56.8864H59.2802V62.9418C59.2802 63.0696 59.3001 63.1733 59.3398 63.2528C59.3825 63.3295 59.4435 63.3849 59.5231 63.419C59.6026 63.4503 59.6978 63.4659 59.8086 63.4659C59.8881 63.4659 59.9719 63.4588 60.06 63.4446C60.1509 63.4276 60.2191 63.4134 60.2646 63.402L60.5799 64.9062C60.4805 64.9347 60.3398 64.9702 60.158 65.0128C59.979 65.0554 59.7646 65.0824 59.5146 65.0938C59.0259 65.1165 58.6069 65.0597 58.2575 64.9233C57.9109 64.7841 57.6452 64.5682 57.4606 64.2756C57.2788 63.983 57.1907 63.6151 57.1964 63.1719V56.8864ZM64.5131 65.1236C63.8285 65.1236 63.2376 64.9886 62.7404 64.7188C62.2461 64.446 61.8654 64.0582 61.5984 63.5554C61.3342 63.0497 61.2021 62.4489 61.2021 61.7528C61.2021 61.0767 61.3356 60.4858 61.6026 59.9801C61.8697 59.4716 62.2461 59.0767 62.7319 58.7955C63.2177 58.5114 63.7901 58.3693 64.4492 58.3693C64.9151 58.3693 65.3413 58.4418 65.7276 58.5866C66.114 58.7315 66.4478 58.946 66.729 59.2301C67.0103 59.5142 67.229 59.8651 67.3853 60.2827C67.5415 60.6974 67.6197 61.1733 67.6197 61.7102V62.2301H61.9308V61.0199H65.6808C65.6779 60.7983 65.6254 60.6009 65.5231 60.4276C65.4208 60.2543 65.2802 60.1193 65.1012 60.0227C64.9251 59.9233 64.7219 59.8736 64.4918 59.8736C64.2589 59.8736 64.0501 59.9261 63.8654 60.0312C63.6808 60.1335 63.5344 60.2741 63.4265 60.4531C63.3185 60.6293 63.2617 60.8295 63.256 61.054V62.2855C63.256 62.5526 63.3086 62.7869 63.4137 62.9886C63.5188 63.1875 63.668 63.3423 63.8612 63.4531C64.0543 63.5639 64.2844 63.6193 64.5515 63.6193C64.7362 63.6193 64.9038 63.5937 65.0543 63.5426C65.2049 63.4915 65.3342 63.4162 65.4421 63.3168C65.5501 63.2173 65.631 63.0952 65.685 62.9503L67.5984 63.0057C67.5188 63.4347 67.3441 63.8082 67.0742 64.1264C66.8072 64.4418 66.4563 64.6875 66.0217 64.8636C65.587 65.0369 65.0842 65.1236 64.5131 65.1236ZM74.3984 60.4531L72.4851 60.5043C72.4652 60.3679 72.4112 60.2472 72.3232 60.142C72.2351 60.0341 72.12 59.9503 71.978 59.8906C71.8388 59.8281 71.6768 59.7969 71.4922 59.7969C71.2507 59.7969 71.0447 59.8452 70.8743 59.9418C70.7067 60.0384 70.6243 60.169 70.6271 60.3338C70.6243 60.4616 70.6754 60.5724 70.7805 60.6662C70.8885 60.7599 71.0803 60.8352 71.3558 60.892L72.6172 61.1307C73.2706 61.2557 73.7564 61.4631 74.0746 61.7528C74.3956 62.0426 74.5575 62.4261 74.5604 62.9034C74.5575 63.3523 74.424 63.7429 74.1598 64.0753C73.8984 64.4077 73.5405 64.6662 73.0859 64.8509C72.6314 65.0327 72.1115 65.1236 71.5263 65.1236C70.5916 65.1236 69.8544 64.9318 69.3146 64.5483C68.7777 64.1619 68.4709 63.6449 68.3942 62.9972L70.4524 62.946C70.4979 63.1847 70.6158 63.3665 70.8061 63.4915C70.9964 63.6165 71.2393 63.679 71.5348 63.679C71.8018 63.679 72.0192 63.6293 72.1868 63.5298C72.3544 63.4304 72.4396 63.2983 72.4425 63.1335C72.4396 62.9858 72.3743 62.8679 72.2464 62.7798C72.1186 62.6889 71.9183 62.6179 71.6456 62.5668L70.5036 62.3494C69.8473 62.2301 69.3587 62.0099 69.0376 61.6889C68.7166 61.3651 68.5575 60.9531 68.5604 60.4531C68.5575 60.0156 68.674 59.642 68.9098 59.3324C69.1456 59.0199 69.4808 58.7812 69.9155 58.6165C70.3501 58.4517 70.8629 58.3693 71.4538 58.3693C72.3402 58.3693 73.0391 58.5554 73.5504 58.9276C74.0618 59.2969 74.3445 59.8054 74.3984 60.4531ZM79.2809 58.4545V59.9886H75.1516V58.4545H79.2809ZM76.0167 56.8864H78.1005V62.9418C78.1005 63.0696 78.1204 63.1733 78.1602 63.2528C78.2028 63.3295 78.2638 63.3849 78.3434 63.419C78.4229 63.4503 78.5181 63.4659 78.6289 63.4659C78.7085 63.4659 78.7923 63.4588 78.8803 63.4446C78.9712 63.4276 79.0394 63.4134 79.0849 63.402L79.4002 64.9062C79.3008 64.9347 79.1602 64.9702 78.9783 65.0128C78.7994 65.0554 78.5849 65.0824 78.3349 65.0938C77.8462 65.1165 77.4272 65.0597 77.0778 64.9233C76.7312 64.7841 76.4656 64.5682 76.2809 64.2756C76.0991 63.983 76.011 63.6151 76.0167 63.1719V56.8864ZM80.3441 65V58.4545H82.4279V65H80.3441ZM81.3881 57.6918C81.0955 57.6918 80.8441 57.5952 80.6339 57.402C80.4237 57.206 80.3185 56.9702 80.3185 56.6946C80.3185 56.4219 80.4237 56.1889 80.6339 55.9957C80.8441 55.7997 81.0955 55.7017 81.3881 55.7017C81.6836 55.7017 81.935 55.7997 82.1424 55.9957C82.3526 56.1889 82.4577 56.4219 82.4577 56.6946C82.4577 56.9702 82.3526 57.206 82.1424 57.402C81.935 57.5952 81.6836 57.6918 81.3881 57.6918ZM85.8381 61.267V65H83.7543V58.4545H85.7358V59.6562H85.8082C85.9531 59.2557 86.2003 58.9418 86.5497 58.7145C86.8991 58.4844 87.3153 58.3693 87.7983 58.3693C88.2585 58.3693 88.6577 58.473 88.9957 58.6804C89.3366 58.8849 89.6009 59.1719 89.7884 59.5412C89.9787 59.9077 90.0724 60.3366 90.0696 60.8281V65H87.9858V61.2372C87.9886 60.8736 87.8963 60.5895 87.7088 60.3849C87.5241 60.1804 87.267 60.0781 86.9375 60.0781C86.7188 60.0781 86.5256 60.1264 86.358 60.223C86.1932 60.3168 86.0653 60.4517 85.9744 60.6278C85.8864 60.804 85.8409 61.017 85.8381 61.267ZM93.2049 65.1108C92.7873 65.1108 92.4165 65.0412 92.0927 64.902C91.7717 64.7599 91.5174 64.5469 91.3299 64.2628C91.1452 63.9759 91.0529 63.6165 91.0529 63.1847C91.0529 62.821 91.1168 62.5142 91.2447 62.2642C91.3725 62.0142 91.5487 61.8111 91.7731 61.6548C91.9975 61.4986 92.256 61.3807 92.5487 61.3011C92.8413 61.2187 93.1538 61.1634 93.4862 61.1349C93.8583 61.1009 94.158 61.0653 94.3853 61.0284C94.6126 60.9886 94.7773 60.9332 94.8796 60.8622C94.9847 60.7884 95.0373 60.6847 95.0373 60.5511V60.5298C95.0373 60.3111 94.962 60.142 94.8114 60.0227C94.6609 59.9034 94.4577 59.8438 94.2021 59.8438C93.9265 59.8438 93.7049 59.9034 93.5373 60.0227C93.3697 60.142 93.2631 60.3068 93.2177 60.517L91.2958 60.4489C91.3526 60.0511 91.4989 59.696 91.7347 59.3835C91.9734 59.0682 92.3001 58.821 92.7148 58.642C93.1325 58.4602 93.6339 58.3693 94.2191 58.3693C94.6367 58.3693 95.0217 58.419 95.3739 58.5185C95.7262 58.6151 96.033 58.7571 96.2944 58.9446C96.5558 59.1293 96.7575 59.3565 96.8995 59.6264C97.0444 59.8963 97.1168 60.2045 97.1168 60.5511V65H95.1566V64.0881H95.1055C94.989 64.3097 94.8398 64.4972 94.658 64.6506C94.479 64.804 94.2674 64.919 94.0231 64.9957C93.7816 65.0724 93.5089 65.1108 93.2049 65.1108ZM93.8484 63.7472C94.0728 63.7472 94.2745 63.7017 94.4535 63.6108C94.6353 63.5199 94.7802 63.3949 94.8881 63.2358C94.9961 63.0739 95.0501 62.8864 95.0501 62.6733V62.0511C94.9904 62.0824 94.918 62.1108 94.8327 62.1364C94.7504 62.1619 94.6594 62.1861 94.56 62.2088C94.4606 62.2315 94.3583 62.2514 94.2532 62.2685C94.1481 62.2855 94.0472 62.3011 93.9506 62.3153C93.7546 62.3466 93.587 62.3949 93.4478 62.4602C93.3114 62.5256 93.2063 62.6108 93.1325 62.7159C93.0614 62.8182 93.0259 62.9403 93.0259 63.0824C93.0259 63.2983 93.1026 63.4631 93.256 63.5767C93.4123 63.6903 93.6097 63.7472 93.8484 63.7472ZM100.475 56.2727V65H98.391V56.2727H100.475Z" fill="#FFEBC4"/>
<rect width="113" height="22" fill="black"/>
<rect width="49" height="22" fill="#DF711A"/>
<path d="M65.6605 15V6.27273H69.2656C69.919 6.27273 70.483 6.40057 70.9574 6.65625C71.4347 6.90909 71.8026 7.26278 72.0611 7.71733C72.3196 8.16903 72.4489 8.6946 72.4489 9.29403C72.4489 9.89631 72.3168 10.4233 72.0526 10.875C71.7912 11.3239 71.4176 11.6719 70.9318 11.919C70.446 12.1662 69.8693 12.2898 69.2017 12.2898H66.9773V10.6278H68.8097C69.1278 10.6278 69.3935 10.5724 69.6065 10.4616C69.8224 10.3509 69.9858 10.196 70.0966 9.99716C70.2074 9.79545 70.2628 9.56108 70.2628 9.29403C70.2628 9.02415 70.2074 8.79119 70.0966 8.59517C69.9858 8.39631 69.8224 8.2429 69.6065 8.13494C69.3906 8.02699 69.125 7.97301 68.8097 7.97301H67.7699V15H65.6605ZM76.4194 15.1236C75.7347 15.1236 75.1438 14.9886 74.6467 14.7188C74.1523 14.446 73.7717 14.0582 73.5046 13.5554C73.2404 13.0497 73.1083 12.4489 73.1083 11.7528C73.1083 11.0767 73.2418 10.4858 73.5089 9.98011C73.7759 9.47159 74.1523 9.0767 74.6381 8.79545C75.1239 8.51136 75.6964 8.36932 76.3555 8.36932C76.8214 8.36932 77.2475 8.44176 77.6339 8.58665C78.0202 8.73153 78.354 8.94602 78.6353 9.23011C78.9165 9.5142 79.1353 9.86506 79.2915 10.2827C79.4478 10.6974 79.5259 11.1733 79.5259 11.7102V12.2301H73.837V11.0199H77.587C77.5842 10.7983 77.5316 10.6009 77.4293 10.4276C77.3271 10.2543 77.1864 10.1193 77.0075 10.0227C76.8313 9.9233 76.6282 9.87358 76.3981 9.87358C76.1651 9.87358 75.9563 9.92614 75.7717 10.0312C75.587 10.1335 75.4407 10.2741 75.3327 10.4531C75.2248 10.6293 75.168 10.8295 75.1623 11.054V12.2855C75.1623 12.5526 75.2148 12.7869 75.32 12.9886C75.4251 13.1875 75.5742 13.3423 75.7674 13.4531C75.9606 13.5639 76.1907 13.6193 76.4577 13.6193C76.6424 13.6193 76.81 13.5937 76.9606 13.5426C77.1112 13.4915 77.2404 13.4162 77.3484 13.3168C77.4563 13.2173 77.5373 13.0952 77.5913 12.9503L79.5046 13.0057C79.4251 13.4347 79.2504 13.8082 78.9805 14.1264C78.7134 14.4418 78.3626 14.6875 77.9279 14.8636C77.4933 15.0369 76.9904 15.1236 76.4194 15.1236ZM86.3047 10.4531L84.3913 10.5043C84.3714 10.3679 84.3175 10.2472 84.2294 10.142C84.1413 10.0341 84.0263 9.95028 83.8842 9.89062C83.745 9.82812 83.5831 9.79688 83.3984 9.79688C83.157 9.79688 82.951 9.84517 82.7805 9.94176C82.6129 10.0384 82.5305 10.169 82.5334 10.3338C82.5305 10.4616 82.5817 10.5724 82.6868 10.6662C82.7947 10.7599 82.9865 10.8352 83.2621 10.892L84.5234 11.1307C85.1768 11.2557 85.6626 11.4631 85.9808 11.7528C86.3018 12.0426 86.4638 12.4261 86.4666 12.9034C86.4638 13.3523 86.3303 13.7429 86.0661 14.0753C85.8047 14.4077 85.4467 14.6662 84.9922 14.8509C84.5376 15.0327 84.0178 15.1236 83.4325 15.1236C82.4979 15.1236 81.7607 14.9318 81.2209 14.5483C80.6839 14.1619 80.3771 13.6449 80.3004 12.9972L82.3587 12.946C82.4041 13.1847 82.522 13.3665 82.7124 13.4915C82.9027 13.6165 83.1456 13.679 83.4411 13.679C83.7081 13.679 83.9254 13.6293 84.093 13.5298C84.2607 13.4304 84.3459 13.2983 84.3487 13.1335C84.3459 12.9858 84.2805 12.8679 84.1527 12.7798C84.0249 12.6889 83.8246 12.6179 83.5518 12.5668L82.4098 12.3494C81.7536 12.2301 81.2649 12.0099 80.9439 11.6889C80.6229 11.3651 80.4638 10.9531 80.4666 10.4531C80.4638 10.0156 80.5803 9.64205 80.8161 9.33239C81.0518 9.01989 81.3871 8.78125 81.8217 8.61648C82.2564 8.4517 82.7692 8.36932 83.3601 8.36932C84.2464 8.36932 84.9453 8.5554 85.4567 8.92756C85.968 9.29687 86.2507 9.8054 86.3047 10.4531ZM90.5479 15.1236C89.8604 15.1236 89.2695 14.983 88.7752 14.7017C88.2837 14.4176 87.9045 14.0227 87.6374 13.517C87.3732 13.0085 87.2411 12.419 87.2411 11.7486C87.2411 11.0753 87.3732 10.4858 87.6374 9.98011C87.9045 9.47159 88.2837 9.0767 88.7752 8.79545C89.2695 8.51136 89.8604 8.36932 90.5479 8.36932C91.2354 8.36932 91.8249 8.51136 92.3164 8.79545C92.8107 9.0767 93.19 9.47159 93.4542 9.98011C93.7212 10.4858 93.8548 11.0753 93.8548 11.7486C93.8548 12.419 93.7212 13.0085 93.4542 13.517C93.19 14.0227 92.8107 14.4176 92.3164 14.7017C91.8249 14.983 91.2354 15.1236 90.5479 15.1236ZM90.5607 13.5511C90.8107 13.5511 91.0224 13.4744 91.1957 13.321C91.369 13.1676 91.5011 12.9545 91.592 12.6818C91.6857 12.4091 91.7326 12.0937 91.7326 11.7358C91.7326 11.3722 91.6857 11.054 91.592 10.7812C91.5011 10.5085 91.369 10.2955 91.1957 10.142C91.0224 9.98864 90.8107 9.91193 90.5607 9.91193C90.3022 9.91193 90.0835 9.98864 89.9045 10.142C89.7283 10.2955 89.5934 10.5085 89.4996 10.7812C89.4087 11.054 89.3633 11.3722 89.3633 11.7358C89.3633 12.0937 89.4087 12.4091 89.4996 12.6818C89.5934 12.9545 89.7283 13.1676 89.9045 13.321C90.0835 13.4744 90.3022 13.5511 90.5607 13.5511Z" fill="white"/>
<path d="M13.8494 8.83523V10.4375H9.80966V8.83523H13.8494ZM18.7127 14.1193C18.0337 14.1193 17.4272 14.0114 16.8931 13.7955C16.3619 13.5767 15.9442 13.2812 15.6403 12.9091C15.3391 12.5341 15.1886 12.1108 15.1886 11.6392C15.1886 11.2784 15.2752 10.9474 15.4485 10.6463C15.6218 10.3452 15.8562 10.0952 16.1516 9.89631C16.4499 9.6946 16.7823 9.56534 17.1488 9.50852V9.44034C16.6687 9.35227 16.2752 9.12926 15.9684 8.77131C15.6644 8.41335 15.5124 7.99432 15.5124 7.5142C15.5124 7.05966 15.6502 6.65483 15.9258 6.29972C16.2042 5.9446 16.5835 5.66477 17.0636 5.46023C17.5465 5.25568 18.0962 5.15341 18.7127 5.15341C19.3292 5.15341 19.8775 5.25568 20.3576 5.46023C20.8406 5.66477 21.2198 5.9446 21.4954 6.29972C21.7738 6.65483 21.913 7.05966 21.913 7.5142C21.913 7.99716 21.7582 8.41761 21.4485 8.77557C21.1417 9.13068 20.7511 9.35227 20.2766 9.44034V9.50852C20.6403 9.56534 20.9698 9.6946 21.2653 9.89631C21.5636 10.0952 21.7994 10.3452 21.9727 10.6463C22.1488 10.9474 22.2369 11.2784 22.2369 11.6392C22.2369 12.1108 22.0849 12.5341 21.7809 12.9091C21.4769 13.2812 21.0593 13.5767 20.5281 13.7955C19.9996 14.0114 19.3945 14.1193 18.7127 14.1193ZM18.7127 12.6236C18.9712 12.6236 19.1985 12.5753 19.3945 12.4787C19.5906 12.3793 19.744 12.2415 19.8548 12.0653C19.9684 11.8892 20.0252 11.6903 20.0252 11.4688C20.0252 11.2415 19.9684 11.0398 19.8548 10.8636C19.7411 10.6875 19.5849 10.5497 19.386 10.4503C19.19 10.348 18.9656 10.2969 18.7127 10.2969C18.4627 10.2969 18.2383 10.348 18.0394 10.4503C17.8406 10.5497 17.6843 10.6875 17.5707 10.8636C17.457 11.0398 17.4002 11.2415 17.4002 11.4688C17.4002 11.6903 17.4556 11.8892 17.5664 12.0653C17.68 12.2386 17.8349 12.375 18.0309 12.4744C18.2298 12.5739 18.457 12.6236 18.7127 12.6236ZM18.7127 8.80966C18.9343 8.80966 19.1303 8.7642 19.3008 8.6733C19.4741 8.58239 19.609 8.45597 19.7056 8.29403C19.805 8.1321 19.8548 7.94886 19.8548 7.74432C19.8548 7.53977 19.805 7.35938 19.7056 7.20312C19.609 7.04688 19.4755 6.92472 19.305 6.83665C19.1346 6.74574 18.9371 6.70028 18.7127 6.70028C18.4911 6.70028 18.2937 6.74574 18.1204 6.83665C17.9471 6.92472 17.8121 7.04688 17.7156 7.20312C17.619 7.35938 17.5707 7.53977 17.5707 7.74432C17.5707 7.94886 17.619 8.1321 17.7156 8.29403C17.815 8.45312 17.9513 8.57955 18.1246 8.6733C18.2979 8.7642 18.494 8.80966 18.7127 8.80966ZM25.3093 12.2827L25.3178 9.7983H25.6076L27.4485 7.45455H29.8093L27.0735 10.8125H26.5238L25.3093 12.2827ZM23.43 14V5.27273H25.5138V14H23.43ZM27.4954 14L25.7823 11.2812L27.1545 9.80256L29.9031 14H27.4954ZM33.3366 16.5909C32.7145 16.5909 32.1818 16.5043 31.7386 16.331C31.2955 16.1577 30.9474 15.9205 30.6946 15.6193C30.4418 15.3182 30.2898 14.9773 30.2386 14.5966L32.2116 14.4858C32.2486 14.6193 32.3168 14.7358 32.4162 14.8352C32.5185 14.9347 32.6506 15.0114 32.8125 15.0653C32.9773 15.1193 33.1705 15.1463 33.392 15.1463C33.7415 15.1463 34.0298 15.0611 34.2571 14.8906C34.4872 14.723 34.6023 14.429 34.6023 14.0085V12.858H34.5298C34.4474 13.0597 34.3224 13.2401 34.1548 13.3991C33.9872 13.5582 33.7784 13.6832 33.5284 13.7741C33.2813 13.8651 32.9972 13.9105 32.6761 13.9105C32.1989 13.9105 31.7614 13.7997 31.3636 13.5781C30.9688 13.3537 30.652 13.0071 30.4134 12.5384C30.1776 12.0668 30.0597 11.4602 30.0597 10.7188C30.0597 9.95455 30.1818 9.32528 30.4261 8.83097C30.6705 8.33381 30.9901 7.96591 31.3849 7.72727C31.7827 7.48864 32.2102 7.36932 32.6676 7.36932C33.0114 7.36932 33.3054 7.42898 33.5497 7.5483C33.7969 7.66477 34 7.81534 34.1591 8C34.3182 8.18466 34.4389 8.37642 34.5213 8.57528H34.581V7.45455H36.6562V14.0256C36.6562 14.5795 36.517 15.0469 36.2386 15.4276C35.9602 15.8082 35.571 16.0966 35.071 16.2926C34.571 16.4915 33.9929 16.5909 33.3366 16.5909ZM33.4006 12.3935C33.6534 12.3935 33.8693 12.3267 34.0483 12.1932C34.2273 12.0597 34.3651 11.8679 34.4616 11.6179C34.5582 11.3679 34.6065 11.0682 34.6065 10.7188C34.6065 10.3636 34.5582 10.0582 34.4616 9.80256C34.3679 9.54403 34.2301 9.34517 34.0483 9.20597C33.8693 9.06676 33.6534 8.99716 33.4006 8.99716C33.142 8.99716 32.9233 9.06818 32.7443 9.21023C32.5653 9.35227 32.429 9.55256 32.3352 9.81108C32.2443 10.0668 32.1989 10.3693 32.1989 10.7188C32.1989 11.0682 32.2457 11.3679 32.3395 11.6179C32.4332 11.8679 32.5682 12.0597 32.7443 12.1932C32.9233 12.3267 33.142 12.3935 33.4006 12.3935Z" fill="#FFEBC5"/>
</svg>
