<?xml version="1.0" encoding="UTF-8"?>
<svg id="Layer_2" data-name="Layer 2" xmlns="http://www.w3.org/2000/svg" xmlns:xlink="http://www.w3.org/1999/xlink" viewBox="0 0 280.33 186.82">
  <defs>
    <style>
      .cls-1 {
        stroke-dasharray: 0 0 2.96 2.96;
      }

      .cls-1, .cls-2, .cls-3 {
        fill: none;
        stroke-miterlimit: 10;
      }

      .cls-1, .cls-3 {
        stroke: #fff;
        stroke-width: .25px;
      }

      .cls-4, .cls-5 {
        opacity: .5;
      }

      .cls-5 {
        fill: url(#linear-gradient);
      }

      .cls-5, .cls-6, .cls-7 {
        stroke-width: 0px;
      }

      .cls-2 {
        stroke: #b0ed97;
        stroke-width: 2px;
      }

      .cls-6 {
        fill: #151226;
      }

      .cls-7 {
        fill: #fff;
      }
    </style>
    <linearGradient id="linear-gradient" x1="140.16" y1="172.5" x2="140.16" y2="13.5" gradientTransform="translate(280.33) rotate(-180) scale(1 -1)" gradientUnits="userSpaceOnUse">
      <stop offset="0" stop-color="#b0ed97" stop-opacity="0"/>
      <stop offset="1" stop-color="#b0ed97"/>
    </linearGradient>
  </defs>
  <g id="Layer_1-2" data-name="Layer 1">
    <g>
      <g id="weight-up-weight-up">
        <g id="weight-up-chart-grid" class="cls-4">
          <g id="weight-up-line_1" data-name="weight-up-line 1">
            <g>
              <line class="cls-3" x1="272.66" y1="172" x2="272.66" y2="170.5"/>
              <line class="cls-1" x1="272.66" y1="167.54" x2="272.66" y2="2.98"/>
              <line class="cls-3" x1="272.66" y1="1.5" x2="272.66"/>
            </g>
          </g>
          <g id="weight-up-line_2" data-name="weight-up-line 2">
            <g>
              <line class="cls-3" x1="219.66" y1="172" x2="219.66" y2="170.5"/>
              <line class="cls-1" x1="219.66" y1="167.54" x2="219.66" y2="2.98"/>
              <line class="cls-3" x1="219.66" y1="1.5" x2="219.66"/>
            </g>
          </g>
          <g id="weight-up-line_4" data-name="weight-up-line 4">
            <g>
              <line class="cls-3" x1="113.66" y1="172" x2="113.66" y2="170.5"/>
              <line class="cls-1" x1="113.66" y1="167.54" x2="113.66" y2="2.98"/>
              <line class="cls-3" x1="113.66" y1="1.5" x2="113.66"/>
            </g>
          </g>
          <g id="weight-up-line_3" data-name="weight-up-line 3">
            <g>
              <line class="cls-3" x1="166.66" y1="172" x2="166.66" y2="170.5"/>
              <line class="cls-1" x1="166.66" y1="167.54" x2="166.66" y2="2.98"/>
              <line class="cls-3" x1="166.66" y1="1.5" x2="166.66"/>
            </g>
          </g>
          <g id="weight-up-line_5" data-name="weight-up-line 5">
            <g>
              <line class="cls-3" x1="60.66" y1="172" x2="60.66" y2="170.5"/>
              <line class="cls-1" x1="60.66" y1="167.54" x2="60.66" y2="2.98"/>
              <line class="cls-3" x1="60.66" y1="1.5" x2="60.66"/>
            </g>
          </g>
          <g id="weight-up-line_6" data-name="weight-up-line 6">
            <g>
              <line class="cls-3" x1="7.66" y1="172" x2="7.66" y2="170.5"/>
              <line class="cls-1" x1="7.66" y1="167.54" x2="7.66" y2="2.98"/>
              <line class="cls-3" x1="7.66" y1="1.5" x2="7.66"/>
            </g>
          </g>
        </g>
        <path id="weight-up-chart-solid" class="cls-5" d="m7.17,13.5v159s266,0,266,0v-25s-25.5,9.5-53.5-18.5c-14.91-14.91-18.5-29.5-52.5-29.5-21,0-28.5-28-53.5-28.5-21.33-.43-33,3.5-53.5-11C38.26,44.5,7.17,13.5,7.17,13.5Z"/>
        <path id="weight-up-chart-curve" class="cls-2" d="m273.16,147.5s-25.5,9.5-53.5-18.5c-14.9-14.9-18.5-29.5-52.5-29.5-21,0-28.5-28-53.5-28.5-21.33-.43-33,3.5-53.5-11C38.25,44.5,7.16,13.5,7.16,13.5"/>
        <path class="cls-6" d="m272.67,156.04c4.23,0,7.66-3.44,7.66-7.67s-3.44-7.66-7.66-7.66-7.67,3.44-7.67,7.66,3.44,7.67,7.67,7.67Z"/>
        <circle class="cls-6" cx="272.66" cy="148.37" r="6.66"/>
        <circle class="cls-7" cx="272.66" cy="148.37" r="5.12"/>
        <path class="cls-6" d="m7.67,21.16c4.23,0,7.67-3.44,7.67-7.66s-3.44-7.67-7.67-7.67S0,9.27,0,13.5s3.44,7.66,7.67,7.66Z"/>
        <circle class="cls-6" cx="7.66" cy="13.5" r="6.66"/>
        <circle class="cls-7" cx="7.66" cy="13.5" r="5.12"/>
      </g>
      <g>
        <path class="cls-7" d="m7.88,186.6v-7.01h2.3c.73,0,1.36.15,1.9.44.54.29.95.71,1.25,1.23.29.52.44,1.13.44,1.83s-.15,1.3-.44,1.83c-.29.53-.71.94-1.25,1.24-.54.29-1.17.44-1.9.44h-2.3Zm1.11-.99h1.21c.5,0,.93-.1,1.29-.31s.65-.5.85-.88c.2-.38.3-.82.3-1.34s-.1-.96-.3-1.33c-.2-.37-.48-.66-.85-.87s-.79-.31-1.29-.31h-1.21v5.04Z"/>
        <path class="cls-7" d="m14.75,180.81v-1.22h1.06v1.22h-1.06Zm0,5.79v-5.09h1.06v5.09h-1.06Z"/>
        <path class="cls-7" d="m18.58,186.71c-.35,0-.65-.06-.91-.18-.26-.12-.46-.29-.61-.51-.14-.22-.22-.48-.22-.77,0-.28.06-.52.18-.74.12-.22.31-.41.56-.56.25-.15.58-.26.97-.32l1.77-.29v.85l-1.56.26c-.28.05-.49.14-.62.27s-.2.29-.2.49.07.35.22.48.34.18.57.18c.28,0,.53-.06.75-.19.22-.12.39-.29.51-.5.12-.21.18-.44.18-.7v-1.31c0-.24-.09-.45-.28-.61-.19-.16-.44-.24-.74-.24-.28,0-.52.07-.73.22-.21.14-.37.34-.47.57l-.89-.44c.1-.25.26-.47.47-.67.21-.19.46-.34.74-.45.29-.11.59-.16.92-.16.4,0,.76.08,1.07.23s.55.36.72.63c.17.27.26.58.26.93v3.43h-1.02v-.91l.21.02c-.12.21-.27.39-.45.54-.18.15-.39.27-.63.35-.24.08-.5.12-.78.12Z"/>
        <path class="cls-7" d="m25.16,186.6v-6.06h-1.34v-.95h2.45v7.01h-1.11Z"/>
      </g>
      <g>
        <path class="cls-7" d="m50.17,186.6v-7.01h2.3c.73,0,1.36.15,1.9.44.54.29.95.71,1.25,1.23.29.52.44,1.13.44,1.83s-.15,1.3-.44,1.83c-.29.53-.71.94-1.25,1.24-.54.29-1.17.44-1.9.44h-2.3Zm1.11-.99h1.21c.5,0,.93-.1,1.29-.31s.65-.5.85-.88c.2-.38.3-.82.3-1.34s-.1-.96-.3-1.33c-.2-.37-.48-.66-.85-.87s-.79-.31-1.29-.31h-1.21v5.04Z"/>
        <path class="cls-7" d="m57.03,180.81v-1.22h1.06v1.22h-1.06Zm0,5.79v-5.09h1.06v5.09h-1.06Z"/>
        <path class="cls-7" d="m60.86,186.71c-.35,0-.65-.06-.91-.18-.26-.12-.46-.29-.61-.51-.14-.22-.22-.48-.22-.77,0-.28.06-.52.18-.74.12-.22.31-.41.56-.56.25-.15.58-.26.97-.32l1.77-.29v.85l-1.56.26c-.28.05-.49.14-.62.27s-.2.29-.2.49.07.35.22.48.34.18.57.18c.28,0,.53-.06.75-.19.22-.12.39-.29.51-.5.12-.21.18-.44.18-.7v-1.31c0-.24-.09-.45-.28-.61-.19-.16-.44-.24-.74-.24-.28,0-.52.07-.73.22-.21.14-.37.34-.47.57l-.89-.44c.1-.25.26-.47.47-.67.21-.19.46-.34.74-.45.29-.11.59-.16.92-.16.4,0,.76.08,1.07.23s.55.36.72.63c.17.27.26.58.26.93v3.43h-1.02v-.91l.21.02c-.12.21-.27.39-.45.54-.18.15-.39.27-.63.35-.24.08-.5.12-.78.12Z"/>
        <path class="cls-7" d="m68.63,186.71c-.46,0-.88-.1-1.23-.3-.36-.2-.64-.48-.84-.83-.2-.35-.31-.75-.31-1.2,0-.23.03-.46.08-.7.05-.23.14-.47.27-.72s.3-.52.52-.81l1.97-2.57h1.33l-2.4,3.11-.19-.12c.09-.1.18-.18.29-.24.1-.06.21-.1.33-.12.12-.03.24-.04.37-.04.42,0,.8.1,1.13.29.33.2.59.46.79.79.19.33.29.71.29,1.15s-.1.83-.31,1.18-.49.62-.84.82c-.35.2-.76.3-1.23.3Zm0-.99c.24,0,.45-.06.64-.17.19-.11.34-.27.46-.47.11-.2.17-.42.17-.67s-.06-.48-.17-.67c-.11-.19-.26-.34-.45-.46-.19-.11-.4-.17-.65-.17s-.45.06-.65.17c-.19.11-.34.26-.46.46-.11.19-.17.42-.17.67s.06.48.17.67c.11.2.27.35.46.47.19.11.41.17.65.17Z"/>
      </g>
      <g>
        <path class="cls-7" d="m101.61,186.6v-7.01h2.3c.73,0,1.36.15,1.9.44.54.29.95.71,1.25,1.23.29.52.44,1.13.44,1.83s-.15,1.3-.44,1.83c-.29.53-.71.94-1.25,1.24-.54.29-1.17.44-1.9.44h-2.3Zm1.11-.99h1.21c.5,0,.93-.1,1.29-.31s.65-.5.85-.88c.2-.38.3-.82.3-1.34s-.1-.96-.3-1.33c-.2-.37-.48-.66-.85-.87s-.79-.31-1.29-.31h-1.21v5.04Z"/>
        <path class="cls-7" d="m108.47,180.81v-1.22h1.06v1.22h-1.06Zm0,5.79v-5.09h1.06v5.09h-1.06Z"/>
        <path class="cls-7" d="m112.3,186.71c-.35,0-.65-.06-.91-.18-.26-.12-.46-.29-.61-.51-.14-.22-.22-.48-.22-.77,0-.28.06-.52.18-.74.12-.22.31-.41.56-.56.25-.15.58-.26.97-.32l1.77-.29v.85l-1.56.26c-.28.05-.49.14-.62.27s-.2.29-.2.49.07.35.22.48.34.18.57.18c.28,0,.53-.06.75-.19.22-.12.39-.29.51-.5.12-.21.18-.44.18-.7v-1.31c0-.24-.09-.45-.28-.61-.19-.16-.44-.24-.74-.24-.28,0-.52.07-.73.22-.21.14-.37.34-.47.57l-.89-.44c.1-.25.26-.47.47-.67.21-.19.46-.34.74-.45.29-.11.59-.16.92-.16.4,0,.76.08,1.07.23s.55.36.72.63c.17.27.26.58.26.93v3.43h-1.02v-.91l.21.02c-.12.21-.27.39-.45.54-.18.15-.39.27-.63.35-.24.08-.5.12-.78.12Z"/>
        <path class="cls-7" d="m118.89,186.6v-6.06h-1.34v-.95h2.45v7.01h-1.11Z"/>
        <path class="cls-7" d="m121.4,186.6v-.8l1.92-2.05c.38-.4.67-.73.89-.97.22-.25.37-.47.47-.65.09-.19.14-.38.14-.58,0-.34-.1-.6-.31-.79-.2-.19-.47-.28-.8-.28s-.62.1-.87.29c-.24.2-.41.47-.51.84l-.99-.29c.08-.37.24-.69.46-.96.23-.27.5-.48.83-.63.33-.15.69-.23,1.07-.23.45,0,.83.08,1.17.25s.59.4.78.69.28.64.28,1.03c0,.26-.05.51-.15.75s-.25.5-.45.76-.46.57-.77.9l-1.69,1.81h3.19v.94h-4.66Z"/>
      </g>
      <g>
        <path class="cls-7" d="m154.35,186.71v-7.01h2.3c.73,0,1.36.15,1.9.44.54.29.95.71,1.25,1.23s.44,1.13.44,1.83-.15,1.3-.44,1.83-.71.94-1.25,1.24c-.54.29-1.17.44-1.9.44h-2.3Zm1.11-.99h1.21c.5,0,.92-.1,1.29-.31s.65-.5.85-.88c.2-.38.3-.82.3-1.34s-.1-.96-.3-1.33-.48-.66-.85-.87-.79-.31-1.29-.31h-1.21v5.04Z"/>
        <path class="cls-7" d="m161.21,180.92v-1.22h1.06v1.22h-1.06Zm0,5.79v-5.09h1.06v5.09h-1.06Z"/>
        <path class="cls-7" d="m165.04,186.82c-.35,0-.65-.06-.91-.18-.26-.12-.46-.29-.61-.51s-.22-.48-.22-.77c0-.28.06-.52.18-.74.12-.22.31-.41.56-.56.25-.15.58-.26.97-.32l1.77-.29v.85l-1.56.26c-.28.05-.49.14-.62.27s-.2.29-.2.49.07.35.22.48.34.18.57.18c.28,0,.53-.06.75-.19.22-.12.38-.29.51-.5.12-.21.18-.44.18-.7v-1.31c0-.24-.09-.45-.28-.61-.19-.16-.44-.24-.74-.24-.28,0-.52.07-.73.22-.21.14-.37.34-.46.57l-.89-.44c.1-.25.26-.47.47-.67s.46-.34.74-.45c.29-.11.59-.16.92-.16.4,0,.76.08,1.07.23s.55.36.72.63c.17.27.26.58.26.93v3.43h-1.02v-.91l.21.02c-.12.21-.27.39-.45.54-.18.15-.39.27-.63.35-.24.08-.5.12-.78.12Z"/>
        <path class="cls-7" d="m171.63,186.71v-6.06h-1.34v-.95h2.45v7.01h-1.11Z"/>
        <path class="cls-7" d="m176.64,186.82c-.49,0-.92-.1-1.29-.29-.37-.19-.65-.45-.86-.77-.2-.32-.31-.68-.31-1.08,0-.45.12-.84.37-1.17.25-.33.6-.57,1.05-.71l-.05.27c-.33-.12-.59-.33-.78-.63-.19-.3-.28-.63-.28-.98s.09-.69.28-.97c.18-.28.44-.5.76-.67.32-.16.69-.24,1.1-.24s.78.08,1.1.24c.32.16.57.38.76.67.18.29.28.61.28.97s-.1.69-.29.99-.45.5-.78.63l-.05-.29c.45.16.8.4,1.05.72s.38.72.38,1.18c0,.39-.1.75-.31,1.07-.2.32-.49.58-.86.77-.37.19-.8.29-1.29.29Zm0-.94c.27,0,.51-.05.71-.16s.36-.25.47-.43c.11-.18.17-.39.17-.64s-.06-.45-.17-.63c-.11-.18-.27-.32-.47-.42s-.44-.15-.71-.15-.5.05-.7.15-.36.24-.47.42c-.11.18-.17.39-.17.63s.06.46.17.64c.11.18.27.33.47.43s.43.16.7.16Zm0-3.38c.2,0,.38-.04.53-.13s.27-.2.36-.35.14-.32.14-.51-.04-.37-.14-.51-.21-.26-.36-.35c-.15-.08-.33-.13-.53-.13s-.37.04-.53.13c-.16.08-.28.2-.37.35s-.13.32-.13.51.04.37.13.51.21.26.37.35c.16.08.33.13.53.13Z"/>
      </g>
      <g>
        <path class="cls-7" d="m206.23,186.6v-7.01h2.3c.73,0,1.36.15,1.9.44.54.29.95.71,1.25,1.23s.44,1.13.44,1.83-.15,1.3-.44,1.83-.71.94-1.25,1.24c-.54.29-1.17.44-1.9.44h-2.3Zm1.11-.99h1.21c.5,0,.92-.1,1.29-.31s.65-.5.85-.88c.2-.38.3-.82.3-1.34s-.1-.96-.3-1.33-.48-.66-.85-.87-.79-.31-1.29-.31h-1.21v5.04Z"/>
        <path class="cls-7" d="m213.09,180.81v-1.22h1.06v1.22h-1.06Zm0,5.79v-5.09h1.06v5.09h-1.06Z"/>
        <path class="cls-7" d="m216.92,186.71c-.35,0-.65-.06-.91-.18-.26-.12-.46-.29-.61-.51s-.22-.48-.22-.77c0-.28.06-.52.18-.74.12-.22.31-.41.56-.56.25-.15.58-.26.97-.32l1.77-.29v.85l-1.56.26c-.28.05-.49.14-.62.27s-.2.29-.2.49.07.35.22.48.34.18.57.18c.28,0,.53-.06.75-.19.22-.12.38-.29.51-.5.12-.21.18-.44.18-.7v-1.31c0-.24-.09-.45-.28-.61-.19-.16-.44-.24-.74-.24-.28,0-.52.07-.73.22-.21.14-.37.34-.46.57l-.89-.44c.1-.25.26-.47.47-.67s.46-.34.74-.45c.29-.11.59-.16.92-.16.4,0,.76.08,1.07.23s.55.36.72.63c.17.27.26.58.26.93v3.43h-1.02v-.91l.21.02c-.12.21-.27.39-.45.54-.18.15-.39.27-.63.35-.24.08-.5.12-.78.12Z"/>
        <path class="cls-7" d="m222.33,186.6v-.8l1.92-2.05c.38-.4.67-.73.89-.97.22-.25.37-.47.46-.65.09-.19.14-.38.14-.58,0-.34-.1-.6-.31-.79-.2-.19-.47-.28-.8-.28s-.62.1-.87.29c-.25.2-.41.47-.51.84l-.99-.29c.08-.37.24-.69.46-.96.22-.27.5-.48.83-.63.33-.15.69-.23,1.07-.23.45,0,.83.08,1.17.25s.59.4.78.69.28.64.28,1.03c0,.26-.05.51-.15.75s-.25.5-.45.76-.46.57-.77.9l-1.69,1.81h3.19v.94h-4.66Z"/>
        <path class="cls-7" d="m231.09,186.6v-1.58h-3.33v-.92l3.28-4.51h1.11v4.51h.97v.92h-.97v1.58h-1.06Zm-2.51-2.1l-.18-.4h2.69v-3.61l.3.08-2.81,3.93Z"/>
      </g>
      <g>
        <path class="cls-7" d="m245.45,186.6v-7.01h2.3c.73,0,1.36.15,1.9.44.54.29.95.71,1.25,1.23s.44,1.13.44,1.83-.15,1.3-.44,1.83-.71.94-1.25,1.24c-.54.29-1.17.44-1.9.44h-2.3Zm1.11-.99h1.21c.5,0,.92-.1,1.29-.31s.65-.5.85-.88c.2-.38.3-.82.3-1.34s-.1-.96-.3-1.33-.48-.66-.85-.87-.79-.31-1.29-.31h-1.21v5.04Z"/>
        <path class="cls-7" d="m252.31,180.81v-1.22h1.06v1.22h-1.06Zm0,5.79v-5.09h1.06v5.09h-1.06Z"/>
        <path class="cls-7" d="m256.14,186.71c-.35,0-.65-.06-.91-.18-.26-.12-.46-.29-.61-.51s-.22-.48-.22-.77c0-.28.06-.52.18-.74.12-.22.31-.41.56-.56.25-.15.58-.26.97-.32l1.77-.29v.85l-1.56.26c-.28.05-.49.14-.62.27s-.2.29-.2.49.07.35.22.48.34.18.57.18c.28,0,.53-.06.75-.19.22-.12.38-.29.51-.5.12-.21.18-.44.18-.7v-1.31c0-.24-.09-.45-.28-.61-.19-.16-.44-.24-.74-.24-.28,0-.52.07-.73.22-.21.14-.37.34-.46.57l-.89-.44c.1-.25.26-.47.47-.67s.46-.34.74-.45c.29-.11.59-.16.92-.16.4,0,.76.08,1.07.23s.55.36.72.63c.17.27.26.58.26.93v3.43h-1.02v-.91l.21.02c-.12.21-.27.39-.45.54-.18.15-.39.27-.63.35-.24.08-.5.12-.78.12Z"/>
        <path class="cls-7" d="m263.84,186.71c-.38,0-.73-.07-1.06-.21-.33-.14-.61-.33-.85-.58s-.41-.55-.51-.88l.95-.36c.12.33.32.59.57.77.26.18.56.27.89.27.27,0,.51-.05.72-.16s.37-.26.49-.45c.12-.19.17-.43.17-.71s-.06-.5-.17-.69c-.12-.19-.28-.34-.49-.44s-.45-.16-.72-.16c-.11,0-.22,0-.34.03s-.22.05-.31.08l-.24-.52,1.84-2.18h-2.98v-.94h4.23v.89l-1.81,2.16-.03-.36c.42,0,.79.1,1.11.28.32.18.57.42.75.73.18.31.27.67.27,1.08,0,.44-.11.84-.32,1.19s-.51.63-.88.84c-.37.2-.8.31-1.29.31Z"/>
        <path class="cls-7" d="m270.2,186.71c-.55,0-1.04-.15-1.46-.45-.42-.3-.75-.72-.98-1.27-.23-.55-.35-1.18-.35-1.9s.12-1.36.35-1.9c.24-.54.56-.96.97-1.26.41-.3.9-.45,1.46-.45s1.05.15,1.47.45c.42.3.74.72.98,1.27.24.54.35,1.18.35,1.9s-.12,1.35-.35,1.9c-.23.54-.56.97-.98,1.27-.42.3-.91.46-1.47.46Zm0-1.02c.35,0,.64-.11.89-.32.25-.21.45-.51.58-.9.14-.39.21-.85.21-1.38s-.07-.99-.21-1.38c-.14-.39-.33-.69-.59-.9-.25-.21-.55-.32-.9-.32s-.64.11-.89.32c-.25.21-.45.51-.58.9-.14.39-.21.85-.21,1.38s.07.99.21,1.38c.14.39.33.7.59.91.25.21.55.32.9.32Z"/>
      </g>
    </g>
  </g>
</svg>