<svg width="10" height="10" viewBox="0 0 10 10" fill="none" xmlns="http://www.w3.org/2000/svg">
<path fill-rule="evenodd" clip-rule="evenodd" d="M9.41609 0.489591C9.58158 0.599929 9.69646 0.771482 9.73546 0.966516C9.77447 1.16155 9.73441 1.36409 9.62409 1.52959L4.62409 9.02959C4.56251 9.12183 4.48123 9.19927 4.38612 9.25632C4.29101 9.31338 4.18443 9.34863 4.07405 9.35953C3.96368 9.37043 3.85226 9.35672 3.74782 9.31938C3.64339 9.28204 3.54853 9.222 3.47009 9.14359L0.470091 6.14359C0.337611 6.00142 0.265487 5.81337 0.268916 5.61907C0.272344 5.42477 0.351056 5.23938 0.488469 5.10197C0.625882 4.96456 0.811267 4.88584 1.00557 4.88242C1.19987 4.87899 1.38792 4.95111 1.53009 5.08359L3.88309 7.43659L8.37609 0.696591C8.48659 0.531268 8.65821 0.416591 8.85323 0.377774C9.04826 0.338957 9.25071 0.379177 9.41609 0.489591Z" fill="#4FB6BB"/>
</svg>
