<svg width="280" height="111" viewBox="0 0 280 111" fill="none" xmlns="http://www.w3.org/2000/svg">
<path d="M56.9793 63.5391L60.1993 63.2345C61.7781 63.2499 62.605 63.6543 62.6801 64.4476C62.7287 64.961 62.1813 65.2717 61.0379 65.3799L58.7497 65.4551L55.463 65.8013L49.1805 75.5417C44.92 82.0186 42.533 85.2813 42.0197 85.3299C41.5764 85.3718 41.136 85.0721 40.6987 84.4308C40.2935 83.8805 40.0677 83.3604 40.0214 82.8704C39.953 82.1471 43.4318 76.6152 50.458 66.2747L47.728 66.533C43.9269 66.9161 38.2895 67.673 30.8159 68.8037L19.9394 80.0028L15.7418 84.5315C13.4715 86.9121 12.0681 88.1278 11.5314 88.1786C10.8781 88.2404 10.5194 87.933 10.4554 87.2563C10.3759 86.4163 13.443 82.8774 19.6566 76.6395L27.0425 69.2313C16.3789 70.7344 10.8985 71.7825 10.6015 72.3756L10.6048 72.4106C10.6468 72.854 12.3361 72.9178 15.6727 72.6022L20.3561 72.0885C20.9839 72.0056 21.3121 72.1158 21.3408 72.4191C21.4026 73.0725 18.8902 73.6397 13.8035 74.1209C9.46354 74.5315 7.24167 74.1884 7.13793 73.0917C7.0055 71.6917 8.19833 70.6137 10.7164 69.8575C11.4243 69.6258 13.2044 69.2808 16.0568 68.8227L29.6207 66.6214C34.697 61.5505 42.0135 54.9023 51.5704 46.6766C63.7419 36.2261 71.0876 30.8817 73.6076 30.6433C74.8676 30.5241 75.5749 31.2812 75.7294 32.9145C75.8596 34.2912 74.4729 37.1768 71.5691 41.5713L56.9793 63.5391ZM51.9743 64.0125L66.5055 42.5447L69.1995 38.5467C70.3495 36.7664 71.0925 35.4131 71.4287 34.4867L71.4154 34.3467C71.3911 34.09 71.2623 33.9727 71.029 33.9948C69.9323 34.0985 63.4438 39.4207 51.5633 49.9614L33.6991 66.0591L51.9743 64.0125ZM74.8369 65.6636C72.0152 68.685 68.865 71.8433 65.3865 75.1387L59.575 80.5264C56.7148 82.8922 54.363 84.1623 52.5197 84.3366C52.2397 84.3631 52.0854 84.2247 52.0567 83.9214C52.0191 83.5247 52.2865 83.2404 52.8588 83.0686C53.6389 82.8535 54.6208 82.4075 55.8045 81.7305C57.2149 80.9615 60.0896 78.5001 64.4287 74.3465L72.4233 66.2804C77.0493 61.6758 79.549 59.3559 79.9223 59.3206C80.7857 59.2389 81.2626 59.6764 81.3531 60.6331C81.3884 61.0064 80.3862 62.8551 78.3464 66.1792C80.8812 63.6087 83.0119 62.2418 84.7386 62.0785C86.5586 61.9063 87.5613 62.8003 87.7467 64.7603C87.9873 67.3036 86.8355 70.3082 84.2912 73.7742C82.1038 76.7826 79.7453 79.101 77.2155 80.7292C77.5021 80.7728 78.8821 80.6775 81.3554 80.4436C81.6588 80.4149 81.8281 80.5872 81.8634 80.9605C81.9098 81.4505 81.0229 81.7816 79.2029 81.9538C77.7096 82.095 76.4286 81.9926 75.36 81.6463C74.8199 81.9093 74.2582 82.0684 73.6748 82.1236C71.3415 82.3443 70.102 80.8136 69.9563 77.5315L53.2244 100.373C52.8297 100.928 52.4456 101.223 52.0723 101.259C51.3723 101.325 50.9682 100.786 50.86 99.643C50.7541 98.523 52.8357 95.0184 57.1047 89.1293L63.6331 80.4956L74.8369 65.6636ZM74.8067 79.1561C77.3676 77.3601 79.6575 74.8128 81.6761 71.5143C83.7181 68.2136 84.6916 66.0616 84.5967 65.0582C84.5349 64.4049 84.1423 64.1124 83.419 64.1809C82.0423 64.3111 79.9843 65.8241 77.2448 68.72C75.2747 70.7897 73.5191 72.8863 71.9778 75.0096C72.6545 74.9456 73.2124 75.4931 73.6517 76.6522C74.2385 78.127 74.6235 78.9616 74.8067 79.1561ZM73.453 79.7786L72.6045 77.5282C72.1375 76.3246 71.8224 75.7306 71.659 75.746C71.1924 75.7902 71.0341 76.6056 71.1842 78.1922C71.3078 79.4989 71.8362 80.1081 72.7696 80.0198C73.0262 79.9955 73.254 79.9151 73.453 79.7786ZM99.7413 64.2613C99.5518 63.5023 99.4493 63.0411 99.4339 62.8778C99.3743 62.2478 100.028 61.1972 101.396 59.7259C102.784 58.2291 103.759 57.4542 104.319 57.4013C104.855 57.3505 105.147 57.5701 105.193 58.0601C105.233 58.4801 105.008 59.2077 104.517 60.2429C107.154 59.9935 108.571 60.9188 108.77 63.0188C108.927 64.6754 107.474 67.4849 104.411 71.4471C101.347 75.3861 99.8356 77.5772 99.8775 78.0205C99.9173 78.4405 100.161 78.6529 100.609 78.6576L101.76 78.5134C102.087 78.4825 102.268 78.6537 102.303 79.027C102.348 79.4937 101.693 79.791 100.34 79.919C98.613 80.0824 97.6768 79.394 97.5311 77.854C97.3877 76.3374 98.0722 74.3657 99.5848 71.939C100.523 70.4142 101.955 68.5013 103.88 66.2004C105.445 64.3338 106.22 63.3188 106.205 63.1554C106.172 62.8054 105.957 62.6492 105.56 62.6867C105.21 62.7198 104.559 62.9227 103.605 63.2954C102.649 63.6448 102.086 63.91 101.915 64.091C92.038 75.4073 85.2097 81.2443 81.4297 81.6019C81.1497 81.6284 80.9954 81.4899 80.9667 81.1866C80.9291 80.7899 81.2199 80.5035 81.8388 80.3272C82.5956 80.1144 83.5764 79.6567 84.7812 78.9542C86.5917 77.9354 89.2263 75.6733 92.685 72.168C95.759 69.0757 98.1111 66.4401 99.7413 64.2613ZM116.386 68.8666L109.696 75.0436C106.252 77.959 103.62 79.5028 101.8 79.675C101.52 79.7015 101.366 79.5747 101.34 79.2947C101.298 78.8514 101.506 78.561 101.964 78.4235C103.363 78.0322 104.538 77.5091 105.488 76.8542C107.147 75.732 109.801 73.421 113.449 69.9213L121.97 61.4523C123.596 59.7212 124.607 58.8369 125.003 58.7993C125.587 58.7442 126.259 59.0101 127.021 59.5973C128.277 58.4426 129.43 57.8156 130.48 57.7162C132.067 57.5661 132.941 58.3428 133.102 60.0461C133.343 62.5894 131.64 66.2465 127.995 71.0172C124.285 75.8412 121.158 78.3735 118.614 78.6141C116.234 78.8392 114.926 77.7035 114.69 75.2068C114.567 73.9001 115.132 71.7867 116.386 68.8666ZM128.257 67.8142C129.043 66.9159 129.802 65.7259 130.533 64.2442C131.337 62.5437 131.694 61.2151 131.604 60.2585C131.52 59.3718 131.093 58.9649 130.323 59.0377C129.179 59.1459 128.093 59.9785 127.063 61.5355C126.054 63.067 125.605 64.4161 125.716 65.5827C125.839 66.8894 126.686 67.6332 128.257 67.8142ZM124.413 63.7637C120.046 68.3673 117.986 71.9758 118.234 74.5891C118.34 75.7091 118.929 76.2183 120.003 76.1168C121.753 75.9512 124.283 73.5813 127.593 69.0071C125.589 68.7258 124.49 67.5585 124.296 65.5052C124.245 64.9685 124.284 64.388 124.413 63.7637ZM154.609 66.0278C153.872 65.9562 153.466 65.5237 153.391 64.7304C153.248 63.2137 154.062 61.1238 155.835 58.4607C157.605 55.7742 159.202 54.3636 160.626 54.229C161.442 54.1517 161.892 54.5448 161.973 55.4081C162.19 57.6948 160.128 61.5388 155.79 66.9401C151.385 72.3948 147.935 75.2402 145.438 75.4764C143.478 75.6618 142.398 74.6928 142.197 72.5695C142.025 70.7495 142.812 68.3679 144.558 65.4247L148.885 58.9062C146.799 61.2459 143.954 64.14 140.348 67.5886L134.315 73.2444C131.258 75.7701 128.82 77.119 127 77.2912C126.72 77.3177 126.566 77.1909 126.54 76.9109C126.498 76.4676 126.764 76.1716 127.339 76.0231C128.142 75.8059 129.126 75.3832 130.291 74.7551C131.657 74.0138 134.648 71.412 139.264 66.9496C141.359 64.9622 144.375 61.8754 148.311 57.6893C149.729 56.0014 150.822 55.121 151.592 55.0482C152.922 54.9224 153.65 55.5245 153.776 56.8545C153.858 57.7178 152.469 60.2034 149.608 64.3114C146.746 68.396 145.38 71.1266 145.51 72.5033C145.578 73.2266 145.951 73.5563 146.628 73.4922C148.214 73.3422 150.875 70.854 154.609 66.0278ZM155.528 64.9168C156.351 63.9207 157.293 62.5486 158.352 60.8005C159.632 58.6548 160.239 57.2319 160.173 56.5319L159.866 56.2784C159.166 56.3446 158.121 57.4911 156.731 59.7178C155.362 61.9191 154.717 63.4397 154.796 64.2797C154.832 64.653 155.075 64.8654 155.528 64.9168ZM166.274 66.1602C160.508 71.6495 156.446 74.5057 154.09 74.7286C153.81 74.7551 153.655 74.6167 153.627 74.3133C153.587 73.8933 153.843 73.6102 154.394 73.4639C156.554 72.9064 159.427 70.9278 163.014 67.528L167.194 63.5659L173.893 57.1056C176.99 54.5055 179.717 53.094 182.074 52.8711C183.824 52.7055 184.886 53.4878 185.262 55.218C186.09 54.2685 186.679 53.7773 187.029 53.7442C187.799 53.6713 188.214 53.9499 188.274 54.5799C188.351 55.3966 186.791 58.0632 183.592 62.5798C180.417 67.0942 178.863 69.7013 178.929 70.4013C178.976 70.8913 179.385 71.1116 180.157 71.0621C180.929 71.0126 181.333 71.1745 181.368 71.5478C181.413 72.0145 180.641 72.3229 179.055 72.473C177.491 72.6208 176.645 72.0065 176.514 70.6298C176.411 69.5331 176.893 67.9102 177.961 65.761L173.968 69.8465C171.995 71.6341 170.378 72.5874 169.118 72.7066C167.112 72.8964 166.012 71.9764 165.82 69.9464C165.714 68.8264 165.866 67.5643 166.274 66.1602ZM182.699 54.2597C181.323 54.3899 178.67 56.7126 174.742 61.2276C170.814 65.7426 168.915 68.6884 169.045 70.0651C169.105 70.6951 169.438 70.9814 170.045 70.924C171.375 70.7982 174.031 68.5222 178.015 64.0961C182.02 59.6445 183.956 56.7187 183.824 55.3187C183.751 54.5487 183.376 54.1957 182.699 54.2597ZM194.315 62.4483L188.18 68.149C185.123 70.6747 182.696 72.0225 180.9 72.1925C180.62 72.219 180.466 72.0922 180.44 71.8122C180.4 71.3922 180.608 71.1018 181.064 70.941C182.819 70.3277 184.389 69.5082 185.775 68.4825C187.868 66.9661 190.744 64.2692 194.403 60.3918C198.085 56.5122 200.951 53.828 202.999 52.3394C204.453 51.2838 205.799 50.6974 207.035 50.5804C209.112 50.384 210.279 51.1447 210.535 52.8625C213.618 48.1215 217.139 43.0329 221.098 37.5969C227.178 29.2057 230.883 24.9472 232.213 24.8214C232.96 24.7507 233.373 25.1354 233.453 25.9754C233.519 26.6754 232.701 28.1065 230.998 30.2686C227.822 34.2652 223.132 40.6885 216.93 49.5385C209.318 60.4052 205.574 66.4919 205.698 67.7986C205.748 68.3352 206.16 68.5788 206.932 68.5293C207.704 68.4798 208.108 68.6417 208.143 69.015C208.188 69.4817 207.65 69.768 206.53 69.874C204.686 70.0483 203.693 69.3772 203.549 67.8605C203.435 66.6472 204.026 64.6843 205.323 61.972C201.19 67.3068 198.155 70.0658 196.218 70.249C194.422 70.419 193.433 69.5473 193.252 67.634C193.15 66.5606 193.505 64.8321 194.315 62.4483ZM197.026 68.3363C198.356 68.2105 200.805 65.9778 204.373 61.6381C207.939 57.2751 209.659 54.4286 209.533 53.0986C209.469 52.4219 209.122 52.1133 208.492 52.1729C206.859 52.3274 204.371 54.5168 201.027 58.7411C197.683 62.9654 196.093 65.9409 196.257 67.6675C196.303 68.1575 196.56 68.3805 197.026 68.3363ZM219.894 61.088C214.128 66.5773 210.066 69.4335 207.71 69.6564C207.43 69.6829 207.275 69.5445 207.247 69.2411C207.207 68.8211 207.463 68.538 208.014 68.3917C210.174 67.8342 213.047 65.8556 216.634 62.4558L220.814 58.4937L227.513 52.0334C230.61 49.4333 233.337 48.0218 235.694 47.7989C237.444 47.6333 238.506 48.4156 238.882 50.1458C239.71 49.1963 240.299 48.7051 240.649 48.672C241.419 48.5991 241.834 48.8777 241.894 49.5077C241.971 50.3244 240.411 52.991 237.212 57.5076C234.037 62.022 232.483 64.6291 232.549 65.3291C232.596 65.8191 233.005 66.0394 233.777 65.9899C234.549 65.9404 234.953 66.1023 234.988 66.4756C235.033 66.9423 234.261 67.2507 232.675 67.4008C231.111 67.5487 230.265 66.9343 230.134 65.5576C230.031 64.4609 230.513 62.838 231.581 60.6888L227.588 64.7744C225.615 66.5619 223.998 67.5152 222.738 67.6344C220.732 67.8242 219.632 66.9042 219.44 64.8742C219.334 63.7542 219.486 62.4921 219.894 61.088ZM236.319 49.1875C234.943 49.3177 232.29 51.6404 228.362 56.1554C224.434 60.6704 222.535 63.6162 222.665 64.9929C222.725 65.6229 223.058 65.9092 223.665 65.8518C224.995 65.726 227.651 63.45 231.635 59.0239C235.64 54.5723 237.576 51.6465 237.444 50.2465C237.371 49.4765 236.996 49.1235 236.319 49.1875ZM249.141 58.1801C248.651 58.2265 248.375 57.923 248.313 57.2697C248.265 56.7563 248.624 55.8277 249.392 54.4839C250.543 52.4681 254.333 46.8597 260.76 37.6588C267.975 27.324 272.026 22.1147 272.913 22.0308C273.636 21.9624 274.041 22.3832 274.127 23.2932C274.321 25.3465 266.237 36.8229 249.875 57.7223C249.666 58.0011 249.421 58.1537 249.141 58.1801ZM245.018 66.4804C243.898 66.5863 243.284 66.0676 243.176 64.9243C243.085 63.9676 243.437 62.9573 244.231 61.8935C245.048 60.8274 245.935 60.2491 246.892 60.1586C248.082 60.046 248.731 60.5614 248.839 61.7047C248.927 62.6381 248.541 63.6517 247.679 64.7455C246.838 65.8138 245.951 66.3921 245.018 66.4804Z" fill="black"/>
<g clip-path="url(#clip0_124_47)">
<path d="M17.0773 94.5957C20.2106 94.2456 23.3377 93.8648 26.4772 93.5456C31.3882 93.0508 36.3093 92.5778 41.2319 92.1313C43.2167 91.9483 45.2233 91.8352 47.2168 91.7273C78.737 89.9682 110.257 88.2092 141.778 86.4635C161.827 85.3511 181.875 84.2877 201.918 83.1534C215.01 82.4155 228.096 81.5844 241.179 80.7758C243.092 80.659 244.997 80.4005 246.913 80.2658C247.774 80.2084 248.705 80.2225 249.513 80.3326C251.838 80.6507 252.466 81.9093 250.725 82.8611C250.038 83.2378 249.033 83.5835 248.091 83.7033C244.965 84.0974 241.812 84.4974 238.652 84.6933C227.113 85.4016 215.57 86.0389 204.028 86.6851C177.315 88.1776 150.608 89.6698 123.893 91.1267C116.87 91.5093 109.84 91.7811 102.812 92.0928C97.6365 92.3223 92.4599 92.5296 87.2841 92.7502C81.1445 93.0163 75.0068 93.3178 68.8657 93.5572C62.5112 93.8043 56.1476 94.0474 49.8006 94.1917C44.0496 94.3203 38.312 94.2924 32.5626 94.372C27.9925 94.4339 23.4125 94.5587 18.8398 94.6564C18.257 94.667 17.67 94.6823 17.0872 94.6929C17.0855 94.6619 17.079 94.6267 17.0729 94.5959L17.0773 94.5957Z" fill="black"/>
</g>
<defs>
<clipPath id="clip0_124_47">
<rect width="235" height="4" fill="white" transform="translate(17 93.226) rotate(-3.22637)"/>
</clipPath>
</defs>
</svg>
