<svg width="63" height="64" viewBox="0 0 63 64" fill="none" xmlns="http://www.w3.org/2000/svg">
<g clip-path="url(#clip0_131_72)">
<path fill-rule="evenodd" clip-rule="evenodd" d="M35.815 51.4212C35.2702 49.894 34.6761 48.2981 34.3014 47.5531C33.3695 45.6843 34.529 43.4034 35.2389 43.7476C35.5201 43.8838 36.0767 44.9019 36.6702 46.153C38.0385 49.0376 40.0068 53.6614 39.9452 56.8562C39.9311 57.5824 39.7948 58.215 39.4661 58.6425C39.2145 58.97 38.854 59.0929 38.3463 58.9384C34.5106 58.0705 30.9687 57.558 27.8229 57.5245C27.5669 57.5035 27.3795 57.4171 27.2498 57.2755C26.817 56.8032 27.0861 55.4209 27.2481 54.8665C27.4813 54.0685 27.8186 53.7322 28.5924 53.7201C30.1158 53.6963 31.664 53.9638 33.2066 54.25C24.9526 47.9272 20.3057 39.5122 18.9339 30.5701C17.4161 20.6771 19.9118 10.1464 25.9682 1.10333C26.315 0.585389 26.5536 0.324055 26.9688 0.287592C27.3437 0.254652 27.659 0.446623 28.178 0.83414C28.9825 1.43493 29.3398 1.90361 29.3079 2.61526C29.2806 3.22384 28.9237 3.89944 28.2863 4.99067C28.0983 5.31261 27.9204 5.6408 27.7341 5.964C23.159 13.8991 21.4627 22.9107 23.0615 31.3178C24.5082 38.9251 28.6566 46.0421 35.815 51.4212Z" fill="black"/>
</g>
<defs>
<clipPath id="clip0_131_72">
<rect width="47.4682" height="43.2066" fill="white" transform="matrix(0.555836 -0.831292 -0.831292 -0.555836 35.9175 63.4757)"/>
</clipPath>
</defs>
</svg>
