<svg width="49" height="46" viewBox="0 0 49 46" fill="none" xmlns="http://www.w3.org/2000/svg">
<g clip-path="url(#clip0_140_73)">
<path fill-rule="evenodd" clip-rule="evenodd" d="M31.0909 37.9554C30.7094 36.7105 30.3267 35.3975 30.2108 34.738C29.9148 33.0873 28.0741 32.1742 27.7819 32.7364C27.6661 32.959 27.7958 33.8817 28.0135 34.9722C28.5156 37.4865 29.4653 41.4087 31.0371 43.437C31.3945 43.898 31.7856 44.2401 32.2024 44.3578C32.5215 44.4481 32.8126 44.3544 33.0656 44.0114C35.12 41.6128 37.1556 39.5841 39.1659 38.0538C39.3207 37.9175 39.3999 37.772 39.4156 37.6186C39.4679 37.1068 38.6316 36.3455 38.2613 36.0661C37.7284 35.6639 37.3499 35.6091 36.8457 35.9723C35.853 36.6876 34.9841 37.6024 34.1277 38.5266C36.4119 30.4955 35.3694 22.8466 31.9646 16.4289C28.1977 9.32872 21.5398 3.74261 13.3018 0.822302C12.8301 0.654993 12.551 0.60111 12.2661 0.776733C12.0089 0.935308 11.8978 1.21017 11.7494 1.70869C11.5193 2.48147 11.5139 2.95473 11.8758 3.39784C12.1853 3.7767 12.7391 4.04074 13.673 4.43794C13.9485 4.55512 14.2205 4.68122 14.4955 4.80004C21.248 7.71705 26.6624 12.7081 29.6644 18.89C32.381 24.4839 33.1221 31.0576 31.0909 37.9554Z" fill="white"/>
</g>
<defs>
<clipPath id="clip0_140_73">
<rect width="38.1194" height="34.6971" fill="white" transform="translate(36.4946 45.886) rotate(-160.438)"/>
</clipPath>
</defs>
</svg>
