<svg width="360" height="121" viewBox="0 0 360 121" fill="none" xmlns="http://www.w3.org/2000/svg">
<path d="M41.4257 65.9789C38.4624 66.2592 35.686 66.0275 33.0967 65.2836C29.6364 64.2926 27.7893 62.5604 27.5553 60.0871C27.1801 56.1204 31.2078 52.4082 39.6383 48.9505C46.1896 46.2826 52.1486 44.6948 57.5153 44.1871C62.882 43.6795 65.7319 45.1873 66.0652 48.7107C66.2506 50.6707 64.4928 52.7438 60.7916 54.9302C57.5372 56.8625 54.7667 57.9368 52.48 58.1531C51.0567 58.2877 50.2887 57.7601 50.1762 56.5701C50.1055 55.8234 50.6277 54.9971 51.7427 54.0912C52.7687 53.2408 53.6784 52.7781 54.4717 52.703C54.9384 52.6589 55.1872 52.8001 55.2181 53.1268C55.2313 53.2668 54.9384 53.5299 54.3393 53.9162C53.6513 54.358 53.245 54.6671 53.1204 54.8437C53.3481 55.0105 53.6486 55.0762 54.0219 55.0409C55.2353 54.9262 57.2001 54.0458 59.9166 52.3998C62.8553 50.6152 64.2772 49.2211 64.1823 48.2178C64.094 47.2845 62.3582 46.9778 58.9749 47.2979C55.1949 47.6555 50.7661 48.7453 45.6886 50.5676C42.3214 51.8042 39.2357 53.1555 36.4316 54.6214C31.9037 57.0273 29.7203 59.0819 29.8814 60.7852C30.0756 62.8385 33.4675 63.9773 40.0569 64.2015C43.8366 64.3383 48.0131 64.1904 52.5865 63.7578C53.5198 63.6695 54.0196 63.9754 54.0858 64.6754C54.2072 65.9587 52.7695 66.8128 49.7727 67.2375C40.6425 68.5249 32.1061 71.4865 24.1636 76.1223C16.02 80.8713 12.1347 85.2174 12.5077 89.1608C12.8719 93.0108 16.3556 94.6234 22.959 93.9988C26.9023 93.6258 30.6451 92.3771 34.1873 90.2528C36.5714 88.8267 38.8903 86.9594 41.1438 84.6509C43.0761 82.679 44.0655 81.6908 44.1122 81.6863C44.6489 81.6356 44.979 82.2635 45.1026 83.5702C45.3079 85.7402 43.1396 88.4525 38.5978 91.7072C34.056 94.9619 29.3351 96.821 24.4351 97.2845C15.4985 98.1299 10.6935 94.9942 10.0203 87.8776C9.58329 83.2576 12.3781 78.9557 18.4047 74.972C22.4373 72.307 27.5045 70.0031 33.6065 68.0605C35.3146 67.4516 37.921 66.7577 41.4257 65.9789ZM62.0374 77.0597L51.7465 87.3559C46.5271 92.1578 42.7857 94.6658 40.5224 94.8799C40.2424 94.9064 40.088 94.768 40.0593 94.4647C40.0218 94.068 40.2308 93.7893 40.6865 93.6284C42.3501 93.0473 43.6243 92.4559 44.509 91.8543C45.9062 90.9453 48.7732 88.4022 53.11 84.2253C55.0767 82.3677 57.8839 79.4419 61.5318 75.4478C62.8773 73.7432 63.8766 72.86 64.53 72.7982C65.8366 72.6746 66.5297 73.0328 66.6092 73.8728C66.7107 74.9461 65.6032 77.2992 63.2865 80.9319C67.9318 75.7841 71.2227 73.1186 73.1594 72.9354C73.8127 72.8736 74.4276 73.0273 75.004 73.3965C75.5782 73.7424 75.895 74.2304 75.9546 74.8604C76.0429 75.7937 75.5421 77.2183 74.452 79.1342C78.7261 74.045 82.2165 71.3724 84.9232 71.1163C86.4865 70.9684 87.3277 71.5245 87.4469 72.7845C87.6014 74.4178 85.9508 77.3755 82.4949 81.6575C79.0624 85.9372 77.3837 88.4738 77.4587 89.2671C77.5161 89.8738 77.9426 90.1513 78.7381 90.0996C79.5314 90.0245 79.9458 90.1737 79.9811 90.547C80.0252 91.0137 79.3706 91.311 78.0173 91.439C76.1973 91.6112 75.2111 90.8923 75.0588 89.2823C74.8867 87.4623 76.2901 84.5045 79.2692 80.4088C82.2461 76.2899 83.7136 74.0087 83.6717 73.5654C83.6452 73.2854 83.4569 73.1619 83.1069 73.195C81.7069 73.3275 78.8589 75.8216 74.5627 80.6775C71.0103 84.6861 68.4196 87.9092 66.7903 90.3469C65.8028 91.8529 65.0406 92.6312 64.504 92.682C63.594 92.7681 63.0992 92.3911 63.0198 91.5511C62.9381 90.6878 64.5358 88.0412 67.8129 83.6113C71.09 79.1815 72.6832 76.4882 72.5927 75.5315C72.553 75.1115 72.2998 74.9236 71.8332 74.9677C70.6198 75.0825 68.0468 77.3741 64.1142 81.8424C60.7353 85.6934 58.3802 88.6706 57.049 90.774C56.0046 92.4266 55.0392 93.2948 54.1525 93.3787C53.3592 93.4537 52.9294 93.1413 52.8632 92.4413C52.7793 91.5546 54.1681 88.9395 57.0296 84.5961L62.0374 77.0597ZM91.6971 82.6233C85.9306 88.1126 81.869 90.9687 79.5124 91.1917C79.2324 91.2181 79.078 91.0797 79.0493 90.7764C79.0096 90.3564 79.2653 90.0732 79.8165 89.9269C81.9767 89.3695 84.85 87.3908 88.4364 83.9911L92.617 80.029L99.3157 73.5687C102.413 70.9686 105.14 69.5571 107.496 69.3341C109.246 69.1686 110.309 69.9509 110.685 71.681C111.513 70.7316 112.102 70.2404 112.452 70.2072C113.222 70.1344 113.637 70.413 113.696 71.043C113.774 71.8597 112.213 74.5263 109.015 79.0429C105.84 83.5572 104.286 86.1644 104.352 86.8644C104.398 87.3544 104.808 87.5747 105.58 87.5252C106.352 87.4757 106.756 87.6376 106.791 88.0109C106.835 88.4776 106.064 88.7859 104.477 88.936C102.914 89.0839 102.067 88.4695 101.937 87.0929C101.833 85.9962 102.315 84.3733 103.383 82.2241L99.3909 86.3096C97.4177 88.0971 95.8011 89.0505 94.5411 89.1697C92.5344 89.3595 91.4351 88.4394 91.243 86.4094C91.1371 85.2894 91.2884 84.0274 91.6971 82.6233ZM108.122 70.7228C106.745 70.853 104.093 73.1756 100.165 77.6906C96.2365 82.2056 94.3375 85.1515 94.4678 86.5281C94.5274 87.1581 94.8605 87.4444 95.4672 87.3871C96.7972 87.2612 99.454 84.9853 103.438 80.5592C107.443 76.1076 109.379 73.1818 109.246 71.7818C109.173 71.0118 108.799 70.6588 108.122 70.7228ZM119.122 79.4993C116.075 82.3772 114.114 84.1636 113.238 84.8585C110.354 87.2266 108.061 88.4911 106.357 88.6523C106.054 88.6809 105.889 88.5553 105.863 88.2753C105.825 87.8786 106.08 87.5838 106.626 87.3908C109.045 86.5735 111.951 84.5683 115.345 81.3751L124.406 72.643C128.793 68.7439 132.188 66.6806 134.591 66.4532C136.575 66.2656 137.648 67.2824 137.811 69.5034C138.788 68.1397 139.511 67.4358 139.977 67.3916C140.654 67.3276 141.029 67.6806 141.101 68.4506C141.17 69.1739 137.744 74.7714 130.825 85.243C130.965 85.2298 131.232 85.1928 131.626 85.1319C131.951 85.0777 132.206 85.0417 132.393 85.0241C132.696 84.9954 132.866 85.1677 132.901 85.541C132.939 85.9377 132.507 86.2257 131.606 86.4051L129.796 86.6823C119.765 101.851 112.079 109.687 106.735 110.193C104.542 110.4 103.358 109.582 103.184 107.739C102.906 104.799 104.76 101.128 108.745 96.725C112.734 92.3455 118.537 88.8656 126.156 86.285C127.951 83.8552 129.379 81.6601 130.442 79.6998C128.258 82.0016 126.873 83.4156 126.287 83.9419C124.333 85.6806 122.633 86.6183 121.186 86.7551C119.483 86.9163 118.534 85.9702 118.34 83.9168C118.216 82.6102 118.477 81.1376 119.122 79.4993ZM136.463 69.0659C136.384 68.2259 135.959 67.8424 135.189 67.9152C133.696 68.0565 131.008 70.3824 127.127 74.893C123.266 79.378 121.413 82.4372 121.568 84.0706C121.623 84.6539 121.872 84.9246 122.315 84.8826C123.622 84.759 126.317 82.5148 130.401 78.1499C134.59 73.6573 136.611 70.6293 136.463 69.0659ZM125.058 88.1192C119.974 89.8714 115.205 92.9593 110.75 97.3829C106.297 101.83 104.18 105.208 104.399 107.518C104.491 108.498 104.97 108.947 105.833 108.866C107.793 108.68 111.197 105.722 116.046 99.9894C119.668 95.7153 122.672 91.7586 125.058 88.1192ZM150.744 68.8451C150.554 68.0861 150.452 67.6249 150.437 67.4616C150.377 66.8316 151.031 65.781 152.398 64.3097C153.787 62.8129 154.761 62.038 155.321 61.9851C155.858 61.9343 156.15 62.1539 156.196 62.6439C156.236 63.0639 156.01 63.7915 155.52 64.8267C158.156 64.5773 159.574 65.5026 159.773 67.6026C159.929 69.2592 158.476 72.0687 155.414 76.0309C152.35 79.9699 150.838 82.161 150.88 82.6043C150.92 83.0243 151.164 83.2367 151.611 83.2414L152.763 83.0972C153.09 83.0663 153.271 83.2375 153.306 83.6108C153.35 84.0775 152.696 84.3748 151.342 84.5028C149.616 84.6662 148.679 83.9778 148.534 82.4378C148.39 80.9212 149.075 78.9495 150.587 76.5228C151.526 74.998 152.958 73.0851 154.882 70.7842C156.448 68.9176 157.223 67.9026 157.208 67.7392C157.175 67.3892 156.96 67.233 156.563 67.2705C156.213 67.3036 155.561 67.5065 154.608 67.8792C153.652 68.2286 153.088 68.4938 152.917 68.6748C143.041 79.9911 136.212 85.8281 132.432 86.1857C132.152 86.2122 131.998 86.0737 131.969 85.7704C131.932 85.3737 132.223 85.0873 132.841 84.911C133.598 84.6982 134.579 84.2405 135.784 83.538C137.594 82.5192 140.229 80.2571 143.688 76.7518C146.762 73.6595 149.114 71.0239 150.744 68.8451ZM165.321 77.3538C164.181 77.7442 162.089 79.025 159.046 81.1963C156.353 83.0989 154.272 84.1197 152.802 84.2588C152.522 84.2853 152.368 84.1468 152.339 83.8435C152.3 83.4235 152.579 83.1381 153.176 82.9874C154.578 82.6195 156.502 81.5546 158.948 79.793C161.64 77.8903 163.865 76.6441 165.622 76.0541C166.45 73.3626 168.41 70.4346 171.5 67.27C174.781 63.8757 177.682 62.0593 180.202 61.8209C182.068 61.6443 183.077 62.3494 183.227 63.9361C183.423 66.0127 181.666 68.4626 177.954 71.2856C175.233 73.3793 172.404 75.0829 169.468 76.3965C169.212 77.1741 169.123 77.9712 169.2 78.7879C169.315 80.0012 169.81 80.7548 170.685 81.0487C171.12 81.1723 171.924 81.2023 173.095 81.1386C173.937 81.0824 174.376 81.241 174.411 81.6144C174.466 82.1977 173.059 82.6251 170.189 82.8966C167.156 83.1835 165.514 82.0087 165.265 79.372C165.207 78.7653 165.226 78.0926 165.321 77.3538ZM169.756 74.9568C171.803 73.7037 173.932 72.0663 176.142 70.0445C179.092 67.3877 180.502 65.3709 180.372 63.9942C180.319 63.4342 180.036 63.1785 179.522 63.2271C178.006 63.3705 176.073 64.9659 173.725 68.0131C171.632 70.7771 170.309 73.0917 169.756 74.9568ZM188.979 70.9843L182.207 77.4163C178.68 80.4572 175.926 82.0714 173.942 82.259C173.662 82.2855 173.509 82.1588 173.483 81.8788C173.443 81.4588 173.698 81.1639 174.246 80.9943C176.377 80.369 179.163 78.4693 182.606 75.295L191.601 66.6046C196.509 61.738 200.397 59.1689 203.267 58.8975C204.784 58.754 205.597 59.2656 205.708 60.4323C206.221 60.3837 206.5 60.5927 206.544 61.0594C206.581 61.4561 206.31 61.6937 205.729 61.7722C205.419 63.473 204.699 65.2008 203.57 66.9555C202.216 69.0612 200.827 70.1813 199.403 70.316C198.563 70.3954 198.107 70.0502 198.034 69.2802C197.93 68.1835 198.706 66.6741 200.36 64.7519C201.822 63.0363 203.17 61.8494 204.402 61.1914L204.436 60.7998C204.405 60.4731 204.226 60.3252 203.9 60.3561C202.383 60.4996 199.792 62.8517 196.127 67.4124C192.486 71.9709 190.743 75.0785 190.9 76.7352C190.999 77.7852 191.512 78.4782 192.438 78.8144C192.902 78.9824 193.745 79.0674 194.97 79.0693C195.865 79.0787 196.327 79.2351 196.356 79.5385C196.4 80.0051 195.606 80.3157 193.972 80.4702C190.332 80.8146 188.356 79.3301 188.042 76.0167C187.923 74.7567 188.235 73.0792 188.979 70.9843ZM203.953 62.7877C203.305 63.155 202.421 64.0155 201.301 65.3691C200.095 66.8016 199.516 67.7745 199.565 68.2879L199.871 68.5414C200.501 68.4818 201.308 67.6757 202.291 66.1231C203.131 64.7959 203.685 63.6841 203.953 62.7877ZM225.384 50.802C224.264 50.908 223.65 50.3893 223.542 49.246C223.452 48.2893 223.942 47.3719 225.012 46.4937C225.973 45.6966 226.966 45.2495 227.993 45.1524C229.206 45.0376 229.876 45.6452 230.001 46.9752C230.092 47.9319 229.563 48.8059 228.413 49.5974C227.421 50.3034 226.411 50.7049 225.384 50.802ZM212.209 76.5204C212.268 77.1504 212.975 77.4014 214.328 77.2734C214.631 77.2447 214.801 77.417 214.836 77.7904C214.878 78.2337 214.129 78.5282 212.589 78.6739C210.839 78.8394 209.885 78.0822 209.726 76.4022C209.54 74.4422 211.754 70.1011 216.369 63.3789L207.552 72.0877C202.342 77.2419 198.466 79.9392 195.922 80.1798C195.642 80.2063 195.488 80.0679 195.459 79.7646C195.42 79.3446 195.629 79.0658 196.086 78.9283C197.53 78.5093 198.826 77.904 199.976 77.1126C201.413 76.1291 204.409 73.4562 208.964 69.0938L218.823 59.0857C219.274 58.8782 219.896 58.737 220.69 58.6619C221.483 58.5869 221.923 59.0043 222.009 59.9143C222.101 60.8943 220.474 63.7204 217.125 68.3924C213.775 73.0411 212.136 75.7504 212.209 76.5204ZM235.917 60.6115L225.626 70.9076C220.407 75.7096 216.666 78.2176 214.402 78.4317C214.122 78.4582 213.968 78.3198 213.939 78.0164C213.902 77.6198 214.111 77.341 214.566 77.1802C216.23 76.5991 217.504 76.0077 218.389 75.4061C219.786 74.497 222.653 71.954 226.99 67.777C228.957 65.9195 231.764 62.9937 235.412 58.9996C236.757 57.295 237.757 56.4118 238.41 56.35C239.717 56.2264 240.41 56.5846 240.489 57.4246C240.591 58.4979 239.483 60.851 237.167 64.4837C241.812 59.3359 245.103 56.6704 247.039 56.4872C247.693 56.4254 248.308 56.5791 248.884 56.9483C249.458 57.2942 249.775 57.7822 249.835 58.4122C249.923 59.3455 249.422 60.7701 248.332 62.6859C252.606 57.5968 256.097 54.9241 258.803 54.6681C260.367 54.5202 261.208 55.0763 261.327 56.3363C261.481 57.9696 259.831 60.9273 256.375 65.2092C252.942 69.489 251.264 72.0256 251.339 72.8189C251.396 73.4256 251.823 73.7031 252.618 73.6513C253.411 73.5763 253.826 73.7254 253.861 74.0988C253.905 74.5654 253.251 74.8628 251.897 74.9908C250.077 75.163 249.091 74.4441 248.939 72.8341C248.767 71.0141 250.17 68.0562 253.149 63.9606C256.126 59.8416 257.594 57.5605 257.552 57.1172C257.525 56.8372 257.337 56.7137 256.987 56.7468C255.587 56.8792 252.739 59.3734 248.443 64.2293C244.89 68.2379 242.3 71.461 240.67 73.8987C239.683 75.4047 238.921 76.183 238.384 76.2338C237.474 76.3199 236.979 75.9429 236.9 75.1029C236.818 74.2396 238.416 71.593 241.693 67.1631C244.97 62.7332 246.563 60.04 246.473 59.0833C246.433 58.6633 246.18 58.4754 245.713 58.5195C244.5 58.6343 241.927 60.9259 237.994 65.3942C234.615 69.2451 232.26 72.2224 230.929 74.3258C229.885 75.9784 228.919 76.8466 228.033 76.9305C227.239 77.0055 226.809 76.6931 226.743 75.9931C226.659 75.1064 228.048 72.4913 230.91 68.1478L235.917 60.6115ZM265.911 67.8385C264.771 68.2289 262.679 69.5097 259.636 71.6809C256.943 73.5836 254.862 74.6044 253.392 74.7434C253.112 74.7699 252.958 74.6315 252.929 74.3282C252.89 73.9082 253.169 73.6228 253.766 73.4721C255.168 73.1041 257.092 72.0393 259.538 70.2776C262.23 68.375 264.455 67.1287 266.212 66.5388C267.04 63.8472 269 60.9192 272.09 57.7547C275.371 54.3603 278.272 52.544 280.792 52.3056C282.658 52.129 283.667 52.8341 283.817 54.4207C284.013 56.4974 282.256 58.9472 278.544 61.7702C275.823 63.8639 272.994 65.5676 270.058 66.8812C269.802 67.6588 269.713 68.4559 269.79 69.2726C269.905 70.4859 270.4 71.2395 271.275 71.5334C271.71 71.657 272.514 71.6869 273.685 71.6232C274.527 71.5671 274.966 71.7257 275.001 72.099C275.056 72.6824 273.649 73.1098 270.779 73.3813C267.746 73.6682 266.104 72.4933 265.855 69.8567C265.797 69.25 265.816 68.5773 265.911 67.8385ZM270.346 65.4415C272.393 64.1884 274.522 62.551 276.732 60.5292C279.682 57.8723 281.092 55.8556 280.962 54.4789C280.909 53.9189 280.626 53.6632 280.112 53.7117C278.596 53.8552 276.663 55.4505 274.315 58.4978C272.222 61.2618 270.899 63.5764 270.346 65.4415ZM296.874 59.9304C302.777 53.8867 307.023 50.7424 309.613 50.4974C311.269 50.3407 312.172 51.044 312.32 52.6073C312.45 53.984 310.808 56.6583 307.393 60.6304C303.976 64.5791 302.303 66.9267 302.374 67.6734C302.445 68.4201 302.903 68.7887 303.75 68.7792C304.594 68.7464 305.033 68.905 305.066 69.255C305.11 69.7217 304.292 70.0345 302.612 70.1934C300.676 70.3766 299.626 69.6049 299.462 67.8782C299.325 66.4315 300.086 64.5116 301.743 62.1183C302.591 60.8845 304.151 58.9595 306.423 56.3433C308.121 54.3934 308.953 53.2318 308.918 52.8585C308.889 52.5551 308.665 52.4233 308.245 52.4631C306.915 52.5889 304.189 54.6359 300.068 58.6042C296.636 61.8951 294.111 64.5706 292.494 66.6305C290.434 69.2502 289.16 70.5831 288.67 70.6295C288.296 70.6648 287.941 70.5218 287.605 70.2005C287.266 69.8559 287.078 69.4852 287.041 69.0886C286.99 68.5519 288.395 66.2296 291.255 62.1217L296.384 54.7504L288.113 62.8779L281.978 68.5787C278.834 71.1832 276.364 72.5704 274.567 72.7404C274.264 72.7691 274.099 72.6434 274.073 72.3634C274.033 71.9434 274.333 71.6325 274.973 71.4307C275.844 71.1835 276.85 70.7353 277.989 70.0861C279.622 69.1783 282.862 66.3527 287.71 61.6094C292.062 57.3369 295.18 54.0874 297.064 51.861C297.381 51.4779 297.89 51.006 298.59 50.4454C298.95 50.2701 299.34 50.1625 299.76 50.1228C300.157 50.0853 300.567 50.1878 300.99 50.4302C301.434 50.6472 301.674 50.9423 301.709 51.3156C301.749 51.7356 300.137 54.6072 296.874 59.9304ZM330.47 44.3927L317.917 46.0746C317.217 46.1408 316.849 45.9873 316.814 45.6139C316.785 45.3106 317.335 45.0232 318.463 44.7517C320.048 44.3427 322.291 43.907 325.19 43.4444C328.415 42.9509 330.674 42.5607 331.965 42.2738L336.404 35.8153C338.787 32.3882 340.259 30.6481 340.819 30.5951C341.519 30.5289 341.911 30.9391 341.994 31.8258C342.085 32.7825 340.258 36.1217 336.515 41.8434C338.95 41.4483 340.972 41.1746 342.582 41.0223C343.655 40.9208 344.212 41.08 344.251 41.5C344.296 41.9667 343.03 42.4042 340.456 42.8125L335.152 43.4908L328.271 53.9941C323.955 60.8765 321.855 64.936 321.972 66.1727C322.027 66.756 322.453 67.0218 323.248 66.9701C324.041 66.895 324.456 67.0442 324.491 67.4175C324.533 67.8609 324.041 68.1311 323.014 68.2282C320.937 68.4246 319.82 67.6829 319.661 66.0029C319.535 64.6729 320.032 62.7072 321.151 60.1058L323.713 54.7078L314.124 63.8428C310.13 67.6578 306.966 69.6757 304.632 69.8964C304.352 69.9229 304.198 69.7844 304.169 69.4811C304.132 69.0844 304.341 68.8057 304.796 68.6449C305.574 68.4065 306.737 67.8845 308.286 67.0789C309.772 66.1143 313.01 63.2655 318 58.5323C321.697 55.0515 324.014 52.7959 324.953 51.7654C326.637 49.9111 328.476 47.4535 330.47 44.3927ZM338.608 57.2538L331.918 63.4308C328.474 66.3462 325.842 67.89 324.022 68.0622C323.742 68.0887 323.589 67.9619 323.563 67.6819C323.521 67.2386 323.729 66.9482 324.186 66.8107C325.586 66.4194 326.76 65.8963 327.711 65.2414C329.37 64.1192 332.024 61.8082 335.671 58.3085L344.193 49.8395C345.818 48.1084 346.829 47.2241 347.226 47.1866C347.809 47.1314 348.482 47.3973 349.244 47.9845C350.5 46.8298 351.653 46.2028 352.703 46.1034C354.29 45.9534 355.164 46.73 355.325 48.4333C355.565 50.9766 353.863 54.6337 350.218 59.4044C346.507 64.2284 343.38 66.7607 340.837 67.0013C338.457 67.2264 337.149 66.0907 336.913 63.594C336.789 62.2873 337.354 60.1739 338.608 57.2538ZM350.48 56.2014C351.266 55.3031 352.025 54.1131 352.755 52.6314C353.56 50.9309 353.917 49.6023 353.826 48.6457C353.742 47.759 353.315 47.3521 352.545 47.4249C351.402 47.5331 350.316 48.3657 349.286 49.9227C348.277 51.4542 347.828 52.8033 347.938 53.9699C348.062 55.2766 348.909 56.0204 350.48 56.2014ZM346.636 52.1509C342.269 56.7545 340.209 60.363 340.456 62.9763C340.562 64.0963 341.152 64.6055 342.225 64.504C343.975 64.3385 346.505 61.9685 349.816 57.3943C347.812 57.113 346.713 55.9457 346.518 53.8924C346.468 53.3557 346.507 52.7752 346.636 52.1509Z" fill="black"/>
<g clip-path="url(#clip0_150_6)">
<path d="M7.00539 103.55C11.5571 103.042 16.0998 102.488 20.6606 102.025C27.7947 101.306 34.9435 100.619 42.0945 99.9702C44.9779 99.7043 47.8928 99.54 50.7888 99.3832C96.578 96.8279 142.367 94.2726 188.157 91.7366C217.282 90.1206 246.405 88.5759 275.522 86.9281C294.54 85.856 313.55 84.6488 332.556 83.474C335.335 83.3045 338.102 82.9289 340.886 82.7332C342.136 82.6498 343.489 82.6704 344.663 82.8303C348.04 83.2924 348.952 85.1207 346.423 86.5035C345.425 87.0506 343.965 87.5528 342.597 87.7268C338.055 88.2993 333.475 88.8805 328.885 89.1651C312.123 90.194 295.354 91.1198 278.586 92.0586C239.782 94.2266 200.984 96.3943 162.176 98.5108C151.973 99.0666 141.76 99.4614 131.551 99.9142C124.033 100.248 116.513 100.549 108.994 100.869C100.075 101.256 91.1591 101.694 82.2379 102.042C73.0068 102.4 63.7624 102.754 54.5423 102.963C46.1878 103.15 37.8529 103.11 29.5008 103.225C22.8618 103.315 16.2084 103.496 9.5658 103.638C8.71917 103.654 7.86645 103.676 7.01982 103.691C7.01728 103.646 7.00793 103.595 6.99894 103.55L7.00539 103.55Z" fill="black"/>
</g>
<defs>
<clipPath id="clip0_150_6">
<rect width="341.382" height="5.81077" fill="white" transform="translate(6.89307 101.56) rotate(-3.22637)"/>
</clipPath>
</defs>
</svg>
