<svg width="252" height="108" viewBox="0 0 252 108" fill="none" xmlns="http://www.w3.org/2000/svg">
<path d="M52.3894 76.8548C53.0238 76.8419 53.3774 77.2204 53.4503 77.9904C53.49 78.4104 53.3653 78.8342 53.0762 79.2618C52.787 79.6893 52.4452 79.9336 52.0508 79.9944C51.9622 79.5555 51.6591 79.0898 51.1417 78.5972L44.7419 86.7243C40.0339 92.7021 36.5699 96.773 34.3498 98.937C29.5248 103.678 25.059 106.243 20.9523 106.631C17.989 106.912 16.3937 105.85 16.1663 103.447C15.7822 99.3868 19.2603 94.2199 26.6006 87.946C33.9641 81.67 41.0716 77.9136 47.9231 76.677L57.0487 64.5135C45.0824 75.3919 36.3693 81.0893 30.9093 81.6058C28.6693 81.8177 26.7331 81.2593 25.1008 79.9306C23.4662 78.5785 22.5429 76.7825 22.331 74.5425C21.8123 69.0591 24.589 62.6991 30.661 55.4623C36.057 49.0427 42.8208 43.2707 50.9525 38.1462C58.993 33.0539 65.72 30.2517 71.1333 29.7396C75.31 29.3445 77.5506 30.757 77.8552 33.977C78.1995 37.617 76.3344 41.4189 72.2599 45.3827C68.2088 49.3443 64.9348 51.4432 62.4382 51.6794C60.8982 51.8251 60.0443 51.0112 59.8765 49.2379C59.6978 47.3479 60.7364 45.0132 62.9925 42.2337C64.6359 40.1948 66.5642 38.3056 68.7774 36.566C71.0985 34.722 72.5273 33.7747 73.064 33.7239C73.4606 33.6864 73.6722 33.8076 73.6987 34.0876C73.7208 34.321 72.7003 35.2297 70.6372 36.8138C68.9486 38.1271 67.126 39.8886 65.1691 42.0984C62.703 44.8978 61.5296 46.9274 61.6488 48.1874C61.7018 48.7474 62.0199 48.9998 62.6032 48.9447C64.6099 48.7548 67.3877 46.7617 70.9365 42.9653C74.5743 39.1134 76.2972 36.1725 76.1052 34.1425C75.9419 32.4158 74.5885 31.6728 72.0452 31.9134C67.6352 32.3305 61.5548 35.2482 53.804 40.6662C46.0766 46.0821 39.4905 51.9903 34.0456 58.3909C27.9414 65.5366 25.1001 71.3378 25.5217 75.7944C25.7402 78.1044 27.2028 79.1314 29.9095 78.8754C34.1795 78.4714 40.7092 74.8286 49.4986 67.9468C56.3605 62.5893 62.1968 57.3406 67.0076 52.2006C68.1405 50.987 68.8703 50.3647 69.197 50.3338C69.6403 50.2918 69.9028 50.7025 69.9845 51.5659C70.0992 52.7792 69.6212 54.0722 68.5504 55.4447L52.3894 76.8548ZM46.5619 78.7127C39.9147 80.1183 33.3589 83.8578 26.8943 89.9311C20.4552 96.0255 17.3692 100.484 17.6363 103.308C17.7687 104.708 18.7916 105.317 20.705 105.136C22.4083 104.975 24.4405 103.935 26.8016 102.017C29.0548 100.203 33.6846 94.8918 40.6909 86.0835L46.5619 78.7127ZM72.1824 70.3211L65.4922 76.4982C62.0483 79.4136 59.4164 80.9574 57.5964 81.1295C57.3164 81.156 57.1631 81.0293 57.1366 80.7493C57.0947 80.3059 57.3026 80.0155 57.7605 79.8781C59.1595 79.4867 60.3342 78.9636 61.2846 78.3087C62.9441 77.1865 65.5976 74.8756 69.2452 71.3759L77.7668 62.9068C79.3922 61.1757 80.4033 60.2914 80.7999 60.2539C81.3833 60.1987 82.0558 60.4647 82.8176 61.0518C84.0739 59.8971 85.227 59.2701 86.277 59.1708C87.8636 59.0207 88.7375 59.7973 88.8987 61.5007C89.1392 64.044 87.437 67.701 83.792 72.4718C80.0813 77.2958 76.9544 79.8281 74.411 80.0686C72.031 80.2938 70.7229 79.158 70.4868 76.6614C70.3632 75.3547 70.9284 73.2413 72.1824 70.3211ZM84.054 69.2688C84.8401 68.3704 85.5986 67.1804 86.3295 65.6988C87.1338 63.9983 87.4908 62.6697 87.4003 61.713C87.3164 60.8264 86.8895 60.4194 86.1195 60.4923C84.9761 60.6004 83.8896 61.433 82.8597 62.9901C81.851 64.5215 81.4019 65.8706 81.5122 67.0373C81.6358 68.344 82.4831 69.0878 84.054 69.2688ZM80.2101 65.2182C75.843 69.8218 73.7831 73.4303 74.0303 76.0436C74.1362 77.1636 74.7259 77.6729 75.7992 77.5714C77.5492 77.4058 80.0795 75.0359 83.3899 70.4616C81.3858 70.1804 80.2866 69.0131 80.0924 66.9597C80.0416 66.4231 80.0809 65.8426 80.2101 65.2182ZM101.108 61.4051C100.918 60.6462 100.816 60.185 100.801 60.0217C100.741 59.3917 101.395 58.341 102.762 56.8698C104.151 55.373 105.125 54.5981 105.685 54.5451C106.222 54.4943 106.514 54.714 106.56 55.204C106.6 55.624 106.374 56.3516 105.884 57.3867C108.52 57.1373 109.938 58.0626 110.137 60.1626C110.293 61.8193 108.84 64.6287 105.778 68.591C102.714 72.5299 101.202 74.721 101.244 75.1644C101.284 75.5844 101.528 75.7967 101.975 75.8015L103.127 75.6572C103.454 75.6263 103.635 75.7975 103.67 76.1709C103.714 76.6375 103.06 76.9349 101.706 77.0629C99.9796 77.2262 99.0435 76.5379 98.8978 74.9979C98.7543 73.4812 99.4389 71.5096 100.951 69.0829C101.89 67.558 103.322 65.6452 105.246 63.3443C106.812 61.4776 107.587 60.4626 107.572 60.2993C107.539 59.9493 107.324 59.7931 106.927 59.8306C106.577 59.8637 105.925 60.0666 104.972 60.4393C104.016 60.7887 103.453 61.0539 103.281 61.2348C93.4047 72.5512 86.5764 78.3882 82.7964 78.7457C82.5164 78.7722 82.362 78.6338 82.3333 78.3305C82.2958 77.9338 82.5865 77.6473 83.2055 77.4711C83.9622 77.2582 84.943 76.8006 86.1479 76.098C87.9584 75.0792 90.593 72.8172 94.0517 69.3118C97.1257 66.2195 99.4778 63.5839 101.108 61.4051ZM116.582 67.0746L110.447 72.7754C107.39 75.3011 104.963 76.6489 103.166 76.8188C102.886 76.8453 102.733 76.7186 102.707 76.4386C102.667 76.0186 102.875 75.7282 103.33 75.5673C105.085 74.9541 106.656 74.1346 108.042 73.1088C110.135 71.5925 113.011 68.8956 116.67 65.0181C120.352 61.1385 123.217 58.4544 125.266 56.9658C126.72 55.9101 128.065 55.3238 129.302 55.2068C131.379 55.0103 132.545 55.771 132.802 57.4889C135.885 52.7478 139.406 47.6592 143.364 42.2232C149.445 33.832 153.15 29.5735 154.48 29.4477C155.227 29.3771 155.64 29.7618 155.719 30.6018C155.786 31.3018 154.967 32.7328 153.265 34.8949C150.088 38.8916 145.399 45.3149 139.197 54.1648C131.585 65.0315 127.841 71.1182 127.964 72.4249C128.015 72.9616 128.427 73.2051 129.199 73.1556C129.971 73.1061 130.375 73.268 130.41 73.6414C130.454 74.1081 129.916 74.3944 128.796 74.5003C126.953 74.6747 125.96 74.0035 125.816 72.4869C125.701 71.2735 126.293 69.3107 127.59 66.5983C123.457 71.9332 120.422 74.6922 118.485 74.8754C116.688 75.0453 115.7 74.1736 115.519 72.2603C115.417 71.187 115.771 69.4584 116.582 67.0746ZM119.293 72.9627C120.623 72.8369 123.072 70.6041 126.64 66.2644C130.206 61.9014 131.926 59.0549 131.8 57.7249C131.736 57.0482 131.389 56.7397 130.759 56.7993C129.126 56.9538 126.637 59.1432 123.294 63.3675C119.95 67.5917 118.36 70.5672 118.523 72.2939C118.57 72.7839 118.826 73.0068 119.293 72.9627ZM155.359 65.2428C151.674 69.5935 148.875 71.8594 146.962 72.0404C145.515 72.1772 144.716 71.4406 144.563 69.8306C144.385 67.9406 145.024 65.7378 146.481 63.2223L150.493 57.4752L141.267 66.7171C136.027 71.5445 132.263 74.0664 129.976 74.2827C129.696 74.3092 129.542 74.1708 129.513 73.8675C129.476 73.4708 129.789 73.1705 130.452 72.9665C131.3 72.7215 132.282 72.2754 133.398 71.6284C134.692 70.8704 137.358 68.57 141.397 64.7273C143.256 62.9741 145.975 60.2449 149.556 56.5396C150.146 55.8011 151.109 54.7802 152.445 53.4766C152.993 53.0481 153.512 52.8107 154.002 52.7643C155.355 52.6363 156.074 53.0156 156.158 53.9023C156.244 54.8123 154.825 57.2301 151.9 61.1558C148.976 65.0815 147.586 67.8143 147.732 69.3543C147.769 69.751 147.998 69.9295 148.418 69.8897C149.818 69.7573 152.68 66.791 157.005 60.9908C161.329 55.1905 163.818 52.2595 164.472 52.1977C164.798 52.1668 165.13 52.312 165.466 52.6333C165.824 52.9291 166.019 53.252 166.052 53.602C166.105 54.162 164.521 56.7014 161.299 61.2201C158.076 65.7156 156.519 68.5467 156.629 69.7133C156.68 70.25 157.103 70.4925 157.899 70.4408C158.694 70.389 159.11 70.5499 159.145 70.9232C159.187 71.3665 158.625 71.6434 157.458 71.7537C155.498 71.9391 154.447 71.2852 154.306 69.7918C154.205 68.7185 154.556 67.2022 155.359 65.2428ZM176.988 54.2272C176.798 53.4683 176.696 53.0071 176.681 52.8438C176.621 52.2138 177.275 51.1632 178.642 49.6919C180.031 48.1951 181.005 47.4202 181.565 47.3672C182.102 47.3165 182.394 47.5361 182.44 48.0261C182.48 48.4461 182.254 49.1737 181.764 50.2088C184.4 49.9594 185.818 50.8847 186.017 52.9847C186.173 54.6414 184.72 57.4509 181.658 61.4131C178.594 65.352 177.082 67.5432 177.124 67.9865C177.164 68.4065 177.408 68.6189 177.855 68.6236L179.007 68.4793C179.334 68.4484 179.515 68.6196 179.55 68.993C179.594 69.4596 178.94 69.757 177.586 69.885C175.86 70.0483 174.923 69.36 174.778 67.82C174.634 66.3033 175.319 64.3317 176.831 61.905C177.77 60.3801 179.202 58.4673 181.127 56.1664C182.692 54.2997 183.467 53.2847 183.452 53.1214C183.419 52.7714 183.204 52.6152 182.807 52.6527C182.457 52.6858 181.805 52.8887 180.852 53.2614C179.896 53.6108 179.333 53.876 179.161 54.057C169.285 65.3733 162.456 71.2103 158.676 71.5679C158.396 71.5943 158.242 71.4559 158.213 71.1526C158.176 70.7559 158.467 70.4695 159.085 70.2932C159.842 70.0804 160.823 69.6227 162.028 68.9201C163.838 67.9014 166.473 65.6393 169.932 62.1339C173.006 59.0416 175.358 56.4061 176.988 54.2272ZM191.231 61.0726C185.465 66.5619 181.403 69.418 179.046 69.6409C178.766 69.6674 178.612 69.529 178.583 69.2257C178.544 68.8057 178.799 68.5225 179.35 68.3762C181.511 67.8187 184.384 65.8401 187.97 62.4404L192.151 58.4783L198.85 52.018C201.947 49.4179 204.674 48.0064 207.03 47.7834C208.78 47.6179 209.843 48.4002 210.219 50.1303C211.047 49.1809 211.636 48.6896 211.986 48.6565C212.756 48.5837 213.171 48.8623 213.23 49.4923C213.308 50.3089 211.747 52.9756 208.549 57.4921C205.374 62.0065 203.82 64.6137 203.886 65.3137C203.932 65.8037 204.342 66.0239 205.114 65.9744C205.886 65.9249 206.29 66.0869 206.325 66.4602C206.369 66.9269 205.598 67.2352 204.011 67.3853C202.448 67.5332 201.601 66.9188 201.471 65.5421C201.367 64.4455 201.849 62.8226 202.917 60.6734L198.925 64.7589C196.952 66.5464 195.335 67.4998 194.075 67.619C192.068 67.8088 190.969 66.8887 190.777 64.8587C190.671 63.7387 190.822 62.4767 191.231 61.0726ZM207.656 49.1721C206.279 49.3023 203.627 51.6249 199.699 56.1399C195.771 60.6549 193.872 63.6008 194.002 64.9774C194.061 65.6074 194.395 65.8937 195.001 65.8363C196.331 65.7105 198.988 63.4346 202.972 59.0085C206.977 54.5569 208.913 51.6311 208.78 50.2311C208.707 49.4611 208.333 49.1081 207.656 49.1721ZM220.478 58.1647C219.988 58.2111 219.712 57.9076 219.65 57.2542C219.602 56.7409 219.961 55.8123 220.729 54.4684C221.88 52.4526 225.669 46.8442 232.097 37.6433C239.312 27.3086 243.363 22.0992 244.249 22.0154C244.973 21.9469 245.378 22.3677 245.464 23.2777C245.658 25.3311 237.574 36.8074 221.211 57.7069C221.002 57.9856 220.758 58.1382 220.478 58.1647ZM216.354 66.4649C215.234 66.5709 214.62 66.0522 214.512 64.9088C214.422 63.9522 214.773 62.9419 215.567 61.878C216.385 60.8119 217.272 60.2336 218.228 60.1432C219.418 60.0306 220.067 60.546 220.176 61.6893C220.264 62.6226 219.877 63.6362 219.015 64.73C218.175 65.7983 217.288 66.3766 216.354 66.4649Z" fill="black"/>
<g clip-path="url(#clip0_201_2)">
<path d="M0.151026 91.9858C3.28433 91.6358 6.41144 91.255 9.55093 90.9357C14.4619 90.441 19.383 89.9679 24.3056 89.5215C26.2904 89.3384 28.297 89.2253 30.2905 89.1174C61.8108 87.3584 93.331 85.5994 124.852 83.8536C144.901 82.7412 164.948 81.6779 184.992 80.5436C198.083 79.8056 211.17 78.9745 224.253 78.1659C226.166 78.0492 228.07 77.7906 229.987 77.6559C230.848 77.5985 231.779 77.6127 232.587 77.7228C234.912 78.0408 235.539 79.2994 233.798 80.2513C233.111 80.6279 232.107 80.9736 231.165 81.0934C228.038 81.4875 224.886 81.8876 221.726 82.0835C210.187 82.7917 198.644 83.4291 187.101 84.0753C160.389 85.5677 133.681 87.0599 106.967 88.5169C99.9433 88.8995 92.9133 89.1713 85.8856 89.4829C80.7102 89.7124 75.5337 89.9197 70.3579 90.1403C64.2182 90.4064 58.0806 90.7079 51.9394 90.9474C45.5849 91.1944 39.2213 91.4375 32.8744 91.5819C27.1233 91.7104 21.3857 91.6826 15.6364 91.7621C11.0662 91.8241 6.48618 91.9488 1.91356 92.0465C1.33075 92.0572 0.743764 92.0725 0.160962 92.0831C0.159213 92.052 0.152775 92.0168 0.146587 91.9861L0.151026 91.9858Z" fill="black"/>
</g>
<defs>
<clipPath id="clip0_201_2">
<rect width="235" height="4" fill="white" transform="translate(0.0737305 90.6162) rotate(-3.22637)"/>
</clipPath>
</defs>
</svg>
