<svg width="208" height="126" viewBox="0 0 208 126" fill="none" xmlns="http://www.w3.org/2000/svg">
<path d="M43.4672 95.2465C44.1016 95.2336 44.4552 95.6121 44.5281 96.3821C44.5678 96.8021 44.4431 97.2259 44.1539 97.6535C43.8648 98.0811 43.523 98.3253 43.1285 98.3861C43.0399 97.9472 42.7369 97.4815 42.2195 96.989L35.8197 105.116C31.1117 111.094 27.6477 115.165 25.4275 117.329C20.6026 122.07 16.1368 124.635 12.0301 125.023C9.06677 125.303 7.47143 124.242 7.24408 121.839C6.86003 117.779 10.3381 112.612 17.6783 106.338C25.0419 100.062 32.1494 96.3054 39.0009 95.0687L48.1264 82.9053C36.1602 93.7836 27.4471 99.4811 21.9871 99.9976C19.7471 100.209 17.8109 99.651 16.1785 98.3223C14.5439 96.9702 13.6207 95.1742 13.4088 92.9342C12.8901 87.4509 15.6668 81.0908 21.7388 73.854C27.1348 67.4345 33.8986 61.6625 42.0303 56.538C50.0708 51.4456 56.7977 48.6434 62.2111 48.1313C66.3877 47.7362 68.6284 49.1487 68.933 52.3687C69.2773 56.0087 67.4122 59.8106 63.3377 63.7744C59.2865 67.7361 56.0126 69.835 53.516 70.0711C51.976 70.2168 51.1221 69.403 50.9543 67.6296C50.7755 65.7396 51.8142 63.4049 54.0703 60.6254C55.7137 58.5865 57.642 56.6973 59.8552 54.9577C62.1762 53.1138 63.6051 52.1664 64.1418 52.1156C64.5384 52.0781 64.75 52.1994 64.7765 52.4794C64.7986 52.7127 63.778 53.6214 61.7149 55.2056C60.0264 56.5189 58.2037 58.2804 56.2469 60.4901C53.7808 63.2895 52.6074 65.3192 52.7266 66.5792C52.7795 67.1392 53.0977 67.3916 53.681 67.3364C55.6877 67.1466 58.4655 65.1535 62.0143 61.3571C65.6521 57.5052 67.375 54.5642 67.183 52.5342C67.0196 50.8076 65.6663 50.0645 63.123 50.3051C58.713 50.7223 52.6326 53.6399 44.8818 59.058C37.1544 64.4738 30.5682 70.382 25.1234 76.7826C19.0192 83.9283 16.1779 89.7295 16.5995 94.1862C16.818 96.4962 18.2806 97.5231 20.9872 97.2671C25.2572 96.8632 31.787 93.2203 40.5764 86.3386C47.4383 80.981 53.2746 75.7323 58.0853 70.5923C59.2183 69.3787 59.9481 68.7564 60.2747 68.7255C60.7181 68.6836 60.9806 69.0943 61.0622 69.9576C61.177 71.1709 60.699 72.4639 59.6282 73.8365L43.4672 95.2465ZM37.6397 97.1044C30.9925 98.5101 24.4366 102.25 17.9721 108.323C11.533 114.417 8.44701 118.876 8.71408 121.699C8.84652 123.099 9.8694 123.709 11.7827 123.528C13.4861 123.367 15.5183 122.327 17.8794 120.409C20.1326 118.595 24.7624 113.284 31.7687 104.475L37.6397 97.1044ZM63.2602 88.7129L56.57 94.8899C53.1261 97.8053 50.4941 99.3491 48.6741 99.5213C48.3941 99.5478 48.2409 99.421 48.2144 99.141C48.1725 98.6977 48.3804 98.4073 48.8383 98.2698C50.2373 97.8785 51.412 97.3554 52.3624 96.7005C54.0219 95.5782 56.6754 93.2673 60.323 89.7676L68.8445 81.2985C70.47 79.5675 71.481 78.6832 71.8777 78.6456C72.461 78.5905 73.1336 78.8564 73.8954 79.4435C75.1516 78.2889 76.3047 77.6619 77.3547 77.5625C78.9414 77.4124 79.8153 78.1891 79.9764 79.8924C80.217 82.4357 78.5148 86.0928 74.8698 90.8635C71.1591 95.6875 68.0321 98.2198 65.4888 98.4604C63.1088 98.6855 61.8007 97.5497 61.5645 95.0531C61.4409 93.7464 62.0061 91.633 63.2602 88.7129ZM75.1318 87.6605C75.9179 86.7622 76.6763 85.5722 77.4072 84.0905C78.2116 82.39 78.5686 81.0614 78.4781 80.1048C78.3942 79.2181 77.9672 78.8112 77.1972 78.884C76.0539 78.9922 74.9673 79.8248 73.9375 81.3818C72.9288 82.9133 72.4797 84.2624 72.59 85.429C72.7136 86.7357 73.5609 87.4795 75.1318 87.6605ZM71.2879 83.61C66.9208 88.2136 64.8609 91.822 65.1081 94.4354C65.214 95.5554 65.8036 96.0646 66.877 95.9631C68.627 95.7975 71.1572 93.4276 74.4677 88.8533C72.4636 88.5721 71.3644 87.4048 71.1702 85.3515C71.1194 84.8148 71.1586 84.2343 71.2879 83.61ZM92.1858 79.7968C91.9963 79.0379 91.8938 78.5767 91.8783 78.4134C91.8187 77.7834 92.4727 76.7328 93.8402 75.2615C95.2289 73.7647 96.2032 72.9898 96.7632 72.9368C97.2999 72.8861 97.5914 73.1057 97.6377 73.5957C97.6774 74.0157 97.452 74.7433 96.9614 75.7785C99.598 75.529 101.016 76.4543 101.214 78.5543C101.371 80.211 99.9182 83.0205 96.8559 86.9827C93.7914 90.9216 92.28 93.1128 92.322 93.5561C92.3617 93.9761 92.6055 94.1885 93.0532 94.1932L94.2049 94.0489C94.5316 94.018 94.7125 94.1893 94.7479 94.5626C94.792 95.0293 94.1374 95.3266 92.7841 95.4546C91.0574 95.618 90.1212 94.9296 89.9756 93.3896C89.8321 91.873 90.5166 89.9013 92.0292 87.4746C92.9679 85.9498 94.3996 84.0369 96.3243 81.736C97.8898 79.8694 98.6649 78.8544 98.6494 78.691C98.6163 78.341 98.4014 78.1848 98.0047 78.2223C97.6547 78.2554 97.003 78.4583 96.0495 78.831C95.0938 79.1804 94.5303 79.4456 94.3591 79.6266C84.4825 90.9429 77.6541 96.7799 73.8741 97.1375C73.5941 97.164 73.4398 97.0255 73.4111 96.7222C73.3736 96.3255 73.6643 96.0391 74.2833 95.8628C75.04 95.65 76.0208 95.1923 77.2256 94.4898C79.0362 93.471 81.6708 91.2089 85.1295 87.7035C88.2035 84.6112 90.5556 81.9757 92.1858 79.7968ZM107.66 85.4664L101.525 91.1671C98.4676 93.6928 96.0408 95.0406 94.2441 95.2106C93.9641 95.237 93.8109 95.1103 93.7844 94.8303C93.7447 94.4103 93.9526 94.1199 94.4083 93.9591C96.163 93.3458 97.7334 92.5263 99.1196 91.5006C101.213 89.9842 104.089 87.2873 107.748 83.4099C111.43 79.5302 114.295 76.8461 116.344 75.3575C117.798 74.3018 119.143 73.7155 120.38 73.5985C122.456 73.4021 123.623 74.1628 123.88 75.8806C126.963 71.1395 130.483 66.051 134.442 60.6149C140.523 52.2237 144.228 47.9653 145.558 47.8394C146.305 47.7688 146.718 48.1535 146.797 48.9935C146.863 49.6935 146.045 51.1246 144.343 53.2867C141.166 57.2833 136.477 63.7066 130.275 72.5565C122.663 83.4233 118.919 89.51 119.042 90.8166C119.093 91.3533 119.504 91.5969 120.277 91.5474C121.049 91.4979 121.453 91.6598 121.488 92.0331C121.532 92.4998 120.994 92.7861 119.874 92.892C118.031 93.0664 117.037 92.3953 116.894 90.8786C116.779 89.6653 117.37 87.7024 118.668 84.9901C114.534 90.3249 111.499 93.0839 109.563 93.2671C107.766 93.4371 106.777 92.5654 106.596 90.652C106.495 89.5787 106.849 87.8501 107.66 85.4664ZM110.371 91.3544C111.701 91.2286 114.15 88.9958 117.718 84.6562C121.284 80.2931 123.004 77.4466 122.878 76.1166C122.814 75.44 122.467 75.1314 121.837 75.191C120.204 75.3455 117.715 77.5349 114.372 81.7592C111.028 85.9835 109.438 88.959 109.601 90.6856C109.647 91.1756 109.904 91.3985 110.371 91.3544ZM146.437 83.6345C142.752 87.9852 139.953 90.2511 138.04 90.4321C136.593 90.5689 135.793 89.8324 135.641 88.2224C135.462 86.3324 136.101 84.1296 137.559 81.614L141.57 75.8669L132.345 85.1088C127.104 89.9363 123.341 92.4582 121.054 92.6745C120.774 92.701 120.62 92.5625 120.591 92.2592C120.554 91.8625 120.867 91.5622 121.53 91.3582C122.378 91.1132 123.36 90.6672 124.476 90.0201C125.769 89.2621 128.436 86.9617 132.475 83.119C134.333 81.3658 137.053 78.6366 140.634 74.9313C141.224 74.1929 142.186 73.1719 143.523 71.8684C144.071 71.4399 144.59 71.2024 145.08 71.1561C146.433 71.028 147.152 71.4074 147.236 72.294C147.322 73.204 145.902 75.6219 142.978 79.5476C140.053 83.4732 138.664 86.2061 138.81 87.7461C138.847 88.1427 139.076 88.3212 139.496 88.2815C140.896 88.149 143.758 85.1827 148.083 79.3825C152.407 73.5823 154.896 70.6512 155.549 70.5894C155.876 70.5585 156.208 70.7037 156.544 71.025C156.902 71.3208 157.097 71.6437 157.13 71.9937C157.183 72.5537 155.599 75.0931 152.377 79.6119C149.153 84.1073 147.597 86.9384 147.707 88.1051C147.758 88.6417 148.181 88.8842 148.977 88.8325C149.772 88.7808 150.188 88.9416 150.223 89.3149C150.265 89.7583 149.702 90.0351 148.536 90.1455C146.576 90.3309 145.525 89.6769 145.384 88.1836C145.282 87.1102 145.633 85.5939 146.437 83.6345ZM168.066 72.619C167.876 71.86 167.774 71.3988 167.758 71.2355C167.699 70.6055 168.353 69.5549 169.72 68.0836C171.109 66.5868 172.083 65.8119 172.643 65.759C173.18 65.7082 173.471 65.9278 173.518 66.4178C173.557 66.8378 173.332 67.5654 172.841 68.6006C175.478 68.3512 176.896 69.2765 177.094 71.3765C177.251 73.0331 175.798 75.8426 172.736 79.8048C169.671 83.7438 168.16 85.9349 168.202 86.3782C168.242 86.7982 168.485 87.0106 168.933 87.0153L170.085 86.8711C170.412 86.8402 170.593 87.0114 170.628 87.3847C170.672 87.8514 170.017 88.1487 168.664 88.2767C166.937 88.4401 166.001 87.7517 165.856 86.2117C165.712 84.6951 166.397 82.7234 167.909 80.2967C168.848 78.7719 170.28 76.859 172.204 74.5581C173.77 72.6915 174.545 71.6765 174.529 71.5131C174.496 71.1631 174.281 71.0069 173.885 71.0444C173.535 71.0775 172.883 71.2804 171.929 71.6531C170.974 72.0025 170.41 72.2677 170.239 72.4487C160.362 83.765 153.534 89.602 149.754 89.9596C149.474 89.9861 149.32 89.8476 149.291 89.5443C149.254 89.1476 149.544 88.8612 150.163 88.6849C150.92 88.4721 151.901 88.0144 153.106 87.3119C154.916 86.2931 157.551 84.031 161.009 80.5257C164.083 77.4334 166.436 74.7978 168.066 72.619ZM182.309 79.4643C176.542 84.9536 172.481 87.8097 170.124 88.0327C169.844 88.0592 169.69 87.9207 169.661 87.6174C169.621 87.1974 169.877 86.9143 170.428 86.7679C172.589 86.2105 175.462 84.2319 179.048 80.8321L183.229 76.87L189.928 70.4097C193.025 67.8096 195.751 66.3981 198.108 66.1752C199.858 66.0096 200.921 66.7919 201.296 68.522C202.125 67.5726 202.714 67.0814 203.064 67.0483C203.834 66.9754 204.249 67.254 204.308 67.884C204.386 68.7007 202.825 71.3673 199.627 75.8839C196.452 80.3982 194.898 83.0054 194.964 83.7054C195.01 84.1954 195.419 84.4157 196.192 84.3662C196.964 84.3167 197.368 84.4786 197.403 84.8519C197.447 85.3186 196.676 85.627 195.089 85.7771C193.526 85.9249 192.679 85.3105 192.549 83.9339C192.445 82.8372 192.927 81.2143 193.995 79.0651L190.003 83.1506C188.029 84.9382 186.413 85.8915 185.153 86.0107C183.146 86.2005 182.047 85.2804 181.855 83.2504C181.749 82.1304 181.9 80.8684 182.309 79.4643ZM198.734 67.5638C197.357 67.694 194.705 70.0166 190.777 74.5316C186.848 79.0467 184.949 81.9925 185.08 83.3692C185.139 83.9992 185.472 84.2855 186.079 84.2281C187.409 84.1023 190.066 81.8263 194.049 77.4002C198.054 72.9486 199.99 70.0228 199.858 68.6228C199.785 67.8528 199.41 67.4998 198.734 67.5638Z" fill="black"/>
<g clip-path="url(#clip0_159_23)">
<path d="M6.06421 109.736C8.67685 109.444 11.2843 109.126 13.9021 108.86C17.997 108.448 22.1004 108.053 26.205 107.681C27.86 107.528 29.5332 107.434 31.1954 107.344C57.4779 105.877 83.7604 104.411 110.044 102.955C126.761 102.027 143.477 101.141 160.19 100.195C171.106 99.5795 182.018 98.8866 192.927 98.2123C194.522 98.115 196.11 97.8994 197.708 97.7871C198.426 97.7392 199.202 97.751 199.876 97.8428C201.815 98.108 202.338 99.1574 200.886 99.9511C200.313 100.265 199.476 100.553 198.69 100.653C196.083 100.982 193.455 101.316 190.82 101.479C181.198 102.069 171.573 102.601 161.949 103.14C139.675 104.384 117.406 105.628 95.1306 106.843C89.274 107.162 83.4121 107.389 77.5522 107.649C73.2369 107.84 68.9205 108.013 64.6047 108.197C59.4853 108.419 54.3676 108.67 49.2469 108.87C43.9483 109.076 38.6421 109.279 33.3499 109.399C28.5545 109.506 23.7703 109.483 18.9763 109.549C15.1656 109.601 11.3466 109.705 7.53386 109.786C7.0479 109.795 6.55845 109.808 6.07249 109.817C6.07104 109.791 6.06567 109.762 6.06051 109.736L6.06421 109.736Z" fill="black"/>
</g>
<path d="M52.024 38.0914C50.1311 39.7329 48.9652 40.7156 48.5264 41.0393C46.8109 42.3452 45.4655 43.0247 44.4904 43.0776C44.3344 43.0861 44.2521 43.0123 44.2437 42.8563C44.2302 42.6093 44.3716 42.4516 44.6678 42.3834C45.9033 42.0816 47.2686 41.2902 48.7639 40.0093L56.0715 33.7443C57.9652 32.1158 59.6596 31.2609 61.1548 31.1797C62.3899 31.1126 63.0326 31.5406 63.0827 32.4638C63.1053 32.8798 63.0055 33.3221 62.7831 33.7905C63.2207 33.9233 63.4493 34.1716 63.4691 34.5357C63.4747 34.6397 61.7264 37.0232 58.2242 41.6862L59.6674 41.6078C59.8364 41.5986 59.9266 41.698 59.9379 41.906C59.9541 42.2051 59.4668 42.3554 58.4758 42.3571C58.6154 42.7668 58.6923 43.1017 58.7064 43.3617C58.7827 44.7659 57.7779 46.9134 55.692 49.8042C53.583 52.7484 51.9044 54.2545 50.6562 54.3223C49.9281 54.3618 49.5401 53.9395 49.4921 53.0554C49.4094 51.5342 50.6573 49.0606 53.2357 45.6344L58.0844 39.1118C55.688 41.3284 53.9958 42.4635 53.0077 42.5172C51.8375 42.5807 51.2221 42.0535 51.1614 40.9353C51.1218 40.2072 51.4094 39.2592 52.024 38.0914ZM53.4196 41.4581C54.4857 41.4002 56.2579 40.176 58.736 37.7855C61.2135 35.3819 62.424 33.6601 62.3675 32.62C62.347 32.2429 62.1807 32.0629 61.8687 32.0798C60.7245 32.142 58.9405 33.3864 56.5164 35.8131C54.0924 38.2398 52.909 39.9797 52.9662 41.0329C52.9824 41.3319 53.1336 41.4737 53.4196 41.4581ZM57.7142 42.3789C56.4453 43.9865 55.1163 45.8061 53.727 47.8376C51.7589 50.735 50.7932 52.5218 50.8299 53.1979C50.8412 53.4059 50.9443 53.5046 51.1394 53.4941C51.7374 53.4616 53.055 52.1512 55.0921 49.5629C57.1422 46.974 58.1256 44.9124 58.0423 43.3782C58.0239 43.0402 57.9145 42.7071 57.7142 42.3789ZM73.9545 37.7999C71.8123 40.1331 70.2081 41.3286 69.142 41.3865C68.3359 41.4303 67.9085 41.0036 67.8597 40.1065C67.8025 39.0534 68.2063 37.8448 69.0711 36.4808L71.4259 33.3798L66.0993 38.3048C63.0828 40.868 60.9375 42.1843 59.6633 42.2535C59.5073 42.2619 59.4247 42.1817 59.4155 42.0126C59.4035 41.7916 59.5839 41.6319 59.9567 41.5334C60.4329 41.4162 60.9878 41.1905 61.6217 40.8561C62.3567 40.4641 63.888 39.2465 66.2155 37.2032C67.2863 36.2713 68.8569 34.8168 70.9271 32.8396C71.2707 32.4428 71.8279 31.8975 72.5987 31.2036C72.9124 30.9779 73.2058 30.8576 73.4788 30.8428C74.2329 30.8019 74.6234 31.0284 74.6502 31.5225C74.6778 32.0295 73.8362 33.3401 72.1254 35.4543C70.4146 37.5684 69.5826 39.0545 69.6292 39.9126C69.6412 40.1336 69.7642 40.2378 69.9982 40.2251C70.7783 40.1827 72.4332 38.5997 74.9628 35.4762C77.4924 32.3526 78.9393 30.7809 79.3033 30.7612C79.4853 30.7513 79.6661 30.8393 79.8458 31.0251C80.0377 31.1972 80.1389 31.3808 80.1495 31.5758C80.1665 31.8879 79.2305 33.2623 77.3417 35.699C75.4521 38.1228 74.525 39.6597 74.5603 40.3098C74.5766 40.6089 74.8061 40.7529 75.2488 40.7419C75.6916 40.7308 75.9186 40.8294 75.9299 41.0374C75.9433 41.2844 75.625 41.4256 74.9749 41.4609C73.8828 41.5202 73.3141 41.1338 73.2689 40.3017C73.2364 39.7036 73.465 38.8697 73.9545 37.7999ZM82.7582 37.8303C82.1166 38.0216 80.9269 38.6861 79.1892 39.8237C77.6524 40.8199 76.4745 41.3403 75.6554 41.3848C75.4994 41.3933 75.4168 41.313 75.4076 41.144C75.3949 40.91 75.5561 40.7578 75.8914 40.6874C76.6774 40.5143 77.769 39.966 79.1663 39.0425C80.7031 38.0462 81.9657 37.4039 82.9541 37.1155C83.4738 35.6398 84.6267 34.058 86.4128 32.3701C88.3095 30.5588 89.96 29.6151 91.3641 29.5388C92.4043 29.4823 92.9483 29.8961 92.9964 30.7802C93.0592 31.9374 92.0291 33.2582 89.906 34.7427C88.3488 35.8444 86.7407 36.7272 85.0816 37.3911C84.9221 37.8171 84.8548 38.2576 84.8795 38.7126C84.9162 39.3887 85.1743 39.818 85.6536 40.0006C85.8926 40.0789 86.3378 40.1134 86.9893 40.1041C87.4581 40.0917 87.6981 40.1895 87.7094 40.3975C87.7271 40.7226 86.9363 40.9285 85.3371 41.0154C83.6469 41.1072 82.7619 40.4185 82.6821 38.9493C82.6637 38.6113 82.6891 38.2383 82.7582 37.8303ZM85.2732 36.5983C86.4376 35.9483 87.6557 35.0866 88.9275 34.0135C90.6244 32.6043 91.452 31.5161 91.4103 30.749C91.3934 30.437 91.2419 30.2887 90.9558 30.3043C90.1107 30.3502 89.0025 31.1928 87.631 32.8321C86.4078 34.3199 85.6219 35.5753 85.2732 36.5983ZM104.443 25.0924C103.819 25.1263 103.49 24.8247 103.455 24.1876C103.426 23.6546 103.718 23.1562 104.332 22.6926C104.883 22.2714 105.445 22.0453 106.017 22.0143C106.693 21.9775 107.051 22.3297 107.091 23.0708C107.12 23.6039 106.807 24.0773 106.151 24.4911C105.584 24.8609 105.015 25.0613 104.443 25.0924ZM96.557 39.0759C96.5761 39.4269 96.9627 39.582 97.7168 39.541C97.8858 39.5318 97.976 39.6312 97.9872 39.8393C98.0007 40.0863 97.5783 40.2331 96.7202 40.2797C95.7451 40.3327 95.2321 39.8911 95.1813 38.955C95.1219 37.8629 96.4477 35.5023 99.1585 31.8734L94.0705 36.5117C91.064 39.2569 88.8521 40.668 87.4349 40.745C87.2789 40.7534 87.1963 40.6732 87.1871 40.5042C87.1744 40.2701 87.2966 40.12 87.5538 40.0539C88.3645 39.8534 89.0976 39.5463 89.7532 39.1325C90.5729 38.6185 92.2954 37.2014 94.9208 34.8811L100.616 29.5448C100.871 29.4397 101.22 29.3751 101.662 29.3511C102.104 29.3271 102.339 29.5686 102.366 30.0757C102.396 30.6217 101.43 32.1543 99.467 34.6733C97.5037 37.1793 96.5337 38.6468 96.557 39.0759ZM110.072 30.772L104.13 36.2586C101.126 38.8081 98.9934 40.1171 97.7322 40.1856C97.5762 40.1941 97.4936 40.1138 97.4844 39.9448C97.4724 39.7238 97.5947 39.5737 97.8512 39.4946C98.7876 39.209 99.508 38.9091 100.013 38.5948C100.808 38.1212 102.456 36.7733 104.957 34.5511C106.09 33.5637 107.713 32.002 109.827 29.866C110.612 28.9497 111.186 28.4817 111.55 28.4619C112.278 28.4223 112.655 28.6366 112.681 29.1047C112.713 29.7027 112.046 30.9843 110.679 32.9493C113.372 30.1951 115.258 28.7886 116.337 28.73C116.702 28.7102 117.039 28.8092 117.351 29.027C117.662 29.2318 117.827 29.5097 117.846 29.8607C117.875 30.3808 117.565 31.1605 116.917 32.1997C119.403 29.4698 121.4 28.0638 122.908 27.9819C123.779 27.9346 124.234 28.2619 124.272 28.964C124.321 29.8742 123.339 31.4793 121.326 33.7794C119.325 36.0788 118.337 37.4495 118.361 37.8915C118.379 38.2296 118.61 38.3931 119.053 38.3821C119.495 38.3581 119.721 38.4501 119.733 38.6581C119.747 38.9181 119.377 39.0686 118.623 39.1096C117.608 39.1647 117.077 38.7437 117.028 37.8466C116.973 36.8324 117.818 35.2217 119.563 33.0145C121.307 30.7942 122.172 29.5606 122.159 29.3135C122.15 29.1575 122.049 29.0848 121.854 29.0954C121.074 29.1378 119.437 30.4589 116.944 33.0589C114.883 35.2051 113.373 36.9367 112.415 38.2536C111.833 39.0676 111.393 39.4828 111.094 39.499C110.586 39.5265 110.32 39.3063 110.295 38.8382C110.269 38.3572 111.214 36.9236 113.132 34.5374C115.05 32.1512 115.994 30.6916 115.965 30.1585C115.952 29.9245 115.816 29.8145 115.556 29.8287C114.88 29.8654 113.401 31.0802 111.118 33.4732C109.157 35.5357 107.783 37.136 106.998 38.274C106.381 39.1682 105.826 39.6287 105.332 39.6555C104.89 39.6795 104.658 39.4965 104.637 39.1064C104.61 38.6124 105.439 37.1916 107.124 34.8442L110.072 30.772ZM126.412 34.5202C123.089 37.4391 120.771 38.9342 119.458 39.0055C119.302 39.014 119.219 38.9337 119.21 38.7647C119.197 38.5307 119.346 38.3792 119.655 38.3102C120.867 38.0488 122.506 37.0144 124.572 35.207L126.981 33.1005L130.843 29.6634C132.62 28.2889 134.165 27.566 135.478 27.4947C136.453 27.4417 137.026 27.8996 137.196 28.8684C137.677 28.3598 138.015 28.1002 138.21 28.0896C138.639 28.0663 138.863 28.2302 138.882 28.5812C138.907 29.0363 137.981 30.4818 136.105 32.9179C134.243 35.3532 133.322 36.7659 133.343 37.156C133.358 37.429 133.58 37.5604 134.01 37.5501C134.44 37.5398 134.66 37.6386 134.671 37.8467C134.686 38.1067 134.251 38.2607 133.366 38.3087C132.495 38.3561 132.039 37.9962 131.997 37.2291C131.964 36.618 132.268 35.7278 132.908 34.5585L130.601 36.7377C129.466 37.686 128.548 38.1793 127.846 38.2174C126.727 38.2782 126.138 37.743 126.076 36.6118C126.042 35.9877 126.154 35.2905 126.412 34.5202ZM135.795 28.2795C135.028 28.3211 133.504 29.5514 131.223 31.9704C128.942 34.3893 127.822 35.9823 127.864 36.7494C127.883 37.1005 128.061 37.2668 128.399 37.2485C129.14 37.2082 130.666 36.0039 132.976 33.6356C135.298 31.2535 136.438 29.6724 136.395 28.8923C136.372 28.4633 136.172 28.259 135.795 28.2795ZM152.046 32.541L148.514 35.5691C146.76 36.9031 145.383 37.5973 144.382 37.6517C144.226 37.6602 144.144 37.5864 144.135 37.4304C144.123 37.1964 144.245 37.0398 144.501 36.9607C145.489 36.6592 146.379 36.2393 147.171 35.7007C148.367 34.9055 150.023 33.4724 152.141 31.4014C154.271 29.3297 155.921 27.9034 157.092 27.1227C157.922 26.569 158.682 26.2734 159.371 26.236C160.528 26.1732 161.159 26.6214 161.263 27.5807C163.08 25.0174 165.148 22.271 167.466 19.3415C171.028 14.8187 173.18 12.5372 173.921 12.497C174.337 12.4744 174.558 12.6971 174.583 13.1651C174.604 13.5552 174.118 14.3314 173.125 15.4937C171.273 17.6416 168.527 21.103 164.887 25.8777C160.42 31.7406 158.206 35.0361 158.246 35.7642C158.262 36.0632 158.485 36.2076 158.915 36.1973C159.344 36.187 159.565 36.2859 159.576 36.4939C159.59 36.7539 159.285 36.9009 158.661 36.9348C157.634 36.9906 157.098 36.5959 157.052 35.7508C157.015 35.0747 157.387 33.9983 158.167 32.5215C155.754 35.391 154.008 36.855 152.929 36.9136C151.928 36.968 151.398 36.4621 151.34 35.396C151.308 34.7979 151.543 33.8463 152.046 32.541ZM153.42 35.8698C154.161 35.8296 155.57 34.6446 157.647 32.315C159.724 29.9724 160.742 28.4305 160.702 27.6894C160.681 27.3124 160.496 27.1334 160.145 27.1524C159.234 27.2019 157.804 28.3619 155.854 30.6324C153.904 32.903 152.955 34.5193 153.008 35.4815C153.022 35.7545 153.16 35.884 153.42 35.8698ZM166.424 33.2857C165.782 33.4771 164.593 34.1415 162.855 35.2791C161.318 36.2754 160.14 36.7958 159.321 36.8403C159.165 36.8487 159.083 36.7685 159.073 36.5994C159.061 36.3654 159.222 36.2132 159.557 36.1428C160.343 35.9697 161.435 35.4215 162.832 34.498C164.369 33.5017 165.631 32.8593 166.62 32.5709C167.14 31.0953 168.292 29.5135 170.078 27.8256C171.975 26.0143 173.626 25.0705 175.03 24.9943C176.07 24.9378 176.614 25.3516 176.662 26.2357C176.725 27.3928 175.695 28.7137 173.572 30.1982C172.015 31.2999 170.406 32.1827 168.747 32.8466C168.588 33.2725 168.521 33.713 168.545 34.1681C168.582 34.8442 168.84 35.2735 169.319 35.4561C169.558 35.5344 170.004 35.5689 170.655 35.5596C171.124 35.5472 171.364 35.645 171.375 35.853C171.393 36.178 170.602 36.384 169.003 36.4709C167.313 36.5627 166.428 35.874 166.348 34.4048C166.329 34.0667 166.355 33.6937 166.424 33.2857ZM168.939 32.0538C170.103 31.4037 171.321 30.5421 172.593 29.4689C174.29 28.0597 175.118 26.9716 175.076 26.2045C175.059 25.8924 174.908 25.7442 174.622 25.7597C173.776 25.8056 172.668 26.6482 171.297 28.2875C170.074 29.7753 169.288 31.0307 168.939 32.0538Z" fill="#DF711A"/>
<defs>
<clipPath id="clip0_159_23">
<rect width="195.95" height="3.33532" fill="white" transform="translate(6 108.594) rotate(-3.22637)"/>
</clipPath>
</defs>
</svg>
