<svg width="235" height="4" viewBox="0 0 235 4" fill="none" xmlns="http://www.w3.org/2000/svg">
<g clip-path="url(#clip0_140_31)">
<path d="M5.18472e-05 1.37186C3.14809 1.19872 6.29168 0.994499 9.44416 0.852435C14.3752 0.634898 19.3151 0.43956 24.255 0.270859C26.247 0.199826 28.2568 0.199826 30.2532 0.204266C61.8225 0.222024 93.3918 0.239782 124.961 0.270859C145.041 0.288617 165.116 0.355209 185.192 0.35077C198.304 0.35077 211.416 0.25754 224.524 0.186508C226.441 0.177629 228.357 0.0266854 230.278 4.83313e-05C231.141 -0.00883069 232.07 0.057762 232.87 0.213145C235.173 0.661536 235.729 1.95343 233.937 2.80582C233.23 3.14322 232.208 3.43179 231.261 3.49838C228.117 3.71592 224.947 3.93789 221.781 3.95565C210.22 4.01337 198.66 4.00005 187.099 3.99561C160.345 3.98229 133.596 3.96897 106.842 3.92014C99.8079 3.90682 92.7737 3.78251 85.7396 3.69816C80.5595 3.63601 75.3795 3.55166 70.1995 3.48063C64.0546 3.40071 57.9097 3.35632 51.7648 3.24977C45.4065 3.13878 39.0393 3.02336 32.6943 2.81026C26.9451 2.61492 21.2182 2.2642 15.4734 2.02003C10.907 1.82469 6.32725 1.6915 1.75637 1.53168C1.1739 1.50948 0.586974 1.49172 0.00449823 1.46953C0.00449823 1.43845 5.18472e-05 1.40293 -0.00439453 1.37186H5.18472e-05Z" fill="#DF711A"/>
</g>
<defs>
<clipPath id="clip0_140_31">
<rect width="235" height="4" fill="white"/>
</clipPath>
</defs>
</svg>
