<svg width="9" height="11" viewBox="0 0 9 11" fill="none" xmlns="http://www.w3.org/2000/svg">
<path fill-rule="evenodd" clip-rule="evenodd" d="M4.5 0.6875C3.86182 0.6875 3.24978 0.941015 2.79852 1.39227C2.34726 1.84353 2.09375 2.45557 2.09375 3.09375V4.46875C1.72908 4.46875 1.37934 4.61362 1.12148 4.87148C0.863616 5.12934 0.71875 5.47908 0.71875 5.84375V8.9375C0.71875 9.30217 0.863616 9.65191 1.12148 9.90977C1.37934 10.1676 1.72908 10.3125 2.09375 10.3125H6.90625C7.27092 10.3125 7.62066 10.1676 7.87852 9.90977C8.13638 9.65191 8.28125 9.30217 8.28125 8.9375V5.84375C8.28125 5.47908 8.13638 5.12934 7.87852 4.87148C7.62066 4.61362 7.27092 4.46875 6.90625 4.46875V3.09375C6.90625 1.76458 5.82917 0.6875 4.5 0.6875ZM6.21875 4.46875V3.09375C6.21875 2.63791 6.03767 2.20074 5.71534 1.87841C5.39301 1.55608 4.95584 1.375 4.5 1.375C4.04416 1.375 3.60699 1.55608 3.28466 1.87841C2.96233 2.20074 2.78125 2.63791 2.78125 3.09375V4.46875H6.21875Z" fill="black"/>
</svg>
