<svg width="124" height="42" viewBox="0 0 124 42" fill="none" xmlns="http://www.w3.org/2000/svg">
<path d="M13.2448 26.2596L8.70846 32.8489C6.09695 36.6273 4.70045 38.5251 4.51897 38.5422C4.35045 38.5582 4.11134 38.45 3.80163 38.2177C3.49192 37.9854 3.32848 37.7785 3.31131 37.5971C3.26962 37.1563 5.70088 33.4081 10.6051 26.3524C8.97437 26.2581 8.13572 25.9647 8.08912 25.4721C8.04375 24.9925 8.35933 24.7338 9.03586 24.6959L11.946 24.558L17.5504 17.024C18.4499 15.7488 19.8374 13.963 21.7128 11.6668C17.3124 12.7109 13.0067 14.3411 8.79569 16.5574C8.52154 16.701 8.3002 16.7808 8.13168 16.7968C7.70391 16.8372 7.46427 16.5852 7.41277 16.0408C7.31221 14.9778 9.42807 13.6333 13.7603 12.0071C18.0549 10.3976 21.6476 9.45612 24.5383 9.18267C26.3791 9.00854 27.9369 9.16199 29.2118 9.64302C30.8928 10.2687 31.8112 11.4048 31.9669 13.0511C32.3115 16.6936 30.0726 19.8482 25.2502 22.5147C21.4336 24.6153 17.4318 25.8636 13.2448 26.2596ZM23.4463 11.3263C23.54 11.4874 23.5924 11.6264 23.6034 11.743C23.6378 12.106 22.2708 14.1775 19.5025 17.9576L14.8868 24.1228C17.6814 23.6623 20.3675 22.885 22.9452 21.7911C26.1267 20.4438 28.3915 18.8759 29.7395 17.0874C30.8539 15.5956 31.3603 14.3117 31.2585 13.2358C31.0856 11.408 29.1973 10.6646 25.5936 11.0055C25.0621 11.0557 24.3463 11.1627 23.4463 11.3263ZM26.1401 32.3378C22.9365 35.3875 20.6801 36.9742 19.3709 37.0981C19.2153 37.1128 19.1295 37.0359 19.1136 36.8674C19.0915 36.634 19.2336 36.4767 19.5398 36.3954C20.7399 36.0857 22.3362 34.9865 24.3287 33.0978L26.6512 30.8966L30.3727 27.3075C32.0933 25.863 33.6082 25.0788 34.9175 24.955C35.8897 24.863 36.4801 25.2976 36.6888 26.2588C37.1489 25.7314 37.4763 25.4584 37.6707 25.4401C38.0985 25.3996 38.3289 25.5544 38.362 25.9044C38.4049 26.3581 37.538 27.8395 35.7612 30.3487C33.9974 32.8567 33.1338 34.3051 33.1706 34.694C33.1964 34.9663 33.4238 35.0886 33.8528 35.0611C34.2818 35.0336 34.5061 35.1236 34.5257 35.331C34.5502 35.5902 34.1217 35.7616 33.2403 35.8449C32.3717 35.9271 31.9013 35.5858 31.829 34.821C31.7713 34.2117 32.0392 33.3101 32.6325 32.1161L30.4145 34.3858C29.3183 35.3789 28.4201 35.9085 27.7201 35.9747C26.6053 36.0802 25.9946 35.569 25.8879 34.4413C25.829 33.819 25.9131 33.1179 26.1401 32.3378ZM35.2651 25.7265C34.5003 25.7988 33.0267 27.0892 30.8444 29.5975C28.6621 32.1058 27.6071 33.7424 27.6794 34.5072C27.7125 34.8572 27.8976 35.0163 28.2346 34.9844C28.9735 34.9145 30.4495 33.6501 32.6627 31.1911C34.8876 28.718 35.9633 27.0926 35.8897 26.3148C35.8492 25.887 35.641 25.6909 35.2651 25.7265ZM44.4384 26.0554C44.3331 25.6338 44.2762 25.3776 44.2676 25.2869C44.2345 24.9369 44.5978 24.3532 45.3576 23.5358C46.129 22.7043 46.6703 22.2738 46.9814 22.2443C47.2796 22.2161 47.4415 22.3381 47.4673 22.6104C47.4894 22.8437 47.3641 23.2479 47.0915 23.823C48.5563 23.6844 49.3439 24.1985 49.4543 25.3652C49.5414 26.2855 48.7342 27.8463 47.0329 30.0476C45.3304 32.2359 44.4908 33.4532 44.5141 33.6995C44.5362 33.9328 44.6716 34.0508 44.9203 34.0534L45.5602 33.9733C45.7416 33.9561 45.8422 34.0512 45.8618 34.2586C45.8863 34.5179 45.5227 34.6831 44.7708 34.7542C43.8116 34.8449 43.2915 34.4625 43.2105 33.607C43.1308 32.7644 43.5111 31.669 44.3514 30.3209C44.8729 29.4737 45.6683 28.411 46.7376 27.1328C47.6073 26.0957 48.0379 25.5318 48.0293 25.4411C48.0109 25.2467 47.8916 25.1599 47.6712 25.1807C47.4767 25.1991 47.1147 25.3118 46.5849 25.5189C46.054 25.713 45.7409 25.8603 45.6458 25.9608C40.1588 32.2477 36.3653 35.4905 34.2653 35.6891C34.1097 35.7038 34.024 35.6269 34.0081 35.4584C33.9872 35.238 34.1487 35.0789 34.4926 34.981C34.913 34.8627 35.4579 34.6085 36.1272 34.2182C37.1331 33.6522 38.5968 32.3955 40.5183 30.448C42.226 28.7301 43.5328 27.2659 44.4384 26.0554ZM52.3513 29.8584C49.1477 32.908 46.8912 34.4948 45.582 34.6186C45.4264 34.6333 45.3407 34.5564 45.3247 34.3879C45.3026 34.1546 45.4447 33.9973 45.7509 33.916C46.951 33.6063 48.5473 32.5071 50.5398 30.6183L52.8623 28.4171L56.5838 24.8281C58.3044 23.3836 59.8193 22.5994 61.1286 22.4756C62.1008 22.3836 62.6912 22.8182 62.8999 23.7794C63.36 23.2519 63.6874 22.979 63.8818 22.9606C64.3096 22.9201 64.54 23.0749 64.5731 23.4249C64.6161 23.8786 63.7491 25.3601 61.9723 27.8693C60.2085 30.3773 59.345 31.8257 59.3817 32.2146C59.4075 32.4868 59.6349 32.6092 60.0639 32.5817C60.4929 32.5542 60.7172 32.6441 60.7368 32.8515C60.7613 33.1108 60.3329 33.2821 59.4514 33.3655C58.5829 33.4477 58.1124 33.1063 58.0401 32.3415C57.9824 31.7322 58.2503 30.8306 58.8436 29.6366L56.6256 31.9064C55.5294 32.8994 54.6313 33.4291 53.9313 33.4953C52.8164 33.6008 52.2057 33.0896 52.099 31.9618C52.0401 31.3396 52.1242 30.6385 52.3513 29.8584ZM61.4762 23.247C60.7114 23.3194 59.2378 24.6097 57.0555 27.118C54.8732 29.6264 53.8182 31.263 53.8905 32.0278C53.9236 32.3778 54.1087 32.5368 54.4457 32.5049C55.1846 32.4351 56.6607 31.1706 58.8738 28.7117C61.0987 26.2386 62.1744 24.6131 62.1008 23.8353C62.0603 23.4076 61.8521 23.2115 61.4762 23.247ZM74.1411 21.9117C74.7686 21.3553 75.4129 21.0458 76.074 20.9833C76.6444 20.9294 77.1371 21.092 77.5523 21.4713C77.9804 21.8493 78.2221 22.33 78.2773 22.9133C78.4342 24.5726 77.679 26.4751 76.0117 28.6208C74.3222 30.8078 72.6542 31.9792 71.0079 32.135C69.4394 32.2833 68.5785 31.5473 68.4252 29.927C68.3443 29.0714 68.6009 27.8439 69.1951 26.2444C67.3563 28.2363 66.0574 29.5755 65.2984 30.262C63.2893 32.1131 61.682 33.0956 60.4764 33.2097C60.3209 33.2244 60.2357 33.154 60.221 32.9984C60.1989 32.7651 60.3533 32.6001 60.6843 32.5034C61.9807 32.1061 63.6721 30.9063 65.7585 28.904C68.0727 26.684 70.231 24.0603 72.2335 21.0327C75.2312 16.4985 77.8459 13.0991 80.0774 10.8346C82.4054 8.48254 83.9841 7.26726 84.8137 7.18878C85.6304 7.11153 86.0768 7.47476 86.1528 8.27846C86.2362 9.15994 85.543 10.6119 84.0733 12.6343C82.8229 14.3482 80.4197 16.5962 76.8639 19.3784C76.3618 19.7397 75.6365 20.2988 74.6879 21.0556C74.5304 21.1882 74.3482 21.4735 74.1411 21.9117ZM85.3897 8.50759C85.375 8.35204 85.3028 8.28039 85.1732 8.29265C84.5769 8.34906 82.9509 10.0331 80.2953 13.3448C78.1419 16.0204 76.6079 18.0554 75.6935 19.4498C80.5289 15.8142 83.5597 12.7352 84.7859 10.2127C85.2142 9.34817 85.4155 8.77981 85.3897 8.50759ZM75.2242 26.5176C76.3159 24.9234 76.8176 23.6596 76.7293 22.7262C76.6668 22.0651 76.3633 21.7603 75.8189 21.8118C75.1837 21.8719 74.6298 22.2382 74.1571 22.9107C73.6833 23.5702 73.477 24.2241 73.5383 24.8722C73.6217 25.7537 74.1837 26.3022 75.2242 26.5176ZM74.834 27.1627C73.5806 26.7712 72.9031 26.0375 72.8013 24.9615C72.7633 24.5597 72.8522 24.0477 73.068 23.4257C70.7411 27.0333 69.6317 29.4074 69.7396 30.5481C69.7899 31.0796 70.0678 31.3215 70.5733 31.2736C71.7789 31.1596 73.1991 29.7893 74.834 27.1627ZM82.6368 27.9352C82.0033 28.1521 80.8412 28.8637 79.1504 30.0699C77.6548 31.1269 76.4986 31.694 75.682 31.7713C75.5264 31.786 75.4407 31.7091 75.4247 31.5406C75.4026 31.3073 75.5577 31.1487 75.8898 31.065C76.6683 30.8606 77.7371 30.269 79.0963 29.2903C80.5919 28.2333 81.8278 27.5409 82.8039 27.2132C83.2641 25.7179 84.3527 24.0912 86.0698 22.3331C87.8925 20.4474 89.5038 19.4383 90.9038 19.3058C91.9408 19.2077 92.5011 19.5994 92.5844 20.4809C92.6936 21.6346 91.7171 22.9956 89.6552 24.564C88.1434 25.7271 86.5719 26.6736 84.9407 27.4034C84.7984 27.8354 84.7488 28.2782 84.7917 28.7319C84.8555 29.406 85.1305 29.8247 85.6168 29.9879C85.8587 30.0566 86.3049 30.0732 86.9555 30.0378C87.4234 30.0067 87.6672 30.0948 87.6868 30.3022C87.7175 30.6263 86.9356 30.8637 85.3411 31.0145C83.6559 31.1739 82.7441 30.5212 82.6055 29.0564C82.5736 28.7194 82.584 28.3457 82.6368 27.9352ZM85.1004 26.6035C86.2378 25.9074 87.4205 24.9977 88.6483 23.8745C90.2874 22.3985 91.0708 21.278 90.9984 20.5132C90.969 20.2021 90.8117 20.06 90.5265 20.087C89.6839 20.1667 88.6102 21.053 87.3055 22.7459C86.1429 24.2815 85.4079 25.5674 85.1004 26.6035ZM90.0703 16.7166C89.7851 16.7435 89.6284 16.608 89.6002 16.3098C89.572 16.0117 90.2113 15.3038 91.5181 14.1862C92.7885 13.0981 93.5533 12.5419 93.8126 12.5173C94.1237 12.4879 94.2989 12.6806 94.3381 13.0954C94.3859 13.601 94.1335 14.0434 93.5808 14.4226L91.1697 16.1025C90.6053 16.4959 90.2388 16.7006 90.0703 16.7166ZM99.8385 23.5418C103.118 20.1842 105.477 18.4374 106.916 18.3013C107.836 18.2142 108.337 18.6049 108.419 19.4735C108.492 20.2383 107.579 21.724 105.682 23.9307C103.784 26.1244 102.855 27.4287 102.894 27.8435C102.933 28.2583 103.188 28.4631 103.658 28.4578C104.127 28.4396 104.371 28.5277 104.39 28.7222C104.414 28.9814 103.96 29.1552 103.026 29.2435C101.95 29.3453 101.367 28.9165 101.276 27.9573C101.2 27.1536 101.623 26.0869 102.543 24.7574C103.015 24.0719 103.881 23.0025 105.143 21.549C106.087 20.4657 106.549 19.8204 106.53 19.613C106.514 19.4445 106.389 19.3712 106.156 19.3933C105.417 19.4632 103.903 20.6004 101.613 22.805C99.7064 24.6333 98.3037 26.1197 97.4048 27.2641C96.2608 28.7195 95.5526 29.46 95.2804 29.4858C95.073 29.5054 94.8758 29.426 94.6889 29.2475C94.5008 29.056 94.3963 28.8501 94.3754 28.6297C94.3472 28.3315 95.1276 27.0414 96.7166 24.7592L99.5663 20.664L94.9711 25.1794L91.5628 28.3464C89.8163 29.7934 88.444 30.5641 87.4459 30.6585C87.2773 30.6744 87.1857 30.6046 87.171 30.4491C87.1489 30.2157 87.3157 30.043 87.6713 29.9309C88.1553 29.7936 88.7138 29.5446 89.3467 29.1839C90.2537 28.6795 92.054 27.1098 94.7475 24.4746C97.1649 22.101 98.8971 20.2957 99.9442 19.0588C100.12 18.846 100.403 18.5838 100.792 18.2724C100.992 18.175 101.209 18.1152 101.442 18.0932C101.662 18.0723 101.89 18.1293 102.125 18.264C102.372 18.3845 102.505 18.5484 102.525 18.7559C102.547 18.9892 101.651 20.5845 99.8385 23.5418ZM109.979 25.1723C107.492 27.644 105.549 28.9461 104.149 29.0785C103.993 29.0932 103.908 29.0228 103.893 28.8672C103.871 28.6339 103.987 28.4726 104.24 28.3832C104.708 28.2212 105.423 27.892 106.383 27.3958C107.268 26.8019 109.467 24.7368 112.977 21.2003C116.309 17.8508 118.021 16.1717 118.112 16.1632C118.41 16.135 118.714 16.237 119.023 16.4693C119.346 16.7003 119.521 16.9649 119.55 17.2631C119.639 18.2094 119.058 19.945 117.806 22.47C116.717 24.6525 115.742 26.3012 114.88 27.416C115.437 27.3633 115.726 27.4406 115.745 27.648C115.77 27.9073 115.51 28.0626 114.965 28.1141C114.823 28.1276 114.606 28.1219 114.316 28.0971C114.039 28.071 113.829 28.0647 113.687 28.0781C113.583 28.088 113.429 28.1221 113.226 28.1806C113.022 28.2391 112.868 28.2733 112.764 28.2831C111.118 28.4388 110.189 27.4019 109.979 25.1723ZM113.23 26.5715C114.067 25.7338 114.942 24.3431 115.857 22.3993C116.706 20.5926 117.27 19.0155 117.548 17.6683L111.122 23.9851C111.609 24.0175 112.046 24.3554 112.434 24.9988L113.23 26.5715ZM112.723 27.2276L112.034 25.743C111.677 25.0181 111.363 24.6685 111.091 24.6943C110.806 24.7213 110.684 24.9551 110.726 25.3959C110.767 25.8366 110.94 26.278 111.243 26.7202C111.592 27.2235 111.967 27.4561 112.369 27.4181C112.524 27.4034 112.642 27.3399 112.723 27.2276ZM120.964 27.4486C120.148 27.5258 119.715 27.3052 119.666 26.7867C119.617 26.2681 119.82 25.7192 120.275 25.1399C120.73 24.5606 121.217 24.2464 121.736 24.1974C122.436 24.1312 122.82 24.4546 122.887 25.1675C123.035 26.736 122.258 28.2679 120.556 29.763C119.709 30.497 119.098 30.8817 118.723 30.9173C118.45 30.943 118.303 30.8328 118.279 30.5865C118.276 30.5476 118.675 30.1435 119.479 29.3744C120.331 28.5614 120.826 27.9194 120.964 27.4486Z" fill="black"/>
</svg>
