<?xml version="1.0" encoding="UTF-8"?>
<svg id="Layer_2" data-name="Layer 2" xmlns="http://www.w3.org/2000/svg" xmlns:xlink="http://www.w3.org/1999/xlink" viewBox="0 0 907.89 92.03">
  <defs>
    <style>
      .cls-1 {
        fill: url(#linear-gradient);
        stroke-width: 0px;
      }
    </style>
    <linearGradient id="linear-gradient" x1="0" y1="46.02" x2="907.89" y2="46.02" gradientUnits="userSpaceOnUse">
      <stop offset="0" stop-color="#f53373"/>
      <stop offset="1" stop-color="#bf51e8"/>
    </linearGradient>
  </defs>
  <g id="Layer_1-2" data-name="Layer 1">
    <path class="cls-1" d="m311.9,24.69c-24.32,0-48.65-.42-72.96.1-39.31.84-78.61,2.21-117.92,3.53-27.47.92-54.93,2.18-82.39,3.13-3.62.13-7.35-.26-10.87-1.1-4.68-1.11-7.53-5.69-7.01-10.19.53-4.62,3.52-7.22,9.03-7.44,21.8-.86,43.63-1.4,65.42-2.49,49.42-2.47,98.8-6.03,148.24-7.59C300.54.84,357.71.13,414.86,0c55.32-.11,110.65.83,165.96,1.88,41.48.79,82.96,2.04,124.41,3.91,38.44,1.73,76.85,4.39,115.25,6.96,22.77,1.52,45.5,3.61,68.24,5.58,3.45.3,6.95,1.07,10.23,2.18,5.98,2.03,9.78,8.46,8.79,14.13-1.14,6.52-6.65,11.49-13.34,11.16-14.64-.71-29.25-2.21-43.89-2.67-34.97-1.1-69.96-1.98-104.94-2.56-24.99-.42-49.99-.21-74.99-.29-3.66-.01-7.31,0-10.97,0-.03.42-.06.84-.09,1.26,12.54,1.29,25.1,2.44,37.62,3.91,37.38,4.39,74.76,8.83,112.12,13.41,20.01,2.45,39.98,5.18,59.94,7.95,3.07.43,6.21,1.4,8.98,2.8,5.17,2.61,7.76,7.99,6.72,12.76-1.17,5.35-5.98,9.86-11.86,9.64-10.47-.4-20.94-1.24-31.35-2.44-54.44-6.3-108.75-13.94-163.31-18.84-48.42-4.35-97.08-6.76-145.68-8.13-53.11-1.49-106.32-2.03-159.43-.71-52.77,1.31-105.5,5.07-158.2,8.46-33.74,2.17-67.42,5.4-101.09,8.55-27.03,2.53-54,5.72-81.02,8.45-6.62.67-13.3.89-19.95.94-5.95.05-10.07-3.08-12.12-8.66-1.95-5.33-.75-10.65,3.67-13.45,5.77-3.66,12.28-7.02,18.9-8.3,43.67-8.42,87.43-16.51,131.81-20.17,45.99-3.8,92.04-6.85,138.05-10.28,6.26-.47,12.5-1.19,18.75-1.79-.06-.32-.13-.64-.19-.96Z"/>
  </g>
</svg>