<?xml version="1.0" encoding="utf-8"?>
<!-- Generator: Adobe Illustrator 27.8.1, SVG Export Plug-In . SVG Version: 6.00 Build 0)  -->
<svg version="1.1" id="Layer_2_00000066504648933623545260000013318852868536341922_"
	 xmlns="http://www.w3.org/2000/svg" xmlns:xlink="http://www.w3.org/1999/xlink" x="0px" y="0px" viewBox="0 0 907.9 92"
	 style="enable-background:new 0 0 907.9 92;" xml:space="preserve">
<style type="text/css">
	.st0{fill:url(#SVGID_1_);}
</style>
<g id="Layer_1-2">
	
		<linearGradient id="SVGID_1_" gradientUnits="userSpaceOnUse" x1="-1.338514e-02" y1="47.9955" x2="907.8964" y2="47.9955" gradientTransform="matrix(1 0 0 -1 0 94)">
		<stop  offset="0" style="stop-color:#33CEF5"/>
		<stop  offset="1" style="stop-color:#515BE8"/>
	</linearGradient>
	<path class="st0" d="M311.9,24.7c-24.3,0-48.6-0.4-73,0.1c-39.3,0.8-78.6,2.2-117.9,3.5c-27.5,0.9-54.9,2.2-82.4,3.1
		c-3.6,0.1-7.4-0.3-10.9-1.1c-4.7-1.1-7.5-5.7-7-10.2c0.5-4.6,3.5-7.2,9-7.4c21.8-0.9,43.6-1.4,65.4-2.5c49.4-2.5,98.8-6,148.2-7.6
		C300.5,0.8,357.7,0.1,414.9,0c55.3-0.1,110.7,0.8,166,1.9c41.5,0.8,83,2,124.4,3.9c38.4,1.7,76.8,4.4,115.2,7
		c22.8,1.5,45.5,3.6,68.2,5.6c3.5,0.3,7,1.1,10.2,2.2c6,2,9.8,8.5,8.8,14.1c-1.1,6.5-6.7,11.5-13.3,11.2
		c-14.6-0.7-29.2-2.2-43.9-2.7c-35-1.1-70-2-104.9-2.6c-25-0.4-50-0.2-75-0.3c-3.7,0-7.3,0-11,0c0,0.4-0.1,0.8-0.1,1.3
		c12.5,1.3,25.1,2.4,37.6,3.9c37.4,4.4,74.8,8.8,112.1,13.4c20,2.5,40,5.2,59.9,7.9c3.1,0.4,6.2,1.4,9,2.8c5.2,2.6,7.8,8,6.7,12.8
		c-1.2,5.3-6,9.9-11.9,9.6c-10.5-0.4-20.9-1.2-31.3-2.4c-54.4-6.3-108.8-13.9-163.3-18.8c-48.4-4.3-97.1-6.8-145.7-8.1
		c-53.1-1.5-106.3-2-159.4-0.7c-52.8,1.3-105.5,5.1-158.2,8.5c-33.7,2.2-67.4,5.4-101.1,8.6c-27,2.5-54,5.7-81,8.4
		c-6.6,0.7-13.3,0.9-20,0.9c-5.9,0.1-10.1-3.1-12.1-8.7c-2-5.3-0.8-10.7,3.7-13.4c5.8-3.7,12.3-7,18.9-8.3
		c43.7-8.4,87.4-16.5,131.8-20.2c46-3.8,92-6.9,138-10.3c6.3-0.5,12.5-1.2,18.8-1.8C312,25.3,311.9,25,311.9,24.7L311.9,24.7z"/>
</g>
</svg>
